<?xml version="1.0" encoding="utf-8"?>
<!-- Generator: Adobe Illustrator 24.3.0, SVG Export Plug-In . SVG Version: 6.00 Build 0)  -->
<svg version="1.1" id="Слой_1" xmlns="http://www.w3.org/2000/svg" xmlns:xlink="http://www.w3.org/1999/xlink" x="0px" y="0px"
	 viewBox="0 0 3200 1119.6" style="enable-background:new 0 0 3200 1119.6;" xml:space="preserve">
<style type="text/css">
	.st0{fill:#EBF3FA;}
	.st1{fill:#F3F8FC;}
	.st2{opacity:0.6;fill:#EBF3FA;}
	.st3{fill:#E8F0FD;}
	.st4{fill:#C0D8FB;}
	.st5{fill:#DFEBFD;}
	.st6{fill:#B7D3F3;}
	.st7{fill:#DEEDFF;}
	.st8{fill:#2E3552;}
	.st9{fill:#122544;}
	.st10{fill:#D2E3FC;}
	.st11{fill:#82B378;}
	.st12{fill:#A8D29F;}
	.st13{fill:#2B478B;}
	.st14{fill:#EA9E6A;}
	.st15{fill:#D88D59;}
	.st16{fill:#8E342E;}
	.st17{fill:#233862;}
	.st18{fill:#B24940;}
	.st19{fill:#C65447;}
	.st20{fill:#F9DDBF;}
	.st21{fill:#ED7D2B;}
	.st22{fill:#FFB27D;}
	.st23{fill:#ED985F;}
	.st24{fill:#FFFFFF;}
	.st25{fill:#F99746;}
	.st26{fill:#FFC397;}
	.st27{fill:#2C3A64;}
</style>
<g>
	<g>
		<path class="st0" d="M1058.4,369.2v716.1l-861.5,3c2.2-31.3-139.6-444.2,42.1-680c257.9-334.8,478.3-64,769.3-40.5
			C1024.8,369.1,1041.4,369.6,1058.4,369.2z"/>
		<path class="st1" d="M3037.9,1071.4c-1.2,8.9-94.5-1.4-95.8,7.4l-582.4,2H1058.4V369.2c16.4-0.4,33-1.7,50.1-4
			c57.1-7.8,117-27.4,180.5-64.3c656.9-381,1191.8-277.5,1492.2,19.9c36.9,36.6,70.4,76.3,100.1,118.3
			C3008.9,619.8,3066.6,844.9,3037.9,1071.4z"/>
		<path class="st2" d="M3045.1,958.8c0.1,39.1-2.2,78.3-7.2,117.7c-1.2,8.9-94.5-1.4-95.8,7.4l-582.4,2H1058.4v-0.6l1301.3-4.5
			l582.4-2c1.3-8.8,94.6,1.6,95.8-7.4C3042.6,1033.8,3045.1,996.1,3045.1,958.8z"/>
		<polygon class="st3" points="2789,536.6 2789,1080.8 1108.5,1080.8 1108.5,607.3 1237.3,607.3 1237.3,478 1366.1,478 
			1366.1,652.6 1470.4,652.6 1470.4,613.6 1652.1,613.6 1652.1,679.6 1731.1,679.6 1731.1,531.4 1942.8,531.4 1942.8,277.4 
			2110.1,277.4 2110.1,412.9 2148.3,412.9 2148.3,299.4 2315.6,299.4 2315.6,474.2 2467.3,474.2 2467.3,367 2629.5,367 
			2629.5,474.2 2659.7,474.2 2659.7,536.6 		"/>
		<g>
			<path class="st4" d="M864.5,584.3H715.1c-6.9,0-12.5-5.6-12.5-12.5V427.6c0-6.9,5.6-12.5,12.5-12.5h149.4
				c6.9,0,12.5,5.6,12.5,12.5v144.2C877,578.7,871.4,584.3,864.5,584.3z"/>
			<path class="st5" d="M858.1,577H721.6c-6.3,0-11.4-5.1-11.4-11.4V433.8c0-6.3,5.1-11.4,11.4-11.4h136.5c6.3,0,11.4,5.1,11.4,11.4
				v131.7C869.4,571.8,864.3,577,858.1,577z"/>
			<g>
				<g>
					<circle class="st6" cx="789.8" cy="437.9" r="3.6"/>
					<path class="st6" d="M815.3,443c1-1.7,3.2-2.4,4.9-1.4c1.7,1,2.4,3.2,1.4,4.9c-1,1.7-3.2,2.4-4.9,1.4
						C815,446.9,814.4,444.7,815.3,443z"/>
					<path class="st6" d="M840.3,462.8c1.7-1.1,3.9-0.6,5,1.1c1.1,1.7,0.6,3.9-1.1,5c-1.7,1.1-3.9,0.6-5-1.1
						C838.2,466.2,838.6,463.9,840.3,462.8z"/>
					
						<ellipse transform="matrix(0.3807 -0.9247 0.9247 0.3807 68.3305 1096.3401)" class="st6" cx="852.7" cy="497.2" rx="3.6" ry="3.6"/>
					<path class="st6" d="M846.4,529.2c1.4,1.4,1.4,3.7,0,5.1c-1.4,1.4-3.7,1.4-5.1,0c-1.4-1.4-1.4-3.7,0-5.1
						C842.7,527.8,845,527.8,846.4,529.2z"/>
					<circle class="st6" cx="821.1" cy="554.5" r="3.6"/>
					<circle class="st6" cx="789.8" cy="563.6" r="3.6"/>
				</g>
				<g>
					<path class="st6" d="M764.2,443c-1-1.7-3.2-2.4-4.9-1.4c-1.7,1-2.4,3.2-1.4,4.9c1,1.7,3.2,2.4,4.9,1.4
						C764.5,446.9,765.1,444.7,764.2,443z"/>
					<path class="st6" d="M739.2,462.8c-1.7-1.1-3.9-0.6-5,1.1c-1.1,1.7-0.6,3.9,1.1,5c1.7,1.1,3.9,0.6,5-1.1
						C741.3,466.2,740.9,463.9,739.2,462.8z"/>
					<circle class="st6" cx="726.8" cy="497.2" r="3.6"/>
					<path class="st6" d="M733.1,529.2c-1.4,1.4-1.4,3.7,0,5.1c1.4,1.4,3.7,1.4,5.1,0c1.4-1.4,1.4-3.7,0-5.1
						C736.8,527.8,734.5,527.8,733.1,529.2z"/>
					<circle class="st6" cx="758.4" cy="554.5" r="3.6"/>
				</g>
			</g>
			<g>
				<circle class="st6" cx="792.5" cy="497.2" r="3.6"/>
				<g>
					<rect x="792" y="452" class="st6" width="1" height="45.1"/>
				</g>
				<g>
					
						<rect x="788.8" y="486.2" transform="matrix(0.7865 -0.6175 0.6175 0.7865 -129.5604 600.5893)" class="st6" width="30.4" height="3"/>
				</g>
			</g>
		</g>
		<path class="st7" d="M1108.5,365.2v711.9h-100.1V367.7C1040.8,370.4,1074.1,369.9,1108.5,365.2z"/>
		<path class="st7" d="M2881.2,439v638h-100.1V320.7C2818.1,357.4,2851.5,397,2881.2,439z"/>
		<path class="st8" d="M3112.6,1087.3h-3009c-2.4,0-4.4-2-4.4-4.4v-4.3c0-2.4,2-4.4,4.4-4.4h3009c2.4,0,4.4,2,4.4,4.4v4.3
			C3117,1085.3,3115,1087.3,3112.6,1087.3z"/>
		<g>
			<polygon class="st6" points="1190.6,825.8 1174.5,825.8 1194.2,1074.7 1233.2,1074.7 			"/>
			<g>
				<path class="st9" d="M1509.9,753.1l-3.4,0.7c-15.4,3.1-30.4-6.9-33.6-22.3l-3.6-18c-3.1-15.4,6.9-30.4,22.3-33.6l3.4-0.7
					c15.4-3.1,30.4,6.9,33.6,22.3l3.6,18C1535.3,734.9,1525.3,750,1509.9,753.1z"/>
				<path class="st6" d="M1174.5,825.8c0,0,87.7-41.2,207.9-13.8l-191.8,13.8H1174.5z"/>
				<path class="st10" d="M1233.2,1077.1l-42.7-251.3c0,0,134.4-45.1,238.6,0l62,249.7L1233.2,1077.1z"/>
				<g>
					<path class="st11" d="M2162.3,999.3c-2.4,27.3-17.8,35.7-24.5,35c-6.8-0.7-46.4-15.8-47.2-10.3c-0.9,5.5,23,23.7,39.7,24.5
						c0,0-31.5,34.8-52.4,24.7c-20.9-10-22.7-25.9-35.8-31.9c-13.1-6-24.2-5.9-18.8,0.1c5.4,6.1,29,12,36.5,25.2
						c1.8,3.1,3.5,6,4.8,8.5l-44.1-0.1c-14-6.9-25.8-16.5-26.6-26.9c-0.1-0.8-0.1-1.5-0.2-2.3c-1.4-15.9-1.4-15.9-1.4-15.9
						s-22.6-26.4-10.9-48.3c2-3.6,4.9-7.2,9-10.4c0,0,21.1-12.8,38.3-11.7c0,0-13.3,22.4-17.1,35.6c-1.3,4.7-1.5,8.2,0.6,9.3
						c2.2,1.2,5.2-2.2,8.2-7.6c7.5-13.5,15.7-39.9,15.7-39.9s12.7-1.2,27.1-1.4c6.5-0.1,13.3,0,19.5,0.6c6.8,0.6,12.9,1.7,16.8,3.6
						c0,0-0.9,0.7-2.3,1.9c-2.2,1.8-5.6,4.7-9.4,8.1c-11.4,10.1-26.2,24.3-20.7,25.6c4.5,1,18.5-7.3,31-15.6
						c11.6-7.7,21.9-15.4,21.9-15.4S2164.7,972,2162.3,999.3z"/>
					<g>
						<path class="st11" d="M2140.4,1000c0,0-121.4-4.7-148.2,30c0,0-5.9,17.8-24.2,33.9l-2.8,7.8c0,0,21-22.2,28.6-23.5
							C1993.7,1048.2,1982,1005.2,2140.4,1000z"/>
						<path class="st11" d="M1973.1,1063.7c-1,1.1-2.6,2.7-4.8,4.8l0,0c-0.8,0.7-1.5,1.5-2.3,2.3c-1.1,1.2-2.2,2.6-3.2,4.1l-5.7,0
							c5.8-7.2,10.9-11,10.9-11s0,0,0,0C1968.5,1063.7,1978.9,1057.3,1973.1,1063.7z"/>
					</g>
				</g>
				<g>
					<path class="st12" d="M1859.7,984.9c0,0,49-27.4,26.1-64.6c0,0-18.3-22.9-37.9-28.7c0,0,10.4,55.5,0,56.8
						c-10.4,1.3-7.2-62.7-7.2-62.7s-51.6-24.8-71.8-22.9c0,0,32,54.2,21.5,52.9c-10.4-1.3-46.4-56.2-46.4-56.2s-52.9-9.8-61.4,21.5
						c-8.5,31.3,5.2,47,13.1,49c7.8,2,58.1,1.3,56.8,7.8s-35.3,17-54.2,11.1c0,0,20.9,51.6,48.3,49c27.4-2.6,35.9-19.6,52.9-20.9
						c17-1.3,29.4,3.3,20.9,7.8c-8.5,4.6-37.2,1.5-50.9,13.2c-13.7,11.7-24.8,18.8,0.7,24.1c25.5,5.2,71.2,2,80.3-17.6
						C1859.7,984.9,1859.7,984.9,1859.7,984.9z"/>
					<g>
						<path class="st11" d="M1706.9,890.8c0,0,137.1,44.4,152.8,94c0,0-0.7,22.2,13.1,47.7v9.8c0,0-14.4-33.3-22.2-37.9
							C1850.5,1004.4,1881.2,961.3,1706.9,890.8z"/>
						<path class="st11" d="M1885.4,1074.8l-7.8,0c-0.2-11.3-1.6-24.1-5.4-33.8c0,0,0,0,0,0c-0.5-1.2-1-2.4-1.6-3.5c0,0,0,0,0,0
							c-1.6-3.2-2.7-5.5-3.4-7.2l0,0c-4-9.8,5.6,2.2,5.6,2.2S1884.2,1050,1885.4,1074.8z"/>
					</g>
				</g>
				<g>
					<path class="st12" d="M1937.6,947c0,0-64.6-36.2-34.4-85.2c0,0,24.1-30.1,49.9-37.9c0,0-13.8,73.2,0,74.9
						c13.8,1.7,9.5-82.6,9.5-82.6s68-32.7,94.7-30.1c0,0-42.2,71.4-28.4,69.7c13.8-1.7,61.1-74,61.1-74s69.7-12.9,80.9,28.4
						c11.2,41.3-6.9,62-17.2,64.6c-10.3,2.6-76.6,1.7-74.9,10.3c1.7,8.6,46.5,22.4,71.4,14.6c0,0-27.5,68-63.7,64.6
						c-36.2-3.4-47.3-25.8-69.7-27.5c-22.4-1.7-38.7,4.3-27.5,10.3c11.2,6,49.1,2,67.1,17.3c18.1,15.4,32.7,24.8-0.9,31.7
						c-33.6,6.9-93.8,2.6-105.9-23.2C1937.6,947,1937.6,947,1937.6,947z"/>
					<g>
						<path class="st11" d="M2139,823.1c0,0-180.8,58.5-201.4,123.9c0,0,0.9,29.3-17.2,62.8v12.9c0,0,18.9-43.9,29.3-49.9
							C1949.6,972.9,1909.2,916,2139,823.1z"/>
						<path class="st11" d="M1927.7,1006.9C1927.7,1006.9,1927.7,1006.9,1927.7,1006.9c-0.9,2.3-2.4,5.4-4.5,9.6c0,0,0,0,0,0
							c-0.7,1.5-1.4,3-2.1,4.6c0,0,0,0,0,0c-6.2,15.5-7.4,36.9-7.2,53.8l-10.4,0c-1.2-37.6,16.8-65,16.8-65s0,0,0,0
							C1920.6,1009.5,1932.9,994.1,1927.7,1006.9z"/>
					</g>
				</g>
				<path class="st13" d="M1616.2,1075.5h-245.5c-3.6-8.8-6.8-18.2-9.6-28c-7-24.5-11.5-51.5-14.4-77.9c0-0.3-0.1-0.7-0.1-1
					c-5-45.8-5-89.9-4.3-116.4c0.4-15.3,1-24.8,1-25.2v0c0.5-0.2,1.1-0.4,1.6-0.6c13-5.5,25.5-10.2,37.5-14.2c0.1,0,0.1,0,0.1,0
					c10.1-3.4,19.7-6.4,29.1-8.9c16.4-4.5,31.6-7.7,45.7-10c16.6-2.6,31.7-3.9,45.1-4.2c0.6,0,1.2,0,1.8,0c3.6-0.1,7,0,10.3,0
					c33.6,0.7,56,7.4,67.3,11.9c1.6,0.6,2.9,1.2,4.1,1.7c0.1,0.1,0.3,0.1,0.4,0.2c1.3,0.6,2.3,1.1,3,1.4c0.1,0,0.2,0.1,0.3,0.1
					c0.3,0.2,0.7,0.4,1,0.5l17.7,186.1L1616.2,1075.5z"/>
				<path class="st13" d="M1860.9,1035.2c-24.6,11.4-170.9,21-185,17c-7.2-2.1-37.4-28.7-67.7-61.3c0,0,0,0,0,0
					c-28.7-30.9-57.7-67.3-67.4-93.5c-20.1-53.8-2.8-101.6-2.8-101.6s37.3-0.2,52.6,9c15.2,9.2,102.2,169.5,113.9,173.7
					c11.6,4.3,149.5,12.1,165.3,19.6C1869.6,998.1,1885.4,1023.8,1860.9,1035.2z"/>
				<path class="st14" d="M1504.1,795.4l0,9.1c0,0,2.5,28.3-32.4,32.5c-34.9,4.2-61.3-11-60.4-32.8c3.1-16.9,6.5-28.6,6.8-42.6
					c0.1-5.2-0.3-10.7-1.3-17l67.6-1.5l19.9,3.2L1504.1,795.4z"/>
				<path class="st15" d="M1504.3,746.4l-0.2,49c-7.2,3.4-15.3,5.4-24.4,5.4c-31.1,0-62-50-63-56.2L1504.3,746.4z"/>
				<path class="st14" d="M1508.2,770.2c0,0-86.6,17.6-96.7-36.5c-10.1-54.1-28.2-88.2,26.7-101.8c54.8-13.5,69.5,5.1,77.3,22.3
					C1523.3,671.5,1530.5,764.2,1508.2,770.2z"/>
				<path class="st16" d="M1532.3,614c0,0-24.2-1.8-52.7-14.2c-23.1-10-52.3,1.1-61.7,6.1c0.3-1.5,0.9-3.6,2.3-5.7
					c0,0-4.2,3-4.9,7.2c-0.4,0.3-0.6,0.5-0.5,0.6c0,0-4.8-0.9-7.9,0.5c0,0,2.2-0.3,2.9,1.1c0.1,0.1,0.2,0.3,0.3,0.4
					c-36,17.5-39.3,74.5-27.7,87.6c14,15.8,30.8,51.5,30.8,51.5s6.1-8.5,3.5-22.4c-2.6-14,9.5-14,24.7-20.3
					c15.2-6.4,2.5-24.1,15.8-34.9c13.3-10.8,62.2-4.5,61.5-12.8C1537,652.2,1532.3,615.9,1532.3,614z"/>
				<path class="st17" d="M1370.6,1075.5c-3.6-8.8-6.8-18.2-9.6-28c-7-24.5-11.5-51.5-14.4-77.9c0-0.3-0.1-0.7-0.1-1
					c0.2,0.1,0.5,0.6,0.7,0.3c9.6-11.6,35.7-24.3,67.3,21.9c6.3,9.2,34,73.8,38.4,84.6H1370.6z"/>
				<path class="st14" d="M1396.3,1075.5c-0.7-4.2,0.1-9.4,3.3-16c0,0,4.1-2.6,9.4-5.7c8-4.5,19-10,23.9-9.1
					c0.9,0.2,2.1,0.4,3.5,0.8c11.8,2.8,39.3,11.3,43.4,16.2c3.4,4.1,8.1,9.3,11.3,13.8H1396.3z"/>
				<path class="st13" d="M1414.5,1075.5h-231.4c-0.6-3-0.6-5.7,0.2-7.8c6.9-17.4,20.4-46.1,35.9-76.9
					c11.4-22.6,23.9-46.4,35.7-67.7c16.4-29.5,31.4-54.2,40.2-64.4c7-8,15.7-14.7,24.9-20.2c7.8-4.7,15.8-8.5,23.2-11.6v0
					c0.5-0.2,1.1-0.4,1.6-0.6c16.1-6.5,28.9-9.4,28.9-9.4s0.2,7.3,0.2,18.5c0,32.6-1.2,98.3-11.6,114.4c-2.9,4.5-8.3,11.2-15.1,19.1
					c-0.2,0.2-0.4,0.4-0.6,0.7c-3.7,4.3-7.7,8.9-12,13.6c-24.1,27-54.7,58.8-58.5,62.7c-0.3,0.3-0.4,0.4-0.4,0.4h0.4l64.9,0.9
					l19.9,0.3l41.3,0.6c2.8,1.2,5.1,3.2,6.8,5.7C1413,1059.6,1414.3,1068.1,1414.5,1075.5z"/>
				<path class="st17" d="M1860.9,1035.2c-24.6,11.4-170.9,21-185,17c-7.2-2.1-37.4-28.7-67.7-61.3c1.5,0.2,15.4-22.9,78.7,32.4
					c0,0,16.6,7.4,61.7,3.2C1793.6,1022.4,1851.5,1020.9,1860.9,1035.2z"/>
				<g>
					<path class="st18" d="M1717.1,1075h-167.3l0,0c0-7.4,6-13.3,13.3-13.3h153.9V1075z"/>
					<polygon class="st18" points="1716.6,892.9 1975.3,892.9 1913.2,1075 1652.9,1075 					"/>
					<polygon class="st19" points="1979.1,892.8 1917,1075 1656.7,1075 1720.4,892.8 					"/>
					<path class="st20" d="M1839.6,982.3c-1.6,7-8.6,12.6-15.5,12.6s-11.3-5.6-9.7-12.6c1.6-7,8.6-12.6,15.5-12.6
						S1841.2,975.3,1839.6,982.3z"/>
					<polygon class="st18" points="1979.1,892.8 1917,1075 1795.9,1075 1941,892.8 					"/>
				</g>
				<path class="st9" d="M1436.7,753.1l-3.4,0.7c-15.4,3.1-30.4-6.9-33.6-22.3l-3.6-18c-3.1-15.4,6.9-30.4,22.3-33.6l3.4-0.7
					c15.4-3.1,30.4,6.9,33.6,22.3l3.6,18C1462.1,734.9,1452,750,1436.7,753.1z"/>
				<g>
					<path class="st9" d="M1409.9,688.2c-2.3-4.2-5.7-37.7,3.5-64.4c4.5-12.9,11.7-20.3,20.7-25.2c3.3-1.8,6.9-2.8,10.7-2.8l9.1,0.2
						c-29.9,12.7-36.9,80.4-34.5,87.7c-0.1-0.2-0.2-0.4-0.2-0.5L1409.9,688.2z"/>
				</g>
				<g>
					<path class="st9" d="M1497.2,758.8c-50.3,0-75.2-39.7-75.4-40.1l4.5-2.7l-2.2,1.4l2.2-1.4c0.2,0.4,23.7,37.6,70.9,37.6
						c0.3,0,0.6,0,0.9,0l0.1,5.3C1497.8,758.8,1497.5,758.8,1497.2,758.8z"/>
				</g>
				<path class="st13" d="M1428.6,735.5l-1.7,0.3c-7.6,1.5-15.2-3.4-16.7-11.1l-1.8-9c-1.5-7.6,3.4-15.2,11.1-16.7l1.7-0.3
					c7.6-1.5,15.2,3.4,16.7,11.1l1.8,9C1441.2,726.4,1436.2,734,1428.6,735.5z"/>
				<path class="st9" d="M1503.4,760.5h-4.7c-2.4,0-4.4-2-4.4-4.4l0,0c0-2.4,2-4.4,4.4-4.4h4.7c2.4,0,4.4,2,4.4,4.4l0,0
					C1507.8,758.6,1505.8,760.5,1503.4,760.5z"/>
			</g>
		</g>
		<g>
			<path class="st16" d="M497.5,681.9c0,0-42.2,21.6-11.4,67.9c0,0-36.2,4.2-45.4-6.2c0,0,1.4,4.6,3,6.8c0,0-35.1-4.6-47.7-17.9
				c-12.6-13.3,26.7-190.3,120.2-154.1c0,0,83.2,7.6,59.6,101.3c-23.6,93.7,7.4,98.9,7.4,98.9s-9.3,2.8-13.5,2.1
				c0,0-5.7-3.3-6.3-6.9c0,0,0.3,5.5,1.6,7.4c0,0-34-2.4-48.6-17.9C501.7,747.8,489.4,700.7,497.5,681.9z"/>
			<path class="st21" d="M557.7,728.2l-3.4,0.5c-15,2.1-29.1-8.5-31.1-23.6l-2.4-17.7c-2.1-15,8.5-29.1,23.6-31.1l3.4-0.5
				c15-2.1,29.1,8.5,31.1,23.6l2.4,17.7C583.4,712.1,572.8,726.1,557.7,728.2z"/>
			<path class="st22" d="M567.3,869.7c-12.6,9.7-20.6,44.8-40.8,50.6c-76.1,21.7-116.9-68.6-130.3-112.7c10.2-6.5,20-8.4,25.7-9.3
				c5.5-0.9,11.4-1.7,16.2-2.2c8.3-7.1,19.8-34.8,20.5-77l3.7,0.8l61.5,13.5c0,0-1.8,19.4-2.2,37.7c-0.3,14.3-0.8,17.7,0.3,19.4
				c4.8,0.8,10.4,13,10.4,13s0,0,0,0.1C533.2,804.8,552.3,832.9,567.3,869.7z"/>
			<path class="st23" d="M523.8,733.3c0,0-1.8,19.4-2.2,37.7c-34.6-1.7-52.2-33.6-59.3-51.2L523.8,733.3z"/>
			<g>
				<path class="st10" d="M836.7,1052.4c0,0-36.2,1.3-75.5,1.5c-4.6,0-9.4,0-14,0c-32-0.1-63.4-1.3-76.8-4.7
					c-13.1-3.4-63.4-37.4-103.6-78.7c0,0,0,0,0,0c-3.1,7.4-5.5,13.1-5.5,13.6c-1.2,9.3-3.2,18.6-5.5,27.5
					c-9.1,34-24.3,62.6-24.9,63.6l-21.5,0l-168.2-0.2c0,0,31.8-48.9,23.2-174.3c-0.2-3.2,29.3-104.3,29.3-104.3s22.9-4,49.4-6.1
					c2.5,2.3,7.6,68.8,40.8,72.7c5.4,0.6,40,53.4,40,53.4l10.5-54l-12.4-71.6c15.9,4.7,24.6,6.3,37.8,11.6
					c9,3.6,16.4,10.2,21.1,18.7c23.2,42.3,98.3,178.8,106,182c7.2,3,34.3,8.4,62.9,13.6h0c38.3,7,79.5,13.6,79.5,13.6L836.7,1052.4z
					"/>
				<path class="st10" d="M542.9,1075l-12,0c0,0,0,0,0,0L542.9,1075z"/>
			</g>
			<path class="st22" d="M534.1,751.8c0,0-81.8-1.6-80-52.5c1.8-50.9-7.6-85.4,44.7-86.6c52.3-1.1,61.8,18.7,65.3,35.8
				C567.6,665.6,555.4,750.9,534.1,751.8z"/>
			<path class="st6" d="M761.3,1053.8c-4.6,0-9.4,0-14,0c-32-0.1-63.4-1.3-76.8-4.7c-13.1-3.4-63.4-37.4-103.6-78.7c0,0,0,0,0,0
				s8.5-32.5,12.1-37.9c3.7-5.5,18.1,47.4,51.8,68.9c33.7,21.5,86.5,36.6,112.1,30.5C760.2,1027.7,761.9,1043.3,761.3,1053.8z"/>
			<path class="st24" d="M518,723.4c0,0,0.5,6.1,13.9,7.1c0,0,11.3,0.8,11.7-5.7C543.7,724.8,533.4,718.6,518,723.4z"/>
			<g>
				<path class="st9" d="M522.4,744c-46.5-14.7-57.9-58.7-58-59.1l5-1.2l-2.5,0.6l2.5-0.6c0.1,0.4,10.9,41.7,54.6,55.5
					c0.3,0.1,0.6,0.2,0.9,0.3l-1.5,4.9C523,744.2,522.7,744.1,522.4,744z"/>
			</g>
			<path class="st21" d="M527.7,747.5l-4.4-1.4c-2.2-0.7-3.5-3.1-2.8-5.3l0,0c0.7-2.2,3.1-3.5,5.3-2.8l4.4,1.4
				c2.2,0.7,3.5,3.1,2.8,5.3l0,0C532.3,746.9,529.9,748.2,527.7,747.5z"/>
			<path class="st16" d="M538.7,605.9c0,0-20.9,62-52.4,72.6c-31.4,10.5-41.8-1.9-41.8-1.9s23.2-21.3,25.8-55.7
				C470.3,620.9,521.1,580.6,538.7,605.9z"/>
			<path class="st16" d="M499.6,624.2c0,0,42.7-2.4,55.4,9.8c9.2,8.8,9,13.3,9.7,25c0,0,18.7-28.8-0.5-48.9
				C543.8,588.7,499.6,624.2,499.6,624.2z"/>
			<path class="st16" d="M536.9,612.5c0,0-10.7,59.4-49.7,80.9c0,0,37.8-38.7,38.5-77.4C526.3,577.3,536.9,612.5,536.9,612.5z"/>
			<path class="st16" d="M396,732.4c12.6,13.3,47.7,17.9,47.7,17.9c-1.6-2.2-3-6.8-3-6.8c18,14.6,62.4,4,62.4,4
				c-35.4-7.8-23.9-58.8-11.9-61c7-38.5,20.9-86.4,27.4-107.9c-1.6-0.3-2.5-0.3-2.5-0.3C422.6,542.1,383.4,719.1,396,732.4z"/>
			<g>
				<path class="st21" d="M472.8,722.9l-3.4,0.5c-15,2.1-29.1-8.5-31.1-23.6l-2.4-17.7c-2.1-15,8.5-29.1,23.6-31.1l3.4-0.5
					c15-2.1,29.1,8.5,31.1,23.6l2.4,17.7C498.4,706.8,487.8,720.8,472.8,722.9z"/>
				<g>
					<path class="st21" d="M450.7,658.5c-2-3.8,5-33,15.4-55.7c5-11,17.6-25.6,26.6-29.4c3.3-1.4,7.6-0.8,11.1,0
						c2.6,0.6,9.8,3.9,9.8,3.9c-29.6,9.2-55.4,71.3-53.5,77.7c-0.1-0.2-0.1-0.3-0.2-0.5L450.7,658.5z"/>
				</g>
				<path class="st25" d="M466,705.4l-1.7,0.2c-7.5,1-14.5-4.2-15.5-11.7l-1.2-8.8c-1-7.5,4.2-14.5,11.7-15.5l1.7-0.2
					c7.5-1,14.5,4.2,15.5,11.7l1.2,8.8C478.7,697.4,473.5,704.3,466,705.4z"/>
			</g>
			<path class="st22" d="M664.5,1022.9c0,0,35.1-2,38.5-0.2c5.5,3,24.4,15.1,27.3,18.6c3,3.5,10.7,17.7,10.7,17.7s-3.3,0.9-4.9-0.4
				c-1.5-1.4-13-13.5-13-13.5l11.8,17.9c0,0-4.1-0.2-5.7-2s-12.6-12.9-12.6-12.9l-3.7-0.7c0,0,3.8,3.1,5.9,5.8
				c2.1,2.8,3.4,5.7,3.4,5.7s-3.4-0.6-4.4-1.1c-1-0.5-10.9-9.1-10.9-9.1l5.2,7.1c0,0-3.5-0.2-4.7-1c-1.2-0.8-8.8-7.9-10.2-7.8
				c-1.4,0-11.2-0.4-15.4-2.6c-4.2-2.2-17.4-7.3-17.4-7.3L664.5,1022.9z"/>
			<path class="st6" d="M447.9,780.1c0,0-23.5,6.8-28.8,12.2c0,0,24.5,62.7,59.9,92l9.5-6.7v15.2l35.4,23.2
				C523.8,916,446.1,799.1,447.9,780.1z"/>
			<path class="st6" d="M555.7,1011.4c-9.1,34-24.3,62.6-24.9,63.6l12,0l-12,0H419.1c0,0,13,0,12.9-0.1
				c-0.3-1.1,18.9-53.2-12.9-74.5c-31.9-21.4-43.5-73.9-43.5-73.9l101.5-24.8c0,0,41.8,61,53.7,72.7c9.1,8.9,30.4,9.6,30.4,9.6
				L555.7,1011.4z"/>
			<path class="st6" d="M521.9,790.5c0,0,10.8,85.3,1.9,125.5c0,0,14.5-26.6,16.5-31.5l-2.4-14.6l9.3,3.3c0,0-8.2-68-15.7-79.9
				c-7.5-11.9-10.2-13.1-10.2-13.1L521.9,790.5z"/>
			<path class="st22" d="M836.7,1052.4c0,0-45.3,1.7-89.5,1.5c-11-17,2.5-37.4,2.5-37.4h0c38.3,7,79.5,13.6,79.5,13.6L836.7,1052.4z
				"/>
			<path class="st21" d="M841,1075H673.7l0,0c0-7.4,6-13.3,13.3-13.3H841V1075z"/>
			<polygon class="st21" points="1099.2,892.8 1037.1,1075 776.8,1075 840.5,892.8 			"/>
			<polygon class="st25" points="1099.2,892.8 1037.7,1073.3 1037.1,1075 780.6,1075 844.3,892.8 			"/>
			<path class="st26" d="M963.5,982.3c-1.6,7-8.6,12.6-15.5,12.6c-7,0-11.3-5.6-9.7-12.6c1.6-7,8.6-12.6,15.5-12.6
				C960.8,969.7,965.1,975.3,963.5,982.3z"/>
			<polygon class="st21" points="1099.2,892.8 1037.7,1073.3 919.8,1073.3 1063.5,892.8 			"/>
			<path class="st22" d="M664.5,1037.1c0,0-86.1,7.5-133.7,5.4v-46.8c31.2,8.6,133.7,27.2,133.7,27.2L664.5,1037.1z"/>
			<path class="st10" d="M419.1,792.3c0,0-49.2,1.1-64.5,17.6c-15.2,16.5,15.1,109.5,15.1,109.5s91.8,112.4,137.7,120.3
				c0,0,20.1,2.7,29.4,2.9c0,0-9.2-26.7,7.9-43.5c0,0-19.7-5.5-20.5-7.9C523.5,988.8,419.1,792.3,419.1,792.3z"/>
		</g>
		<g>
			<g>
				<path class="st27" d="M2477,580.5c0,0-49.9-18.6-81,17.9c-17.9,20.9-132.1,238.7-130.8,257.8c1.4,19.1,12.3,28.6,12.3,28.6
					s-4.8-16.7-1.2-25.4c0,0-2.3,29.4,15.8,41.9c9.4,6.5,244.6-6.2,265.1-34.7c44.4-61.9-52.6-94-50.2-160.9
					C2508.4,666.8,2546.5,584.4,2477,580.5z"/>
				<path class="st21" d="M2524.5,719.2l-3.3,0.7c-14.9,3-29.5-6.7-32.5-21.6l-3.5-17.5c-3-14.9,6.7-29.5,21.6-32.5l3.3-0.7
					c14.9-3,29.5,6.7,32.5,21.6l3.5,17.5C2549.1,701.6,2539.4,716.2,2524.5,719.2z"/>
				<path class="st25" d="M2737.9,1074.7h-156c-26.5-42-49.7-98.8-55.2-142.9c-2.6-21-1.1-39.1,5.9-51.5
					c21.8-38.5-12.8-83.7-12.8-83.7s47.6,13.5,58.7,52.7c11.3,40,41.5,173,41.5,173l115.9,23.8
					C2741.3,1059.7,2737.9,1074.7,2737.9,1074.7z"/>
				<path class="st21" d="M2737.9,1074.7h-156c-26.5-42-49.7-98.8-55.2-142.9l23.1-7.1c0,0,29.3,133.7,46.3,135.7
					C2613.2,1062.5,2737.9,1074.7,2737.9,1074.7z"/>
				<path class="st22" d="M2542.9,859.9c-12,10.5-27.4,19.7-47.3,26.8c-74.6,26.4-111.3-35.1-127.3-78.3c9.8-7.2,19.5-9.6,25.1-10.9
					c5.5-1.3,11.2-2.4,16-3.2c7.9-7.6,17.6-36,15.7-78.2l3.7,0.6l62.2,9.7c0,0-0.6,19.5,0.1,37.8c0.6,14.3,1.9,27.9,5,30.9
					c4.8,0.5,7.7,0.8,7.7,0.8s0,0,0,0.1C2504.8,797.2,2525.6,824.1,2542.9,859.9z"/>
				<path class="st23" d="M2491,726.4c0,0-0.6,19.5,0.1,37.8c-34.6,0.4-54.1-30.3-62.3-47.5L2491,726.4z"/>
				<path class="st25" d="M2572.5,924.7c-0.2,1.3-16.8,55.4-17,56.8c-5.8,45.3-16.2,93.6-16.2,93.6l-22.9,0l-150.8-0.3
					c0,0,18.2-54.9-29.8-139.1c-1.6-2.8-3.2-5.5-4.9-8.4c-6.8-11.2,36.3-131.2,36.3-131.2s18.9-3.3,45.4-5.5
					c2.5,2.3,20.9,69.6,54.2,71.6c43.5,2.7,27-72.3,27-72.3c17.7,3.6,24.1,4.9,46.8,15.7C2540.6,805.6,2573.4,917.3,2572.5,924.7z"
					/>
				<path class="st22" d="M2502.4,744.2c0,0-81.8,3.4-83.1-47.5c-1.4-50.9-12.8-84.8,39.3-89.2c52.1-4.3,62.8,14.8,67.4,31.7
					C2530.6,656.2,2523.6,742,2502.4,744.2z"/>
				<path class="st24" d="M2484.6,716.9c0,0,0.9,6.1,14.3,6.2c0,0,11.3,0.1,11.4-6.5C2510.3,716.7,2499.7,711.2,2484.6,716.9z"/>
				<g>
					<path class="st9" d="M2490.3,737.2c-47.3-11.8-61.4-55-61.5-55.5l4.9-1.5l-2.4,0.8l2.4-0.8c0.1,0.4,13.4,40.9,57.9,52
						c0.3,0.1,0.6,0.1,0.9,0.2l-1.2,5C2490.9,737.4,2490.6,737.3,2490.3,737.2z"/>
				</g>
				<path class="st27" d="M2495.7,740.3l-4.5-1.1c-2.3-0.6-3.7-2.9-3.1-5.2l0,0c0.6-2.3,2.9-3.7,5.2-3.1l4.5,1.1
					c2.3,0.6,3.7,2.9,3.1,5.2l0,0C2500.3,739.5,2498,740.9,2495.7,740.3z"/>
				<path class="st27" d="M2456.1,575.9c0,0,52.6-8.2,74.4,35.6c16.6,33.4,2.8,54.2-3.7,60.6c0,0-8.6-47.9-24.7-52
					c0,0-10.4-3.2-17.4,5.1c-7.1,8.2-17.3,44.9-29.1,50.5c0,0-36.5,9-38.3-3.7c-1.8-12.7-0.8-52.4,8.4-58.7
					C2434.9,606.8,2456.1,575.9,2456.1,575.9z"/>
				<g>
					<path class="st21" d="M2439.4,719.2l-3.3,0.7c-14.9,3-29.5-6.7-32.5-21.6l-3.5-17.5c-3-14.9,6.7-29.5,21.6-32.5l3.3-0.7
						c14.9-3,29.5,6.7,32.5,21.6l3.5,17.5C2464,701.6,2454.3,716.2,2439.4,719.2z"/>
					<g>
						<path class="st21" d="M2413.4,656.3c-2.2-3.6-5.5-32.9,3.4-56.1c4.3-11.2,11.3-17.7,20.1-22c3.2-1.6,6.7-2.4,10.3-2.4l8.8,0.1
							c-29,11-35.7,70.1-33.5,76.4c-0.1-0.2-0.2-0.3-0.2-0.4L2413.4,656.3z"/>
					</g>
					<path class="st25" d="M2431.6,702.1l-1.7,0.3c-7.4,1.5-14.7-3.3-16.2-10.8l-1.8-8.7c-1.5-7.4,3.3-14.7,10.8-16.2l1.7-0.3
						c7.4-1.5,14.7,3.3,16.2,10.8l1.8,8.7C2443.8,693.3,2439,700.6,2431.6,702.1z"/>
				</g>
				<path class="st21" d="M2365.7,1074.7c0,0,18.2-54.9-29.8-139.1l17.9-22.3c0,0,31.6,89.6,71.2,115.8
					c39.5,26.1,85.9,20.6,91.5,45.9L2365.7,1074.7z"/>
				<path class="st25" d="M2367.2,796c0,0-32.5,2.8-54.3,41.3c-21.8,38.5-63.2,182.4-63.2,237.3h174.2c0,0,3.4-15-2-28.6
					l-107.8-20.8c0,0,64.9-96.3,65.6-137.9C2380.3,845.9,2367.2,796,2367.2,796z"/>
				<path class="st22" d="M2424.9,1057c0,0,33.9-3.3,39.6-1.8c5.6,1.5,21.7,8.2,25.3,10.5c3.6,2.3,10.5,9,10.5,9s-4.3,0.8-6.9,0.2
					s-10.2-1.1-12.3-1.3c-2-0.2-9.4,1.3-9.4,1.3h-52.6L2424.9,1057z"/>
			</g>
			<g>
				<path class="st17" d="M2732.3,1075H2565l0,0c0-7.4,6-13.3,13.3-13.3h153.9V1075z"/>
				<polygon class="st17" points="2990.4,892.8 2928.4,1075 2668.1,1075 2731.8,892.8 				"/>
				<polygon class="st13" points="2990.4,892.8 2928.9,1073.3 2928.4,1075 2671.9,1075 2735.6,892.8 				"/>
				<path class="st25" d="M2854.8,982.3c-1.6,7-8.6,12.6-15.5,12.6c-7,0-11.3-5.6-9.7-12.6c1.6-7,8.6-12.6,15.5-12.6
					S2856.4,975.3,2854.8,982.3z"/>
				<polygon class="st17" points="2990.4,892.8 2928.9,1073.3 2811.1,1073.3 2954.8,892.8 				"/>
			</g>
		</g>
	</g>
</g>
</svg>
