<svg xmlns="http://www.w3.org/2000/svg" viewBox="0 0 249.32 253.71"><defs><style>.cls-1{fill:#fafafa}.cls-2{fill:#ebebeb}.cls-4{opacity:.15}.cls-15,.cls-16,.cls-20,.cls-21,.cls-22,.cls-23,.cls-25,.cls-26,.cls-28,.cls-29,.cls-31,.cls-32,.cls-4{isolation:isolate}.cls-6{fill:#455a64}.cls-7{fill:#37474f}.cls-31,.cls-8{fill:#0097dd}.cls-12,.cls-15,.cls-16,.cls-26,.cls-28,.cls-32{fill:#fff}.cls-10{fill:#263238}.cls-11,.cls-23,.cls-28{opacity:.2}.cls-13,.cls-26{opacity:.5}.cls-14,.cls-15{opacity:.6}.cls-16{opacity:.8}.cls-17{fill:#ffa8a7}.cls-18{fill:#f28f8f}.cls-20{opacity:.25}.cls-21,.cls-31,.cls-32{opacity:.4}.cls-22{opacity:.1}.cls-25{opacity:.35}.cls-27{fill:#e0e0e0}.cls-29,.cls-35{opacity:.3}.cls-38{fill:#9a4a4d}</style></defs><g id="Calque_2" data-name="Calque 2"><g id="Calque_1-2" data-name="Calque 1"><g id="freepik--Floor--inject-18"><ellipse id="freepik--floor--inject-18-2" data-name="freepik--floor--inject-18" class="cls-1" cx="124.66" cy="190.28" rx="109.85" ry="63.43"/></g><g id="freepik--Shadows--inject-18"><path id="freepik--Shadow--inject-18" class="cls-2" d="M159.66 142.74L157 141.2a7.27 7.27 0 00-6.61 0L8.67 223c-1.81 1-1.81 2.76 0 3.8l2.69 1.55a7.31 7.31 0 006.6 0L61 203.52l19.13 11c5 2.86 13 2.86 17.95 0l29.71-17.15c4.21-2.43 4.21-6.41 0-8.85l-20.47-11.81 52.32-30.21c1.83-1 1.83-2.71.02-3.76z"/><ellipse id="freepik--shadow--inject-18-2" data-name="freepik--shadow--inject-18" class="cls-2" cx="187.79" cy="222.18" rx="37.38" ry="21.58"/><path id="freepik--shadow--inject-18-3" data-name="freepik--shadow--inject-18" class="cls-2" d="M222.14 223.64l26-15c1.65-.94 1.65-2.47 0-3.41l-16.26-9.36a6.84 6.84 0 00-6-.11l-27.2 14.38c-1.65.88-1.69 2.35-.06 3.3l17.62 10.18a6.5 6.5 0 005.9.02z"/></g><g id="freepik--Clouds--inject-18"><g id="freepik--clouds--inject-18-2" data-name="freepik--clouds--inject-18"><path class="cls-2" d="M65.13 30.67l2.32-1.4a4 4 0 010-.49v-1.15a7.1 7.1 0 013.21-5.54 2.46 2.46 0 011.9-.37 10.75 10.75 0 014.76-7.6c2.64-1.53 4.79-.29 4.79 2.76v1.72a8.5 8.5 0 01-.41 2.45l3.3-1.9c1-.55 1.78-.11 1.78 1A4 4 0 0185 23.26l-19.86 11.5c-1 .55-1.77.11-1.77-1a3.89 3.89 0 011.76-3.09zM45.2 24.86l-2.43.93v-5.35c0-4.25-3.38-5.27-7.06-3.15a14.71 14.71 0 00-6.66 11.54v.78a3.54 3.54 0 00-3.09.47 10.6 10.6 0 00-4.79 8.3v.35l-3.39 2a7 7 0 00-3.16 5.46c0 2 1.42 2.84 3.16 1.83L45.2 32.14a6.94 6.94 0 003.16-5.46c0-2.01-1.36-2.83-3.16-1.82z"/></g></g><g id="freepik--Device--inject-18"><g id="freepik--Monitor--inject-18"><path d="M99.17 209.48l24.56-14.19c2.54-1.47 3.8-3.38 3.8-5.3v-3.41l-23.13-13.13a5.39 5.39 0 01-2.44-4.23v-30.29L59 163.71V194a5.4 5.4 0 002.45 4.23l19.35 11.24c5.09 2.93 13.3 2.93 18.37.01z" fill="#f5f5f5"/><path class="cls-4" d="M69.37 199.36v3.41l-7.87-4.54a5.39 5.39 0 01-2.44-4.23v-30.29l8.18-4.71c.16 2.07.35 4.21.51 6.31l-5.75 3.3v23.68a5.39 5.39 0 002.45 4.24z"/><path d="M62 192.3a5.37 5.37 0 002.45 4.23l16.35 9.54c5.06 2.92 13.27 2.92 18.34 0l24.59-14.21c5.06-2.92 5.06-7.66 0-10.59l-16.37-9.54a5.39 5.39 0 01-2.44-4.23v-23.68L62 168.6z" fill="#e6e6e6"/><path class="cls-4" d="M112.37 174.61l-5-2.87a5.41 5.41 0 01-2.44-4.24v-23.68L62 168.61v23.68a5.37 5.37 0 002.45 4.23l4.89 2.83z"/><path class="cls-6" d="M10.9 211a6.57 6.57 0 005.92-.11L158 129.36a6.76 6.76 0 003.06-5.3V5.84a6.58 6.58 0 00-2.85-5.19 6.59 6.59 0 00-5.93.11L11.09 82.27A6.8 6.8 0 008 87.57v118.22a6.58 6.58 0 002.9 5.21z"/><path class="cls-7" d="M16.82 210.86L158 129.36a6.8 6.8 0 003.06-5.3V5.84c0-1.95-1.37-2.75-3.06-1.76L16.83 85.57a6.74 6.74 0 00-3.06 5.29V209.1c0 1.95 1.37 2.74 3.05 1.76z"/><path class="cls-2" d="M13.77 198.7v10.4c0 2 1.37 2.75 3.05 1.76L158 129.36a6.8 6.8 0 003.06-5.3v-10.41z"/><path class="cls-8" d="M17.82 189V92.23A4.16 4.16 0 0119.69 89l135.47-78.2c1-.6 1.88-.11 1.88 1.1v96.74a4.16 4.16 0 01-1.88 3.26L19.69 190.1c-1.04.61-1.87.12-1.87-1.1z"/><path d="M17.82 189V92.23A4.16 4.16 0 0119.69 89l135.47-78.2c1-.6 1.88-.11 1.88 1.1v96.74a4.16 4.16 0 01-1.88 3.26L19.69 190.1c-1.04.61-1.87.12-1.87-1.1z" style="isolation:isolate" opacity=".75" fill="#fff"/><path class="cls-10" d="M8.93 84.53l5.74 3.31a6.45 6.45 0 00-.91 3V209.1c0 1.78 1.21 2.75 3.06 1.77a6.56 6.56 0 01-5.93.11A5.93 5.93 0 018 206.16V87.56a6.49 6.49 0 01.93-3.03z"/><path class="cls-8" d="M84.74 163.52l6.92-4c.62-.36 1.1-.11 1.1.55a2.4 2.4 0 01-1.1 1.86l-6.92 4c-.61.36-1.1.11-1.1-.55a2.42 2.42 0 011.1-1.86z"/></g></g><g id="freepik--window-1--inject-18"><g id="freepik--Window--inject-18"><g id="freepik--window--inject-18-2" data-name="freepik--window--inject-18"><path class="cls-6" d="M127.36 44.16a1.13 1.13 0 000-.18.75.75 0 000-.16.82.82 0 00-.11-.23.21.21 0 00-.06-.1l-.05-.07-.13-.12-.15-.08a1.32 1.32 0 00-1.23.15l-92.1 53a4.51 4.51 0 00-1.84 4v68.43a1.24 1.24 0 00.66 1.1l.07.05.1.06.16.05a.85.85 0 00.23 0 1.17 1.17 0 00.61-.17l1.75-1.06 90.32-52a4.07 4.07 0 001.83-3.18V44.39a1.11 1.11 0 01-.06-.23z"/><path class="cls-8" d="M126.77 43.17a1.35 1.35 0 00-1.23.15l-92.08 53a4.05 4.05 0 00-1.84 3.15V103l-2.33-1.34v-3.5A4 4 0 0131.12 95l92.09-53a1.28 1.28 0 011.32-.11c.33.21 1.85 1.11 2.24 1.28z"/><path class="cls-8" d="M127.37 44.39c0-1.15-.82-1.62-1.83-1l-92.08 53a4.05 4.05 0 00-1.84 3.15V103l95.74-55.08z"/><g class="cls-11"><path class="cls-12" d="M125.54 43.33l-92.08 53a3.82 3.82 0 00-1.29 1.36l-2.33-1.35A3.55 3.55 0 0131.12 95l92.09-53a1.26 1.26 0 011.32-.1c.33.2 1.85 1.06 2.21 1.27a1.29 1.29 0 00-1.2.16z"/></g><path class="cls-4" d="M29.29 101.67v-3.52a3.76 3.76 0 01.55-1.83l2.33 1.34a3.69 3.69 0 00-.55 1.82V103z"/><path class="cls-7" d="M120.16 48.13a1.83 1.83 0 00-.7 1.47c0 .59.31.89.7.67a1.83 1.83 0 00.69-1.47c0-.59-.31-.89-.69-.67zM122.66 46.68a1.83 1.83 0 00-.69 1.47c0 .59.3.9.69.67a1.79 1.79 0 00.69-1.47c0-.59-.3-.89-.69-.67zM125.17 45.23a1.85 1.85 0 00-.7 1.48c0 .58.31.89.7.66a1.85 1.85 0 00.69-1.47c0-.59-.31-.9-.69-.67z"/><path class="cls-10" d="M32.28 169.89h-.09l-1.93-1.1a2 2 0 01-1-1.42v-65.7l2.38 1.33v65.74a1.2 1.2 0 00.55 1h.05z"/></g><g id="freepik--Code--inject-18" class="cls-13"><g class="cls-14"><path class="cls-12" d="M36.82 140.71l2.48-1.44c.25-.14.45 0 .45.26v.92a1 1 0 01-.45.79l-2.5 1.44a.28.28 0 01-.45-.27v-.91a1 1 0 01.47-.79zM36.82 144.36l2.48-1.44c.25-.14.45 0 .45.26v.92a1 1 0 01-.45.78l-2.5 1.44c-.24.15-.45 0-.45-.26v-.89a1 1 0 01.47-.81zM36.82 148l2.48-1.44a.28.28 0 01.45.26v.91a1 1 0 01-.45.79L36.8 150c-.24.14-.45 0-.45-.26v-.92a1 1 0 01.47-.82zM36.82 151.65l2.48-1.43c.25-.15.45 0 .45.26v.92a1 1 0 01-.45.78l-2.5 1.44a.28.28 0 01-.45-.26v-.92a1 1 0 01.47-.79z"/></g><g class="cls-14"><path class="cls-12" d="M36.82 122.62l2.48-1.44c.25-.15.45 0 .45.26v.92a1 1 0 01-.45.78l-2.5 1.44a.28.28 0 01-.45-.26v-.92a1 1 0 01.47-.78zM36.82 126.27l2.48-1.44c.25-.14.45 0 .45.26v.91a1 1 0 01-.45.78l-2.5 1.44c-.24.15-.45 0-.45-.26v-.92a1 1 0 01.47-.77zM36.82 129.92l2.48-1.44c.25-.15.45 0 .45.26v.91a1 1 0 01-.45.79l-2.5 1.44c-.24.14-.45 0-.45-.27v-.91a1 1 0 01.47-.78zM36.82 133.56l2.48-1.44c.25-.14.45 0 .45.27v.91a1 1 0 01-.45.79l-2.5 1.43a.28.28 0 01-.45-.25v-.92a1 1 0 01.47-.79zM36.82 158.8l2.48-1.43c.25-.15.45 0 .45.25v.92a1 1 0 01-.45.79l-2.5 1.44c-.24.14-.45 0-.45-.27v-.91a1 1 0 01.47-.79zM36.82 162.45L39.3 161c.25-.14.45 0 .45.27v.91a1 1 0 01-.45.79l-2.5 1.43c-.24.15-.45 0-.45-.26v-.91a1 1 0 01.47-.78z"/></g><g class="cls-14"><path class="cls-12" d="M36.82 104.53l2.48-1.44c.25-.15.45 0 .45.26v.92a1 1 0 01-.45.78l-2.5 1.44c-.24.14-.45 0-.45-.26v-.92a1 1 0 01.47-.78zM36.82 108.18l2.48-1.44c.25-.14.45 0 .45.26v.92a1 1 0 01-.45.78l-2.5 1.44c-.24.15-.45 0-.45-.26V109a1 1 0 01.47-.82zM36.82 111.82l2.48-1.44c.25-.14.45 0 .45.27v.93a1 1 0 01-.45.78l-2.48 1.42c-.25.15-.46 0-.46-.26v-.92a1 1 0 01.46-.78zM36.82 115.47L39.3 114a.28.28 0 01.45.26v.92a1 1 0 01-.45.77l-2.5 1.44c-.24.15-.45 0-.45-.26v-.92a1 1 0 01.47-.74z"/></g><path class="cls-7" d="M121.94 82.31l-19.13 11a2.83 2.83 0 00-1.28 2.2v28.81c0 .82.55 1.15 1.28.74l19.13-11a2.84 2.84 0 001.28-2.23V83.05c0-.82-.57-1.15-1.28-.74z"/><path class="cls-8" d="M120.17 104.2l-1.77 1a1.41 1.41 0 00-.65 1.1c0 .39.3.55.65.33l1.77-1a1.41 1.41 0 00.65-1.1c-.02-.39-.3-.53-.65-.33z"/><path class="cls-15" d="M120.17 104.2l-1.77 1a1.41 1.41 0 00-.65 1.1c0 .39.3.55.65.33l1.77-1a1.41 1.41 0 00.65-1.1c-.02-.39-.3-.53-.65-.33z"/><path class="cls-8" d="M120.17 86.11l-1.77 1a1.41 1.41 0 00-.65 1.1c0 .39.3.56.65.33l1.77-1a1.44 1.44 0 00.65-1.11c-.02-.38-.3-.53-.65-.32z"/><path class="cls-15" d="M120.17 86.11l-1.77 1a1.41 1.41 0 00-.65 1.1c0 .39.3.56.65.33l1.77-1a1.44 1.44 0 00.65-1.11c-.02-.38-.3-.53-.65-.32z"/><path class="cls-8" d="M117.69 91.15l-1.76 1a1.38 1.38 0 00-.65 1.1c0 .39.29.55.65.33l1.76-1a1.44 1.44 0 00.65-1.11c0-.38-.29-.53-.65-.32z"/><path class="cls-15" d="M117.69 91.15l-1.76 1a1.38 1.38 0 00-.65 1.1c0 .39.29.55.65.33l1.76-1a1.44 1.44 0 00.65-1.11c0-.38-.29-.53-.65-.32z"/><path class="cls-8" d="M117.69 94.76l-1.76 1a1.38 1.38 0 00-.65 1.1c0 .39.29.55.65.33l1.76-1a1.41 1.41 0 00.65-1.1c0-.39-.29-.54-.65-.33z"/><path class="cls-15" d="M117.69 94.76l-1.76 1a1.38 1.38 0 00-.65 1.1c0 .39.29.55.65.33l1.76-1a1.41 1.41 0 00.65-1.1c0-.39-.29-.54-.65-.33z"/><path class="cls-8" d="M120.17 97l-1.77 1a1.41 1.41 0 00-.65 1.1c0 .39.3.55.65.33l1.77-1a1.44 1.44 0 00.65-1.11c-.02-.42-.3-.57-.65-.32z"/><path class="cls-15" d="M120.17 97l-1.77 1a1.41 1.41 0 00-.65 1.1c0 .39.3.55.65.33l1.77-1a1.44 1.44 0 00.65-1.11c-.02-.42-.3-.57-.65-.32z"/><path class="cls-8" d="M117.69 102l-1.76 1a1.41 1.41 0 00-.65 1.1c0 .39.29.55.65.33l1.76-1a1.41 1.41 0 00.65-1.1c0-.33-.29-.53-.65-.33z"/><path class="cls-15" d="M117.69 102l-1.76 1a1.41 1.41 0 00-.65 1.1c0 .39.29.55.65.33l1.76-1a1.41 1.41 0 00.65-1.1c0-.33-.29-.53-.65-.33z"/><path class="cls-8" d="M115.34 88.9l-10.75 6.21a1.41 1.41 0 00-.65 1.1c0 .39.29.55.65.33l10.75-6.21a1.38 1.38 0 00.65-1.1c.01-.39-.29-.54-.65-.33z"/><path class="cls-16" d="M115.34 88.9l-10.75 6.21a1.41 1.41 0 00-.65 1.1c0 .39.29.55.65.33l10.75-6.21a1.38 1.38 0 00.65-1.1c.01-.39-.29-.54-.65-.33z"/><path class="cls-8" d="M115.34 107l-10.75 6.2a1.41 1.41 0 00-.65 1.1c0 .4.29.55.65.33l10.75-6.2a1.41 1.41 0 00.65-1.1c.01-.4-.29-.55-.65-.33z"/><path class="cls-16" d="M115.34 107l-10.75 6.2a1.41 1.41 0 00-.65 1.1c0 .4.29.55.65.33l10.75-6.2a1.41 1.41 0 00.65-1.1c.01-.4-.29-.55-.65-.33z"/><path class="cls-8" d="M112.87 94l-8.26 4.79a1.36 1.36 0 00-.65 1.1c0 .39.28.55.65.33l8.26-4.79a1.41 1.41 0 00.65-1.1c0-.45-.29-.6-.65-.33z"/><path class="cls-16" d="M112.87 94l-8.26 4.79a1.36 1.36 0 00-.65 1.1c0 .39.28.55.65.33l8.26-4.79a1.41 1.41 0 00.65-1.1c0-.45-.29-.6-.65-.33z"/><path class="cls-8" d="M112.87 97.55l-8.26 4.79a1.36 1.36 0 00-.65 1.11c0 .38.28.55.65.33l8.26-4.8a1.41 1.41 0 00.65-1.1c0-.39-.29-.53-.65-.33z"/><path class="cls-16" d="M112.87 97.55l-8.26 4.79a1.36 1.36 0 00-.65 1.11c0 .38.28.55.65.33l8.26-4.8a1.41 1.41 0 00.65-1.1c0-.39-.29-.53-.65-.33z"/><path class="cls-8" d="M115.34 99.75L104.59 106a1.38 1.38 0 00-.65 1.1c0 .39.29.55.65.33l10.75-6.21a1.41 1.41 0 00.65-1.1c.01-.43-.29-.57-.65-.37z"/><path class="cls-16" d="M115.34 99.75L104.59 106a1.38 1.38 0 00-.65 1.1c0 .39.29.55.65.33l10.75-6.21a1.41 1.41 0 00.65-1.1c.01-.43-.29-.57-.65-.37z"/><path class="cls-8" d="M112.87 104.79l-8.26 4.78a1.4 1.4 0 00-.65 1.11c0 .39.28.55.65.33l8.26-4.79a1.41 1.41 0 00.65-1.1c0-.39-.29-.53-.65-.33z"/><path class="cls-16" d="M112.87 104.79l-8.26 4.78a1.4 1.4 0 00-.65 1.11c0 .39.28.55.65.33l8.26-4.79a1.41 1.41 0 00.65-1.1c0-.39-.29-.53-.65-.33z"/><path class="cls-8" d="M120.17 111.47l-1.77 1a1.41 1.41 0 00-.65 1.1c0 .39.3.56.65.34l1.77-1a1.43 1.43 0 00.65-1.1c-.02-.4-.3-.54-.65-.34z"/><path class="cls-15" d="M120.17 111.47l-1.77 1a1.41 1.41 0 00-.65 1.1c0 .39.3.56.65.34l1.77-1a1.43 1.43 0 00.65-1.1c-.02-.4-.3-.54-.65-.34z"/><path class="cls-8" d="M117.69 109.28l-1.76 1a1.41 1.41 0 00-.65 1.1c0 .39.29.55.65.33l1.76-1a1.41 1.41 0 00.65-1.1c0-.39-.29-.54-.65-.33z"/><path class="cls-15" d="M117.69 109.28l-1.76 1a1.41 1.41 0 00-.65 1.1c0 .39.29.55.65.33l1.76-1a1.41 1.41 0 00.65-1.1c0-.39-.29-.54-.65-.33z"/><path class="cls-8" d="M115.34 114.26l-10.75 6.21a1.41 1.41 0 00-.65 1.1c0 .39.29.55.65.33l10.75-6.21a1.38 1.38 0 00.65-1.1c.01-.39-.29-.54-.65-.33z"/><path class="cls-16" d="M115.34 114.26l-10.75 6.21a1.41 1.41 0 00-.65 1.1c0 .39.29.55.65.33l10.75-6.21a1.38 1.38 0 00.65-1.1c.01-.39-.29-.54-.65-.33z"/><path class="cls-8" d="M112.87 112.06l-8.26 4.79A1.38 1.38 0 00104 118c0 .39.28.55.65.33l8.26-4.78a1.44 1.44 0 00.65-1.11c-.04-.44-.33-.59-.69-.38z"/><path class="cls-16" d="M112.87 112.06l-8.26 4.79A1.38 1.38 0 00104 118c0 .39.28.55.65.33l8.26-4.78a1.44 1.44 0 00.65-1.11c-.04-.44-.33-.59-.69-.38z"/><path class="cls-7" d="M121.94 52.68l-19.13 11a2.83 2.83 0 00-1.28 2.21V88c0 .82.55 1.15 1.28.74l19.13-11a2.81 2.81 0 001.28-2.2V53.4c0-.8-.57-1.13-1.28-.72z"/><path class="cls-8" d="M120.17 74.57l-1.77 1a1.41 1.41 0 00-.65 1.1c0 .39.3.55.65.33l1.77-1a1.41 1.41 0 00.65-1.1c-.02-.39-.3-.54-.65-.33z"/><path class="cls-15" d="M120.17 74.57l-1.77 1a1.41 1.41 0 00-.65 1.1c0 .39.3.55.65.33l1.77-1a1.41 1.41 0 00.65-1.1c-.02-.39-.3-.54-.65-.33z"/><path class="cls-8" d="M120.17 56.51l-1.77 1a1.41 1.41 0 00-.65 1.1c0 .38.3.55.65.32l1.77-1a1.41 1.41 0 00.65-1.1c-.02-.4-.3-.55-.65-.32z"/><path class="cls-15" d="M120.17 56.51l-1.77 1a1.41 1.41 0 00-.65 1.1c0 .38.3.55.65.32l1.77-1a1.41 1.41 0 00.65-1.1c-.02-.4-.3-.55-.65-.32z"/><path class="cls-8" d="M117.69 61.52l-1.76 1a1.41 1.41 0 00-.65 1.1c0 .39.29.55.65.33l1.76-1a1.41 1.41 0 00.65-1.1c0-.39-.29-.53-.65-.33z"/><path class="cls-15" d="M117.69 61.52l-1.76 1a1.41 1.41 0 00-.65 1.1c0 .39.29.55.65.33l1.76-1a1.41 1.41 0 00.65-1.1c0-.39-.29-.53-.65-.33z"/><path class="cls-8" d="M117.69 65.13l-1.76 1a1.38 1.38 0 00-.65 1.1c0 .39.29.55.65.33l1.76-1a1.41 1.41 0 00.65-1.1c0-.39-.29-.54-.65-.33z"/><path class="cls-15" d="M117.69 65.13l-1.76 1a1.38 1.38 0 00-.65 1.1c0 .39.29.55.65.33l1.76-1a1.41 1.41 0 00.65-1.1c0-.39-.29-.54-.65-.33z"/><path class="cls-8" d="M120.17 67.33l-1.77 1a1.41 1.41 0 00-.65 1.11c0 .38.3.55.65.32l1.77-1a1.41 1.41 0 00.65-1.1c-.02-.39-.3-.53-.65-.33z"/><path class="cls-15" d="M120.17 67.33l-1.77 1a1.41 1.41 0 00-.65 1.11c0 .38.3.55.65.32l1.77-1a1.41 1.41 0 00.65-1.1c-.02-.39-.3-.53-.65-.33z"/><path class="cls-8" d="M117.69 72.37l-1.76 1a1.38 1.38 0 00-.65 1.1c0 .4.29.55.65.33l1.76-1a1.44 1.44 0 00.65-1.11c0-.38-.29-.53-.65-.32z"/><path class="cls-15" d="M117.69 72.37l-1.76 1a1.38 1.38 0 00-.65 1.1c0 .4.29.55.65.33l1.76-1a1.44 1.44 0 00.65-1.11c0-.38-.29-.53-.65-.32z"/><path class="cls-8" d="M115.34 59.26l-10.75 6.21a1.41 1.41 0 00-.65 1.1c0 .4.29.56.65.34l10.75-6.22a1.38 1.38 0 00.65-1.1c.01-.38-.29-.53-.65-.33z"/><path class="cls-16" d="M115.34 59.26l-10.75 6.21a1.41 1.41 0 00-.65 1.1c0 .4.29.56.65.34l10.75-6.22a1.38 1.38 0 00.65-1.1c.01-.38-.29-.53-.65-.33z"/><path class="cls-8" d="M115.34 77.36l-10.75 6.2a1.41 1.41 0 00-.65 1.11c0 .39.29.55.65.33l10.75-6.22a1.38 1.38 0 00.65-1.1c.01-.38-.29-.53-.65-.32z"/><path class="cls-16" d="M115.34 77.36l-10.75 6.2a1.41 1.41 0 00-.65 1.11c0 .39.29.55.65.33l10.75-6.22a1.38 1.38 0 00.65-1.1c.01-.38-.29-.53-.65-.32z"/><path class="cls-8" d="M112.87 64.31l-8.26 4.79a1.34 1.34 0 00-.65 1.1c0 .38.28.55.65.32l8.26-4.78a1.41 1.41 0 00.65-1.1c0-.39-.29-.54-.65-.33z"/><path class="cls-16" d="M112.87 64.31l-8.26 4.79a1.34 1.34 0 00-.65 1.1c0 .38.28.55.65.32l8.26-4.78a1.41 1.41 0 00.65-1.1c0-.39-.29-.54-.65-.33z"/><path class="cls-8" d="M112.87 67.92l-8.26 4.8a1.33 1.33 0 00-.65 1.1c0 .38.28.55.65.32l8.26-4.78a1.44 1.44 0 00.65-1.11c0-.39-.29-.54-.65-.33z"/><path class="cls-16" d="M112.87 67.92l-8.26 4.8a1.33 1.33 0 00-.65 1.1c0 .38.28.55.65.32l8.26-4.78a1.44 1.44 0 00.65-1.11c0-.39-.29-.54-.65-.33z"/><path class="cls-8" d="M115.34 70.12l-10.75 6.21a1.41 1.41 0 00-.65 1.11c0 .39.29.55.65.33l10.75-6.21a1.41 1.41 0 00.65-1.1c.01-.4-.29-.55-.65-.34z"/><path class="cls-16" d="M115.34 70.12l-10.75 6.21a1.41 1.41 0 00-.65 1.11c0 .39.29.55.65.33l10.75-6.21a1.41 1.41 0 00.65-1.1c.01-.4-.29-.55-.65-.34z"/><path class="cls-8" d="M112.87 75.16L104.61 80a1.38 1.38 0 00-.65 1.1c0 .39.28.55.65.33l8.26-4.79a1.41 1.41 0 00.65-1.1c0-.44-.29-.54-.65-.38z"/><path class="cls-16" d="M112.87 75.16L104.61 80a1.38 1.38 0 00-.65 1.1c0 .39.28.55.65.33l8.26-4.79a1.41 1.41 0 00.65-1.1c0-.44-.29-.54-.65-.38z"/></g><path class="cls-8" d="M43.33 100.32l18.1-10.47c.25-.15.45 0 .45.23a1 1 0 01-.45.76l-18.1 10.47c-.25.15-.46 0-.46-.23a1 1 0 01.46-.76zM43.31 112.32l53.26-30.71c.26-.14.46 0 .46.24a1 1 0 01-.46.76l-53.26 30.7c-.25.15-.45 0-.45-.23a1 1 0 01.45-.76zM63.21 88.85l33.64-19.37c.25-.14.46 0 .46.23a.94.94 0 01-.46.76L63.21 89.84c-.26.15-.46 0-.46-.23a.94.94 0 01.46-.76zM43.33 103.17l9.19-5.3c.25-.14.45 0 .45.24a1 1 0 01-.45.76l-9.17 5.29c-.25.15-.45 0-.45-.23a.94.94 0 01.43-.76z"/><path class="cls-15" d="M43.33 103.17l9.19-5.3c.25-.14.45 0 .45.24a1 1 0 01-.45.76l-9.17 5.29c-.25.15-.45 0-.45-.23a.94.94 0 01.43-.76z"/><path class="cls-8" d="M43.33 106l5.51-3.17c.25-.15.45 0 .45.23a1 1 0 01-.45.76L43.33 107c-.25.15-.46 0-.46-.23a.94.94 0 01.46-.77z"/><path class="cls-15" d="M43.33 106l5.51-3.17c.25-.15.45 0 .45.23a1 1 0 01-.45.76L43.33 107c-.25.15-.46 0-.46-.23a.94.94 0 01.46-.77z"/><path class="cls-8" d="M54.27 96.85l31.88-18.36c.26-.15.46 0 .46.23a1 1 0 01-.46.76L54.27 97.84c-.25.15-.46 0-.46-.23a1 1 0 01.46-.76z"/><path class="cls-15" d="M54.27 96.85l31.88-18.36c.26-.15.46 0 .46.23a1 1 0 01-.46.76L54.27 97.84c-.25.15-.46 0-.46-.23a1 1 0 01.46-.76z"/><path class="cls-17" d="M48.11 119.84l48.74-28.17c.26-.14.47 0 .47.23a1 1 0 01-.47.77l-48.74 28.15c-.25.15-.46 0-.46-.23a1 1 0 01.46-.75zM48.11 117l48.74-28.19c.26-.14.47 0 .47.23a1 1 0 01-.47.76L48.11 118c-.25.14-.46 0-.46-.24a1 1 0 01.46-.76z"/><path class="cls-8" d="M50.31 102l9.07-5.26c.25-.15.46 0 .46.23a1 1 0 01-.46.76L50.31 103c-.25.15-.46 0-.46-.23a1 1 0 01.46-.77z"/><path class="cls-15" d="M50.31 102l9.07-5.26c.25-.15.46 0 .46.23a1 1 0 01-.46.76L50.31 103c-.25.15-.46 0-.46-.23a1 1 0 01.46-.77z"/><path class="cls-8" d="M61.15 95.71l35.42-20.3c.26-.14.47 0 .47.24a1 1 0 01-.47.76l-35.42 20.3c-.25.15-.46 0-.46-.23a1 1 0 01.46-.77z"/><path class="cls-15" d="M61.15 95.71l35.42-20.3c.26-.14.47 0 .47.24a1 1 0 01-.47.76l-35.42 20.3c-.25.15-.46 0-.46-.23a1 1 0 01.46-.77z"/><path class="cls-8" d="M43.31 109l16.06-9.22c.26-.15.46 0 .46.23a.94.94 0 01-.46.76L43.31 110c-.25.15-.45 0-.45-.23a1 1 0 01.45-.77z"/><path class="cls-15" d="M43.31 109l16.06-9.22c.26-.15.46 0 .46.23a.94.94 0 01-.46.76L43.31 110c-.25.15-.45 0-.45-.23a1 1 0 01.45-.77z"/><path class="cls-8" d="M61.15 98.76l35.42-20.3c.26-.14.47 0 .47.23a1 1 0 01-.47.76l-35.42 20.3c-.26.14-.47 0-.47-.23a1 1 0 01.47-.76z"/><path class="cls-15" d="M61.15 98.76l35.42-20.3c.26-.14.47 0 .47.23a1 1 0 01-.47.76l-35.42 20.3c-.26.14-.47 0-.47-.23a1 1 0 01.47-.76z"/><path class="cls-18" d="M48.11 122.7l48.74-28.09c.26-.14.47 0 .47.23a1 1 0 01-.47.76l-48.74 28.09c-.25.15-.46 0-.46-.23a1 1 0 01.46-.76zM48.11 125.54l48.74-28.09c.26-.15.47 0 .47.23a1 1 0 01-.47.76l-48.74 28.09c-.25.15-.46 0-.46-.23a1 1 0 01.46-.76zM48.11 128.38l48.74-28.08c.26-.15.47 0 .47.23a1 1 0 01-.47.76l-48.74 28.08c-.25.15-.46 0-.46-.23a1 1 0 01.46-.76z"/><path class="cls-8" d="M48.11 132.15l48.74-28.08c.26-.15.47 0 .47.23a1 1 0 01-.47.76l-48.74 28.09c-.25.14-.46 0-.46-.24a1 1 0 01.46-.76zM43.43 134.81l2.12-1.21c.25-.15.46 0 .46.23a1 1 0 01-.46.76l-2.12 1.22c-.25.15-.46 0-.46-.23a1 1 0 01.46-.77z"/><path class="cls-15" d="M43.43 134.81l2.12-1.21c.25-.15.46 0 .46.23a1 1 0 01-.46.76l-2.12 1.22c-.25.15-.46 0-.46-.23a1 1 0 01.46-.77z"/><path class="cls-8" d="M43.43 119.29l2.12-1.22c.25-.14.46 0 .46.23a1 1 0 01-.46.76l-2.12 1.23c-.25.14-.46 0-.46-.24a1 1 0 01.46-.76z"/><path class="cls-15" d="M43.43 119.29l2.12-1.22c.25-.14.46 0 .46.23a1 1 0 01-.46.76l-2.12 1.23c-.25.14-.46 0-.46-.24a1 1 0 01.46-.76z"/><path class="cls-8" d="M43.43 125.4l2.12-1.21c.25-.15.46 0 .46.23a1 1 0 01-.46.76l-2.12 1.21c-.25.15-.46 0-.46-.23a1 1 0 01.46-.76z"/><path class="cls-15" d="M43.43 125.4l2.12-1.21c.25-.15.46 0 .46.23a1 1 0 01-.46.76l-2.12 1.21c-.25.15-.46 0-.46-.23a1 1 0 01.46-.76z"/><path class="cls-8" d="M43.43 128.24l2.12-1.24c.25-.14.46 0 .46.24a1 1 0 01-.46.76l-2.12 1.22c-.25.14-.46 0-.46-.24a1 1 0 01.46-.74z"/><path class="cls-15" d="M43.43 128.24l2.12-1.24c.25-.14.46 0 .46.24a1 1 0 01-.46.76l-2.12 1.22c-.25.14-.46 0-.46-.24a1 1 0 01.46-.74z"/><path class="cls-8" d="M43.43 131.09l2.12-1.23c.25-.14.46 0 .46.23a1 1 0 01-.46.77l-2.12 1.22c-.25.14-.46 0-.46-.23a.94.94 0 01.46-.76z"/><path class="cls-15" d="M43.43 131.09l2.12-1.23c.25-.14.46 0 .46.23a1 1 0 01-.46.77l-2.12 1.22c-.25.14-.46 0-.46-.23a.94.94 0 01.46-.76z"/><path class="cls-8" d="M43.43 137.39l2.12-1.23c.25-.14.46 0 .46.23a1 1 0 01-.46.77l-2.12 1.22c-.25.14-.46 0-.46-.23a.94.94 0 01.46-.76z"/><path class="cls-15" d="M43.43 137.39l2.12-1.23c.25-.14.46 0 .46.23a1 1 0 01-.46.77l-2.12 1.22c-.25.14-.46 0-.46-.23a.94.94 0 01.46-.76z"/><path class="cls-17" d="M48.11 134.74l48.74-28.18c.26-.15.47 0 .47.23a1 1 0 01-.47.76l-48.74 28.18c-.25.15-.46 0-.46-.23a1 1 0 01.46-.76z"/><path class="cls-8" d="M48.34 153.18l13.09-7.56c.25-.14.45 0 .45.24a1 1 0 01-.45.76l-13.09 7.55c-.26.14-.47.05-.47-.23a1 1 0 01.47-.76zM43.43 156l2.12-1.21c.25-.15.46-.05.46.23a1 1 0 01-.46.76L43.43 157c-.25.15-.46.05-.46-.23a1 1 0 01.46-.77z"/><path class="cls-15" d="M43.43 156l2.12-1.21c.25-.15.46-.05.46.23a1 1 0 01-.46.76L43.43 157c-.25.15-.46.05-.46-.23a1 1 0 01.46-.77z"/><path class="cls-8" d="M43.43 158.55l2.12-1.22c.25-.15.46 0 .46.23a1 1 0 01-.46.76l-2.12 1.22c-.25.15-.46 0-.46-.23a1 1 0 01.46-.76z"/><path class="cls-15" d="M43.43 158.55l2.12-1.22c.25-.15.46 0 .46.23a1 1 0 01-.46.76l-2.12 1.22c-.25.15-.46 0-.46-.23a1 1 0 01.46-.76z"/><path class="cls-17" d="M48.31 155.64l48.35-27.9c.25-.15.45 0 .45.23a1 1 0 01-.45.76l-48.35 27.9c-.25.15-.45 0-.45-.23a1 1 0 01.45-.76z"/><path class="cls-8" d="M48.19 140.77l48.66-28c.25-.14.46 0 .46.23a1 1 0 01-.46.77l-48.66 28c-.26.15-.47 0-.47-.23a1 1 0 01.47-.77zM43.43 143.52l2.12-1.22c.25-.15.46 0 .46.23a1 1 0 01-.46.76l-2.12 1.22c-.25.15-.46.05-.46-.23a1 1 0 01.46-.76z"/><path class="cls-15" d="M43.43 143.52l2.12-1.22c.25-.15.46 0 .46.23a1 1 0 01-.46.76l-2.12 1.22c-.25.15-.46.05-.46-.23a1 1 0 01.46-.76z"/><path class="cls-8" d="M48.19 143.59l48.66-28c.25-.15.46 0 .46.23a1 1 0 01-.46.76l-48.66 28c-.26.15-.47 0-.47-.23a1 1 0 01.47-.76zM43.43 146.33l2.12-1.21c.25-.15.46-.05.46.23a1 1 0 01-.46.76l-2.12 1.22c-.25.14-.46 0-.46-.24a1 1 0 01.46-.76z"/><path class="cls-15" d="M43.43 146.33l2.12-1.21c.25-.15.46-.05.46.23a1 1 0 01-.46.76l-2.12 1.22c-.25.14-.46 0-.46-.24a1 1 0 01.46-.76z"/><path class="cls-18" d="M48.19 146.44l48.66-28c.25-.15.46 0 .46.23a1 1 0 01-.46.76l-48.66 28c-.26.14-.47 0-.47-.24a1 1 0 01.47-.75z"/><path class="cls-8" d="M43.43 149.18l2.12-1.18c.25-.14.46 0 .46.24a1 1 0 01-.46.76l-2.12 1.22c-.25.15-.46 0-.46-.23a.94.94 0 01.46-.81z"/><path class="cls-15" d="M43.43 149.18l2.12-1.18c.25-.14.46 0 .46.24a1 1 0 01-.46.76l-2.12 1.22c-.25.15-.46 0-.46-.23a.94.94 0 01.46-.81z"/></g></g><g id="freepik--Gears--inject-18"><g id="freepik--gears--inject-18-2" data-name="freepik--gears--inject-18"><path d="M136.86 25.44l33.81-19.53c.43-.25.78 0 .78.46v30.52a1.74 1.74 0 01-.78 1.36l-33.81 19.52c-.44.26-.79 0-.79-.45V26.8a1.71 1.71 0 01.79-1.36z" style="isolation:isolate" opacity=".7" fill="#fff"/><path class="cls-8" d="M153.15 30.72a1.82 1.82 0 00-.36-.51 1.63 1.63 0 00-.42-.31l-.24-.1a1.93 1.93 0 00-.72-.1h-.44l-.19.05-.21.07-.19.08v.35a.28.28 0 010 .13 7.76 7.76 0 01-3.51 6.06 3.48 3.48 0 01-.43.22V37a1.18 1.18 0 000 .2 1.21 1.21 0 00.05.18 1.34 1.34 0 00.07.18l.06.16a1.67 1.67 0 00.25.38 1.44 1.44 0 00.27.28l.13.09a.65.65 0 00.16.09.67.67 0 00.18.07 2.11 2.11 0 001.36 0l.4-.15a4.11 4.11 0 00.42-.21 7.76 7.76 0 003.52-6.09 3.31 3.31 0 00-.16-1.46z"/><path class="cls-8" d="M155.6 26.8l-.35.72a.49.49 0 000 .44 4.46 4.46 0 01.41.92.21.21 0 00.26.16h.08l1.85-.84a.19.19 0 01.15 0zm-2.3-3.89l-1.3-.77a.14.14 0 00-.09 0h-.09-.05l-.09.07-1.1 1.65-1.38-.79-1-.55h-.2a.2.2 0 00-.11 0l-1.43.82-.17.1-.45.25-.08.07a1.27 1.27 0 00-.13.19.27.27 0 000 .12l-.21 2.32a.5.5 0 010 .13 1 1 0 01-.17.27 12.14 12.14 0 00-1.16 1.22.34.34 0 01-.18.11.31.31 0 01-.23 0l-1.36-.52h-.27l-.05.06-.62 1.1-.67 1.19-.23.41a.28.28 0 000 .2.34.34 0 00.09.19l1.11.92.05.06a.44.44 0 01.07.22.29.29 0 010 .13 15.6 15.6 0 00-.48 1.61.57.57 0 01-.12.26.54.54 0 01-.15.15l-2 1.36-.07.07-.06.08a.5.5 0 00-.08.26v2.4a.15.15 0 00.07.15l2.41 1.4-.88 1.77a.27.27 0 00.11.36l3.27 1.9-.22-.13a.27.27 0 01-.11-.36l1.18-2.36a.36.36 0 000-.1.54.54 0 00-.06-.35 4.46 4.46 0 01-.41-.92.21.21 0 00-.27-.15l-.93.42-.92.41a.15.15 0 01-.16 0 .15.15 0 01-.07-.15v-2.43a.46.46 0 01.08-.25.44.44 0 01.12-.15l1.9-1.34a.62.62 0 00.14-.14.91.91 0 00.13-.26 11.05 11.05 0 01.48-1.61.33.33 0 000-.14.34.34 0 00-.13-.27l-1.07-.93a.32.32 0 01-.1-.18.42.42 0 010-.22l.44-.75.55-.94.55-1a.31.31 0 01.23-.14h.14l1.33.47a.49.49 0 00.24 0 .34.34 0 00.17-.11 13.49 13.49 0 011.16-1.23 1.2 1.2 0 00.18-.26.51.51 0 000-.17l.21-2.31a.5.5 0 010-.13.51.51 0 01.22-.26l.39-.23.83-.48.85-.49a.15.15 0 01.16 0 .16.16 0 01.08.14l.11 1.06.1 1a.21.21 0 00.23.2 4.2 4.2 0 011.06-.11.52.52 0 00.29-.09.57.57 0 00.11-.11l1.66-2.3.05-.06a.3.3 0 01.24-.06h.02zm-4.61 21.33a.05.05 0 010-.05v-.07l-.2-2a.21.21 0 00-.22-.21h-.06a4.19 4.19 0 01-1 .1.51.51 0 00-.4.2l-.44.66 2.37 1.37z"/><path class="cls-20" d="M155 23.88a.35.35 0 00-.24.06l-.05.06-1.53 2.31-.12.11a.53.53 0 01-.29.1 3.74 3.74 0 00-1 .1.23.23 0 01-.27-.15l-.1-1-.11-1.06a.15.15 0 00-.09-.14.14.14 0 00-.15 0l-.85.49-.84.48-.39.23a.49.49 0 00-.21.26.65.65 0 000 .13l-.21 2.31a.47.47 0 010 .17.78.78 0 01-.17.26 13.42 13.42 0 00-1.16 1.23.34.34 0 01-.17.11.33.33 0 01-.24 0l-1.34-.47a.28.28 0 00-.13 0 .3.3 0 00-.23.15l-.55.95-.55.94-.44.75a.42.42 0 000 .22.32.32 0 00.1.18l1.07.93a.37.37 0 01.13.27V34a11.05 11.05 0 00-.48 1.61.91.91 0 01-.13.26L144 36l-1.9 1.34a.37.37 0 00-.13.15.47.47 0 00-.08.26v2.4a.15.15 0 00.07.15.15.15 0 00.16 0l.92-.41.93-.42a.23.23 0 01.3.1 4 4 0 00.42.92.7.7 0 01.06.35v.1l-1.24 2.49a.27.27 0 00.11.36l.22.13-3.27-1.9a.28.28 0 01-.11-.36l.88-1.77-2.41-1.4a.15.15 0 01-.07-.15V36a.53.53 0 01.08-.25l.06-.09v-.05l1.9-1.34a.67.67 0 00.14-.15.75.75 0 00.13-.25 11.05 11.05 0 01.48-1.61v-.14a.57.57 0 00-.07-.22l-.06-.06-1.1-.92a.26.26 0 01-.09-.18.3.3 0 010-.21l.29-.43.67-1.15.18-.32.46-.8a.3.3 0 01.34-.12l1.22.44h.11a.33.33 0 00.24 0A.32.32 0 00144 28a13.38 13.38 0 011.16-1.22.8.8 0 00.18-.27v-.13l.2-2.32a.19.19 0 010-.12.62.62 0 01.12-.19.31.31 0 01.11-.09l.45-.25.17-.1 1.43-.82a.15.15 0 01.11 0l1 .55 1.39.8 1.1-1.65.09-.07h.23l1.36.85z"/><path class="cls-21" d="M148.68 44.18a.08.08 0 010-.07l-.2-2a.22.22 0 00-.22-.21h-.06a4.2 4.2 0 01-1 .11.53.53 0 00-.41.19l-.44.67 2.38 1.37a.12.12 0 01-.05-.06zM155.6 26.8l-.35.72a.49.49 0 000 .44 4.46 4.46 0 01.41.92.21.21 0 00.26.16h.08l1.85-.84a.19.19 0 01.15 0z"/><path class="cls-4" d="M148.7 25.71a.28.28 0 000 .13l-.21 2.31a.53.53 0 010 .17l-3-1.77v-.12l.19-2.32a.28.28 0 010-.12zM144.69 33.84l-3.05-1.77a.36.36 0 00-.06-.2l-.05-.06-1.1-.93a.29.29 0 01-.1-.18l3 1.76a.32.32 0 00.1.18l1.07.93a.32.32 0 01.19.27zM143.42 43.46a.27.27 0 00.11.36l.22.13-3.27-1.9a.27.27 0 01-.11-.36l.87-1.78.65.37a.14.14 0 00.17 0l.92-.41 1.71 1v.1z"/><path class="cls-21" d="M153.47 32.21A7.77 7.77 0 01150 38.3a4.11 4.11 0 01-.42.21l-.4.15a2.11 2.11 0 01-1.36 0 .67.67 0 01-.18-.07l-.16-.08-.12-.1a1.79 1.79 0 01-.28-.27 2.55 2.55 0 01-.24-.39.94.94 0 01-.06-.15 1.46 1.46 0 01-.07-.19 1.21 1.21 0 010-.18 1.18 1.18 0 010-.2.09.09 0 010-.07.57.57 0 010-.18c.15-.07.29-.15.43-.23a7.76 7.76 0 003.51-6.06V30l.19-.07a.9.9 0 01.21-.08l.19-.05h.44a2 2 0 01.72.09l.24.1a1.63 1.63 0 01.42.31 1.86 1.86 0 01.36.52 3.23 3.23 0 01.05 1.39z"/><path class="cls-4" d="M155 23.88a.35.35 0 00-.24.06l-.05.06-1.53 2.31-.12.11-.86-.5-.8-.46-.11-1.06a.15.15 0 00-.09-.14l-.63-.38 1.1-1.65a.26.26 0 01.13-.1h.05a.21.21 0 01.19 0l1.31.78zM144.07 35.85l-.14.14-1.93 1.34a.44.44 0 00-.12.15l-3.06-1.76.06-.09.08-.05 1.9-1.34a.67.67 0 00.14-.15z"/><path class="cls-8" d="M158.08 30.75v-2.41a.14.14 0 00-.12-.17.14.14 0 00-.11 0L156 29a.23.23 0 01-.3-.11 4 4 0 00-.42-.92.49.49 0 010-.44l1.23-2.53a.28.28 0 00-.11-.36l-1.34-.78a.29.29 0 00-.37.09l-1.54 2.31a.52.52 0 01-.4.2 4.19 4.19 0 00-1 .1.21.21 0 01-.27-.15.07.07 0 010-.05l-.2-2a.16.16 0 00-.16-.15.12.12 0 00-.09 0l-2.13 1.2a.61.61 0 00-.25.39l-.21 2.31a.73.73 0 01-.21.44 13.38 13.38 0 00-1.16 1.22.39.39 0 01-.41.11l-1.33-.46a.33.33 0 00-.38.13l-1.52 2.65a.32.32 0 00.06.4l1.07.93a.4.4 0 01.11.4 11.57 11.57 0 00-.48 1.62.8.8 0 01-.27.4L142 37.33a.52.52 0 00-.21.41v2.4a.16.16 0 00.12.18.14.14 0 00.11 0l1.87-.85a.22.22 0 01.3.1 4.46 4.46 0 00.41.92.49.49 0 010 .44l-1.23 2.49a.28.28 0 00.11.37l1.34.77a.28.28 0 00.36-.08l1.54-2.32a.54.54 0 01.41-.2 4.11 4.11 0 001-.1.23.23 0 01.28.15l.2 2a.16.16 0 00.14.17.2.2 0 00.11 0L151 43a.56.56 0 00.25-.4l.21-2.31a.7.7 0 01.21-.43 11.25 11.25 0 001.16-1.23.39.39 0 01.41-.11l1.33.47a.35.35 0 00.39-.12l1.53-2.65a.32.32 0 00-.07-.39l-1.07-.93a.4.4 0 01-.1-.41 13.41 13.41 0 00.47-1.61.82.82 0 01.27-.41l1.89-1.31a.58.58 0 00.2-.41zM150 38.3c-1.94 1.1-3.52.21-3.52-2a7.8 7.8 0 013.52-6.09c1.94-1.1 3.51-.21 3.51 2A7.76 7.76 0 01150 38.3z"/><path class="cls-8" d="M142.83 28.09l-.71-.42a.28.28 0 00-.22.14l-.47.79-.18.32-.62 1.15-.23.41a.28.28 0 000 .2l3 1.78a.42.42 0 010-.22l.44-.75.55-.94.55-1a.31.31 0 01.23-.14z"/><path class="cls-22" d="M142.83 28.09l-.71-.42a.28.28 0 00-.22.14l-.47.79-.18.32-.62 1.15-.23.41a.28.28 0 000 .2l3 1.78a.42.42 0 010-.22l.44-.75.55-.94.55-1a.31.31 0 01.23-.14z"/><path class="cls-4" d="M143.85 28.15a.33.33 0 01-.24 0h-.11l-1.22-.43a.2.2 0 00-.11 0l.67.39.23.14 2.11 1.22h.14l1.33.47a.33.33 0 00.24 0z"/><path class="cls-8" d="M151.14 24.23a.14.14 0 00-.15 0l-.85.49-.84.49-.39.22a.48.48 0 00-.21.27l-3.06-1.77a.8.8 0 01.13-.19l.08-.07.45-.25.17-.09 1.43-.83a.19.19 0 01.1 0h.05l1 .55 1.39.8z"/><path class="cls-22" d="M151.14 24.23a.14.14 0 00-.15 0l-.85.49-.84.49-.39.22a.48.48 0 00-.21.27l-3.06-1.77a.8.8 0 01.13-.19l.08-.07.45-.25.17-.09 1.43-.83a.19.19 0 01.1 0h.05l1 .55 1.39.8z"/><path class="cls-8" d="M166.89 32.28a1.1 1.1 0 00-.89-.71h-.14a1.72 1.72 0 00-.8.17v.31a5 5 0 01-2.29 4 1.17 1.17 0 01-.27.15 2.07 2.07 0 00.16.59 1.14 1.14 0 001.1.72h.44a3.13 3.13 0 001.47-1c1.15-1.29 1.7-3.13 1.22-4.23z"/><path class="cls-21" d="M165.65 36.45a3.13 3.13 0 01-1.47.95h-.42a1.12 1.12 0 01-1.1-.66 1.79 1.79 0 01-.16-.59 1.82 1.82 0 00.27-.15 5 5 0 002.28-4v-.31a1.74 1.74 0 01.81-.17h.14a1.1 1.1 0 01.9.71c.47 1.15-.08 2.99-1.25 4.22z"/><path class="cls-8" d="M166 39.67l-.55-.88c0-.06-.15-.06-.24 0l-.34.22 1.13.68zM168.68 32.28a3.38 3.38 0 010 .45.16.16 0 00.16.16l1 .06a.11.11 0 01.08 0zM162.27 39.44a2.48 2.48 0 01-.49-.3.23.23 0 00-.26 0l-1.16 1.06a.27.27 0 01-.12.06l1.14.66c.36.21.66.39.7.4a.09.09 0 01-.05-.11l.36-1.65a.15.15 0 00-.12-.12zM160.08 40.22h.06l-.51-1.15a.15.15 0 010-.13.35.35 0 01.06-.14l1.1-1.31a.41.41 0 00.1-.21.11.11 0 000-.08 7.53 7.53 0 010-1 .15.15 0 00-.15-.15l-1-.06a.12.12 0 01-.13-.1.06.06 0 010-.06l.55-1.81a.39.39 0 01.25-.2l1.06-.26a.45.45 0 00.28-.2 9.72 9.72 0 01.55-1 .56.56 0 000-.08v-.1a.17.17 0 000-.1L162 31a.29.29 0 010-.13.16.16 0 010-.07l.05-.08 1.25-1.31a.15.15 0 01.16-.06l.58.88c0 .07.15.07.24 0a5 5 0 01.71-.4.56.56 0 00.24-.24l.62-1.65a.42.42 0 01.15-.11h.07l1.14-.11h.11a.08.08 0 010 .11l-.35 1.65a.18.18 0 00.11.2 1.92 1.92 0 01.5.29.2.2 0 00.25 0l1.16-1.06a.17.17 0 01.18-.05l-2.19-1.31-.41-.24-.45-.26-.18-.11-.41-.24h-.07l-.32-.18a.11.11 0 00-.11 0l-1.14.11h-.15a.26.26 0 00-.05.09l-.62 1.65v.06l-.06.05h-.13l-.35.19-1.2-.69a.09.09 0 00-.1 0h-.06l-1 1-.36.39-.06.07v.08a.17.17 0 000 .1l.35 1.18a.17.17 0 010 .1.22.22 0 010 .11c-.2.32-.38.66-.55 1a.45.45 0 01-.27.2l-1.07.26a.33.33 0 00-.24.2l-.55 1.81a.1.1 0 000 .13l.82.48.38.22a4 4 0 000 .49v.07a.16.16 0 010 .09s0 .08-.06.11l-1.1 1.33a.21.21 0 00-.07.13v.13l.52 1.15.33.19.16.09 1.39.8.15.09.08.05"/><path class="cls-20" d="M160.08 40.22h.06l-.51-1.15a.15.15 0 010-.13.35.35 0 01.06-.14l1.1-1.31a.41.41 0 00.1-.21.11.11 0 000-.08 7.53 7.53 0 010-1 .15.15 0 00-.15-.15l-1-.06a.12.12 0 01-.13-.1.06.06 0 010-.06l.55-1.81a.39.39 0 01.25-.2l1.06-.26a.45.45 0 00.28-.2 9.72 9.72 0 01.55-1 .56.56 0 000-.08v-.1a.17.17 0 000-.1L162 31a.29.29 0 010-.13.16.16 0 010-.07l.05-.08 1.25-1.31a.15.15 0 01.16-.06l.58.88c0 .07.15.07.24 0a5 5 0 01.71-.4.56.56 0 00.24-.24l.62-1.65a.42.42 0 01.15-.11h.07l1.14-.11h.11a.08.08 0 010 .11l-.35 1.65a.18.18 0 00.11.2 1.92 1.92 0 01.5.29.2.2 0 00.25 0l1.16-1.06a.17.17 0 01.18-.05l-2.19-1.31-.41-.24-.45-.26-.18-.11-.41-.24h-.07l-.32-.18a.11.11 0 00-.11 0l-1.14.11h-.15a.26.26 0 00-.05.09l-.62 1.65v.06l-.06.05h-.13l-.35.19-1.2-.69a.09.09 0 00-.1 0h-.06l-1 1-.36.39-.06.07v.08a.17.17 0 000 .1l.35 1.18a.17.17 0 010 .1.22.22 0 010 .11c-.2.32-.38.66-.55 1a.45.45 0 01-.27.2l-1.07.26a.33.33 0 00-.24.2l-.55 1.81a.1.1 0 000 .13l.82.48.38.22a4 4 0 000 .49v.07a.16.16 0 010 .09s0 .08-.06.11l-1.1 1.33a.21.21 0 00-.07.13v.13l.52 1.15.33.19.16.09 1.39.8.15.09.08.05"/><path class="cls-21" d="M166 39.67l-.55-.88c0-.06-.15-.06-.24 0l-.34.22 1.13.68zM168.68 32.28a3.38 3.38 0 010 .45.16.16 0 00.16.16l1 .06a.11.11 0 01.08 0zM162.27 39.44a2.48 2.48 0 01-.49-.3.23.23 0 00-.26 0l-1.16 1.06a.27.27 0 01-.12.06l1.14.66c.36.21.66.39.7.4a.09.09 0 01-.05-.11l.36-1.65a.15.15 0 00-.12-.12z"/><path class="cls-23" d="M160.87 37.39l-.08.12-1.1 1.32a.54.54 0 00-.07.13l-2.29-1.33a.38.38 0 01.06-.13l1.11-1.32s0-.08.06-.11z"/><path d="M160.9 37.23a.47.47 0 010 .17l-2.3-1.32a.29.29 0 000-.09.08.08 0 000-.07v-.49l1.11.62a.11.11 0 00.09 0l1 .06a.15.15 0 01.16.14 7.23 7.23 0 00-.06.98z" style="isolation:isolate" opacity=".05"/><path class="cls-22" d="M161.62 33.57a.52.52 0 01-.15.07l-1.06.26a.32.32 0 00-.2.12l-2.3-1.32a.23.23 0 01.12-.1h.08l1.07-.25a.61.61 0 00.14-.07z"/><path class="cls-25" d="M159.63 35.91a.13.13 0 000 .12l-1.1-.62-1.18-.68a.11.11 0 010-.13l.55-1.81a.16.16 0 010-.07l2.3 1.32-.05.08z"/><path class="cls-22" d="M159.75 29.52l2.3 1.32a.15.15 0 000 .13l.35 1.18a.38.38 0 010 .15l-2.3-1.3a.17.17 0 000-.1l-.35-1.18a.24.24 0 010-.12M166.05 27.87a.16.16 0 00-.05.13l-.62 1.66a.27.27 0 01-.12.14L163 28.42a.57.57 0 00.11-.11l.61-1.65a.15.15 0 01.06-.09z"/><path class="cls-8" d="M159.63 35.91a.13.13 0 000 .12l-1.1-.62-1.18-.68a.11.11 0 010-.13l.55-1.81a.16.16 0 010-.07l2.3 1.32-.05.08z"/><path class="cls-22" d="M159.63 35.91a.13.13 0 000 .12l-1.1-.62-1.18-.68a.11.11 0 010-.13l.55-1.81a.16.16 0 010-.07l2.3 1.32-.05.08z"/><path class="cls-8" d="M163.57 29.32a.16.16 0 00-.18.06l-1.25 1.32a.42.42 0 00-.09.14l-2.3-1.32v-.08l.06-.07 1.25-1.32.07-.05a.07.07 0 01.09 0l1.2.69z"/><path class="cls-22" d="M163.57 29.32a.16.16 0 00-.18.06l-1.25 1.32a.42.42 0 00-.09.14l-2.3-1.32v-.08l.06-.07 1.25-1.32.07-.05a.07.07 0 01.09 0l1.2.69z"/><path class="cls-8" d="M167.48 27.67a.21.21 0 00-.11 0l-1.13.11a.34.34 0 00-.19.09l-2.29-1.34h.24l1.14-.11h.11z"/><path class="cls-22" d="M167.48 27.67a.21.21 0 00-.11 0l-1.13.11a.34.34 0 00-.19.09l-2.29-1.34h.24l1.14-.11h.11z"/><path class="cls-25" d="M158.52 35.37h.06z"/><path class="cls-8" d="M169.87 33h-1.07a.17.17 0 01-.17-.16 3.53 3.53 0 000-.46 4 4 0 000-.49.43.43 0 01.11-.28l1.1-1.32a.32.32 0 00.06-.27l-.51-1.14a.26.26 0 00-.17.05l-1.16 1.06a.2.2 0 01-.25 0 1.92 1.92 0 00-.5-.29.17.17 0 01-.11-.2l.35-1.65a.09.09 0 000-.11.11.11 0 00-.11 0l-1.13.11a.32.32 0 00-.31.15l-.62 1.66a.53.53 0 01-.24.23 6.23 6.23 0 00-.71.41c-.09.07-.2.07-.24 0l-.6-.89c0-.06-.13-.05-.2 0l-1.25 1.31a.31.31 0 00-.1.28l.35 1.18a.4.4 0 01-.07.28 10.66 10.66 0 00-.55 1 .45.45 0 01-.27.2l-1.07.26a.4.4 0 00-.24.2l-.55 1.81a.11.11 0 00.07.15h.06l1 .06a.16.16 0 01.17.14 4.92 4.92 0 000 .94.48.48 0 01-.11.3l-1.1 1.31a.3.3 0 00-.06.27l.5 1.14h.05a.27.27 0 00.12-.06l1.16-1.06a.23.23 0 01.26-.05 2.48 2.48 0 00.49.3.16.16 0 01.12.19l-.37 1.63a.11.11 0 00.05.11.21.21 0 00.11 0l1.14-.11a.35.35 0 00.25-.18l.62-1.65a.47.47 0 01.24-.24l.37-.19.34-.22c.11-.08.2-.07.24 0l.62 1a.17.17 0 00.18-.06l1.29-1.32a.34.34 0 00.1-.27l-.35-1.17a.48.48 0 01.06-.29 10.29 10.29 0 00.58-1 .43.43 0 01.27-.2l1.07-.26a.37.37 0 00.24-.2l.55-1.81a.11.11 0 000-.14zm-4.22 3.47a3.13 3.13 0 01-1.47.95h-.42a1.12 1.12 0 01-1.1-.66 1.79 1.79 0 01-.16-.59 1.82 1.82 0 010-.33 5.13 5.13 0 011.41-3.24 3.58 3.58 0 01.86-.69 2 2 0 01.29-.15 1.72 1.72 0 01.8-.17h.14a1.1 1.1 0 01.89.71c.48 1.08-.07 2.92-1.24 4.15z"/></g></g><g id="freepik--text-box--inject-18"><g id="freepik--Box--inject-18"><path id="freepik--shadow--inject-18-4" data-name="freepik--shadow--inject-18" class="cls-22" d="M19.47 153.06L.75 163.85a1.65 1.65 0 00-.75 1.29v22.58c0 .47.34.67.75.43l18.72-10.79a1.67 1.67 0 00.75-1.29v-22.58c-.01-.49-.34-.67-.75-.43z"/><g id="freepik--box--inject-18-2" data-name="freepik--box--inject-18"><path class="cls-8" d="M22.34 154L3.61 164.77a1.67 1.67 0 00-.75 1.3v22.58a1.67 1.67 0 00.76 1.28l1.42.81a1.59 1.59 0 001.5 0L25.27 180a1.67 1.67 0 00.75-1.29v-22.62a1.65 1.65 0 00-.75-1.29l-1.43-.8a1.65 1.65 0 00-1.5 0z"/><path class="cls-23" d="M6.54 190.69a1.65 1.65 0 01-1.5 0l-1.42-.8a1.71 1.71 0 01-.76-1.29V166a1.62 1.62 0 01.24-.77l2.9 1.71a1.56 1.56 0 00-.22.73v22.58c.01.45.32.75.76.44z"/><path class="cls-26" d="M26 155.91c-.06-.37-.36-.51-.74-.3L6.54 166.4a1.61 1.61 0 00-.54.6l-2.92-1.68a1.38 1.38 0 01.52-.55L22.34 154a1.63 1.63 0 011.49 0l1.43.81a1.7 1.7 0 01.74 1.1z"/><path class="cls-8" d="M25.26 155.64L6.54 166.42a1.67 1.67 0 00-.75 1.29v22.58c0 .48.33.67.75.43l18.72-10.78a1.67 1.67 0 00.75-1.29v-22.58c-.01-.5-.34-.69-.75-.43z"/></g><g id="freepik----inject-18"><path class="cls-12" d="M7 178.08a.93.93 0 01.09-.46 2.22 2.22 0 01.23-.43l4.44-7.19a.22.22 0 01.07-.09h.05a.1.1 0 01.16 0 .27.27 0 01.07.21v2.75a1.17 1.17 0 01-.13.55 3.57 3.57 0 01-.22.38l-1.94 3 1.94.81a.7.7 0 01.23.11c.08.05.13.19.13.42v2.75a.73.73 0 01-.07.29.41.41 0 01-.17.2h-.12l-4.4-2a.78.78 0 01-.24-.16.6.6 0 01-.09-.37zM16.66 166a3.29 3.29 0 01.16-.44.84.84 0 01.32-.35l1.49-.85a.14.14 0 01.17 0 .29.29 0 01.07.22v.16l-3.74 15.91a1.57 1.57 0 01-.15.43.85.85 0 01-.33.37l-1.45.83a.14.14 0 01-.17 0A.29.29 0 0113 182a.49.49 0 010-.17zM24.78 168.56a1.25 1.25 0 01-.09.46 2.26 2.26 0 01-.24.43l-4.4 7.16-.08.09a.12.12 0 01-.16 0 .26.26 0 01-.07-.21v-2.75a1.14 1.14 0 01.13-.55 4.26 4.26 0 01.23-.37l1.93-3-2-.78a.94.94 0 01-.22-.12c-.08-.06-.13-.19-.13-.43v-2.75a.59.59 0 01.07-.29.45.45 0 01.16-.2H20l4.41 2a.63.63 0 01.24.16.54.54 0 01.08.37z"/></g></g></g><g id="freepik--window-2--inject-18"><g id="freepik--window--inject-18-3" data-name="freepik--window--inject-18"><g id="freepik--window--inject-18-4" data-name="freepik--window--inject-18"><path class="cls-27" d="M51.41 211.84a2.35 2.35 0 01-1.1.33 2.73 2.73 0 01-1.59-.28 2.93 2.93 0 01-1.3-2.35v-82.27l2.6 1.5V211c0 .63.32 1 .77 1a1.36 1.36 0 00.62-.16z"/><path class="cls-1" d="M187 132a3.08 3.08 0 01-1.39 2.4l-134.2 77.44c-.76.44-1.38.08-1.38-.8v-90.1l3.82-2.2c.76-.44 1.88-6.71 2.65-7.16L89.91 92.3c.77-.44 2.41 4.25 3.17 3.81L187 41.86z"/><path class="cls-2" d="M186.39 42.81V132a2.51 2.51 0 01-1.1 1.92L51.13 211.36a.7.7 0 01-.34.12c-.18 0-.22-.28-.22-.44v-89.77l3.55-2c.55-.3.85-1.31 1.57-3.89A18.61 18.61 0 0156.8 112L90 92.85a10.81 10.81 0 011 1.6c.79 1.41 1.27 2.2 2 2.2a.75.75 0 00.38-.1l93.07-53.74m.55-1L93.08 96.08a.2.2 0 01-.11 0c-.77 0-2.21-3.85-3-3.85a.2.2 0 00-.11 0L56.49 111.5c-.76.44-1.88 6.72-2.65 7.16l-3.84 2.2V211c0 .63.32 1 .77 1a1.25 1.25 0 00.62-.19l134.15-77.47A3.1 3.1 0 00187 132V41.86z"/><path class="cls-8" d="M48.72 125.2a3 3 0 01-1.3-2.35v-7.61a3.09 3.09 0 011.38-2.41L183 35.36a2.61 2.61 0 014 2.31v7.61a3 3 0 01-1.39 2.4l-134.2 77.47a2.94 2.94 0 01-2.69.05z"/><path class="cls-28" d="M186.93 37.44c-.09-.72-.68-1-1.37-.55L51.41 114.33a3.05 3.05 0 00-1 1l-2.6-1.51a2.93 2.93 0 011-1L183 35.36a2.58 2.58 0 014 2.08z"/><path class="cls-4" d="M50.43 115.38a2.74 2.74 0 00-.41 1.36v12l-2.6-1.5v-12.2a2 2 0 010-.34 3.05 3.05 0 01.35-.86z"/><path class="cls-8" d="M187 37.66v4.2L93.08 96.08l-39.24 22.66-3.84 2.2v-4.19a3.09 3.09 0 011.39-2.42l134.17-77.47c.78-.44 1.44-.08 1.44.8z"/><path class="cls-12" d="M183.47 40c.55-.32 1-.06 1 .55a2.22 2.22 0 01-1 1.7c-.55.32-1 .06-1-.55a2.22 2.22 0 011-1.7zM179.92 42.06c.55-.32 1-.06 1 .55a2.2 2.2 0 01-1 1.71c-.55.31-1 .06-1-.55a2.21 2.21 0 011-1.71zM176.36 44.11c.55-.32 1-.06 1 .55a2.21 2.21 0 01-1 1.71c-.55.31-1 .05-1-.55a2.19 2.19 0 011-1.71z"/><path class="cls-27" d="M52.88 119.29c.47-.28.62-.69.85-1.48l.52-1.79a2.11 2.11 0 01.85-1.47l20.55-11.87a.75.75 0 011.2.29l.62 1.15c.27.47.4.74.87.47l16-9.21L187 41.86v7.84L50 128.77v-7.83l2.86-1.65"/><path class="cls-27" d="M50.02 120.94v7.83l-2.6-1.5v-7.84l2.6 1.51z"/><path class="cls-4" d="M50.02 120.94v7.83l-2.6-1.5v-7.84l2.6 1.51z"/><path class="cls-29" d="M54.88 121.62l-1.6.92.61-1.17a.26.26 0 000-.29c0-.06-.12 0-.18.09l-.87 1.65v.18l.87.67a.08.08 0 00.09 0 .22.22 0 00.09-.12.24.24 0 000-.28l-.61-.47 1.6-.83a.32.32 0 00.13-.27c-.01-.07-.01-.13-.13-.08zM56.22 120.84l1.6-.92-.61-.47a.28.28 0 010-.28c0-.11.14-.16.19-.12l.87.67v.28l-.87 1.65a.22.22 0 01-.09.1.07.07 0 01-.1 0 .34.34 0 010-.28l.61-1.18-1.6.92c-.07 0-.12 0-.12-.12a.35.35 0 01.12-.25zM61.48 116.23c0-.1-.09-.09-.13 0l-.22.55c-.38 0-.83.32-1.14 1A2.19 2.19 0 0060 120a.56.56 0 00.72 0 1.92 1.92 0 00.72-.87.27.27 0 000-.28s-.13 0-.18.11c-.3.63-.78.9-1.1.62s-.3-1 0-1.65c.21-.45.51-.71.78-.73l-.17.4c0 .11 0 .21.07.16l.65-.42a.21.21 0 00.07-.18zM75.9 104.78l.49-1a.32.32 0 000-.33c-.06 0-.15 0-.21.12l-.49 1-.49-.47c-.06 0-.15 0-.2.12a.27.27 0 000 .32l.48.47-.48 1a.27.27 0 000 .32.09.09 0 00.1 0 .41.41 0 00.1-.13l.49-1 .49.47a.07.07 0 00.1 0 .24.24 0 00.11-.13.29.29 0 000-.31z"/><path class="cls-1" d="M64.24 117.47v-1.86a2.07 2.07 0 01.92-1.6l115.1-66.5c.51-.29.92-.06.92.55v1.84a2 2 0 01-.92 1.6L65.18 118c-.55.3-.94.06-.94-.53z"/><path class="cls-27" d="M179 51.65h-.09a.28.28 0 01-.14-.29l.1-.75-.36-.25a.28.28 0 01-.1-.21.42.42 0 01.15-.32l.55-.42.25-.8a.32.32 0 01.27-.25.2.2 0 01.21.13l.2.43.46-.18a.23.23 0 01.24 0 .33.33 0 010 .38l-.39.73.1.66a.47.47 0 01-.12.34.25.25 0 01-.21.08l-.45-.06-.48.62a.3.3 0 01-.19.16zm-.27-1.54l.36.25a.25.25 0 01.09.26l-.06.5.32-.41a.28.28 0 01.25-.12l.44.06-.1-.67a.59.59 0 010-.23l.34-.65-.35.14a.23.23 0 01-.28-.11l-.16-.34-.21.7a.49.49 0 01-.14.21l-.55.41z"/><g class="cls-11"><path d="M182.25 47.28a.32.32 0 01-.16-.59l2.59-1.5a.32.32 0 01.44.12.32.32 0 01-.12.43l-2.59 1.5a.32.32 0 01-.16.04zM182.25 48.8a.32.32 0 01-.16-.6l2.59-1.49a.32.32 0 01.44.11.34.34 0 01-.12.44l-2.59 1.49a.33.33 0 01-.16.05zM182.25 50.28a.32.32 0 01-.32-.32.33.33 0 01.16-.28l2.59-1.49a.32.32 0 01.44.11.34.34 0 01-.12.44l-2.59 1.5a.47.47 0 01-.16.04z"/></g></g><path class="cls-8" d="M74 120.5l.31-2.75a.48.48 0 01.07-.2.28.28 0 01.09-.1l.67-.36h.07a.12.12 0 010 .1v.06l-.67 5.18a.67.67 0 01-.07.24.52.52 0 01-.17.19l-.42.23a.12.12 0 01-.16 0 .25.25 0 01-.08-.14l-.37-1.51-.38 1.94a1.13 1.13 0 01-.08.24.44.44 0 01-.17.19l-.41.24a.15.15 0 01-.16 0 .21.21 0 01-.08-.16l-.65-4.45v-.06a.61.61 0 010-.13.39.39 0 01.08-.1l.65-.37a.08.08 0 01.09 0l.06.12.32 2.4.29-1.55v-.16a.23.23 0 01.13-.16l.46-.27h.12v.11zM78.16 119.41a.07.07 0 01.09 0 .17.17 0 010 .12v.81a.33.33 0 010 .17.27.27 0 01-.09.12L75.81 122a.09.09 0 01-.1 0 .17.17 0 010-.12v-4.93a.85.85 0 010-.17.35.35 0 01.1-.11l2.31-1.34a.08.08 0 01.09 0 .15.15 0 010 .12v.81a.33.33 0 010 .17.27.27 0 01-.09.12l-1.53.88v.82l1.42-.81a.06.06 0 01.09 0 .13.13 0 010 .12v.81a.32.32 0 010 .16.27.27 0 01-.09.12l-1.42.82v.85zM79 120.15a.07.07 0 01-.09 0 .17.17 0 010-.12v-4.93a.33.33 0 010-.17.31.31 0 01.09-.11l1.6-.92a1.07 1.07 0 01.55-.19.57.57 0 01.37.16.93.93 0 01.19.4 2.51 2.51 0 01.06.55 2.58 2.58 0 01-.11.73l-.09.24-.08.16a.51.51 0 01.27.32 1.77 1.77 0 01.08.61 3.47 3.47 0 01-.06.64 3 3 0 01-.2.65 2.57 2.57 0 01-.35.57 2 2 0 01-.55.46zm1.86-4.8a.39.39 0 00-.08-.27h-.22l-.77.45v.87l.77-.45a.54.54 0 00.22-.25.85.85 0 00.08-.35zm-1.07 3.16l.82-.47a.61.61 0 00.23-.27.86.86 0 00.09-.39.37.37 0 00-.09-.28.2.2 0 00-.23 0l-.82.48z"/><path class="cls-6" d="M83.81 112a1.1 1.1 0 01.55-.16.72.72 0 01.64.44.85.85 0 01.09.38.28.28 0 010 .13.16.16 0 01-.08.1l-.2.12h-.09l-.06-.1a1.09 1.09 0 00-.08-.15.54.54 0 00-.16-.14.47.47 0 00-.24 0 .57.57 0 00-.31.1 1.89 1.89 0 00-.27.2 1.63 1.63 0 00-.23.29 1 1 0 00-.15.34 1 1 0 00-.07.38.77.77 0 00.06.3.3.3 0 00.19.14.86.86 0 00.32 0l.46-.06a1.93 1.93 0 01.48 0 .6.6 0 01.32.12.52.52 0 01.18.3 1.48 1.48 0 01.06.47 2.72 2.72 0 01-.09.69 3.61 3.61 0 01-.27.64 2.86 2.86 0 01-.42.55 2.27 2.27 0 01-.55.43 1.37 1.37 0 01-.55.18.73.73 0 01-.7-.4.91.91 0 01-.1-.43.32.32 0 010-.14.18.18 0 01.08-.09l.2-.12a.11.11 0 01.08 0 .24.24 0 01.07.1l.09.18a.46.46 0 00.17.14.44.44 0 00.25 0 .9.9 0 00.36-.12 1.64 1.64 0 00.33-.26 2.16 2.16 0 00.27-.33 1.93 1.93 0 00.19-.38 1.34 1.34 0 00.07-.4.46.46 0 00-.08-.3.4.4 0 00-.23-.12 1.09 1.09 0 00-.36 0 3.31 3.31 0 00-.49.08 1 1 0 01-.42 0 .64.64 0 01-.29-.16.73.73 0 01-.15-.32 1.73 1.73 0 01-.05-.45 2.33 2.33 0 01.08-.59 2.17 2.17 0 01.22-.6 2.31 2.31 0 01.37-.55 1.88 1.88 0 01.51-.43zM85.94 116.15a.07.07 0 01-.09 0 .14.14 0 010-.12v-4.93a.33.33 0 010-.17.27.27 0 01.09-.12l.2-.11a.07.07 0 01.1 0 .17.17 0 010 .12v4.93a.33.33 0 010 .17.18.18 0 01-.1.11zM89.28 108.88h.09a.14.14 0 010 .12v.28a.29.29 0 010 .16.27.27 0 01-.09.12l-.93.55v4.45a.33.33 0 010 .17.24.24 0 01-.09.11L88 115a.09.09 0 01-.1 0 .17.17 0 010-.12v-4.45l-.93.55a.07.07 0 01-.09 0 .15.15 0 010-.13v-.27a.35.35 0 010-.17.31.31 0 01.09-.11zM92.09 111.92a.06.06 0 01.09 0 .16.16 0 010 .12v.27a.33.33 0 010 .17.27.27 0 01-.09.12l-2 1.15a.07.07 0 01-.1 0 .16.16 0 010-.12v-4.93a.47.47 0 010-.16.23.23 0 01.1-.12l2-1.13a.09.09 0 01.1 0 .17.17 0 010 .12v.28a.55.55 0 010 .17.52.52 0 01-.1.11l-1.65.94v1.61l1.52-.87a.06.06 0 01.09 0 .16.16 0 010 .12v.23a.33.33 0 010 .17.31.31 0 01-.09.11l-1.52.88v1.65z"/><path class="cls-10" d="M123.22 91L115 95.81a1.41 1.41 0 00-.65 1.1c0 .39.29.55.65.33l8.26-4.79a1.36 1.36 0 00.65-1.1c-.04-.35-.35-.53-.69-.35z"/><path class="cls-6" d="M135.53 83.93L129 87.69a1.36 1.36 0 00-.65 1.1c0 .39.29.55.65.33l6.51-3.76a1.41 1.41 0 00.65-1.1c.02-.39-.27-.54-.63-.33zM146.73 77.47l-5.41 3.12a1.41 1.41 0 00-.65 1.1c0 .39.3.55.65.33l5.41-3.12a1.39 1.39 0 00.66-1.1c0-.36-.29-.54-.66-.33zM160.81 69.35l-8.26 4.78a1.38 1.38 0 00-.65 1.1c0 .39.29.55.65.33l8.26-4.79a1.41 1.41 0 00.65-1.1c0-.39-.29-.53-.65-.32zM50.02 177.74l136.92-79.05V59.97L50.02 139.02v38.72z"/><path class="cls-1" d="M70.47 132.88l22.25-12.83c.65-.38 1.19-.07 1.19.69v.26a2.65 2.65 0 01-1.2 2.07l-22.2 12.82c-.66.38-1.2.07-1.2-.69v-.76c-.03-.8.5-1.17 1.16-1.56z"/><path class="cls-8" d="M70.47 138.05L85 129.69c.65-.38 1.19-.07 1.18.69v.22a2.66 2.66 0 01-1.18 2.06L70.48 141c-.66.38-1.19.08-1.19-.68v-.76c-.01-.76.52-1.13 1.18-1.51z"/><path d="M70.47 138.05L85 129.69c.65-.38 1.19-.07 1.18.69v.22a2.66 2.66 0 01-1.18 2.06L70.48 141c-.66.38-1.19.08-1.19-.68v-.76c-.01-.76.52-1.13 1.18-1.51z" style="isolation:isolate" opacity=".55" fill="#fff"/><path class="cls-27" d="M69.28 147.44a.21.21 0 01-.18-.11.2.2 0 01.06-.27l42.5-24.54a.2.2 0 01.27.06.21.21 0 01-.07.29l-42.48 24.54a.29.29 0 01-.1.03zM69.28 150a.21.21 0 01-.18-.11.2.2 0 01.06-.27l15.66-9a.21.21 0 01.28.07.21.21 0 01-.1.31l-15.66 9a.17.17 0 01-.06 0zM87.18 139.67a.21.21 0 01-.18-.11.2.2 0 01.07-.28l9-5.12a.2.2 0 01.28.08.19.19 0 01-.07.27l-9 5.15zM98.34 133.24a.23.23 0 01-.19-.1.21.21 0 01.08-.28l13.45-7.77a.21.21 0 01.27.12.2.2 0 01-.06.24l-13.45 7.77zM69.28 152.6a.22.22 0 01-.18-.1.21.21 0 01.06-.28l6.71-3.86a.21.21 0 01.28.08.21.21 0 01-.07.28l-6.71 3.85a.17.17 0 01-.09.03zM78.23 147.44a.21.21 0 01-.11-.39l15.67-9a.21.21 0 11.2.36l-15.66 9a.19.19 0 01-.1.03zM96.13 137.1a.2.2 0 01-.11-.38l15.66-9a.2.2 0 01.28.07.21.21 0 01-.06.28l-15.66 9.05zM69.28 155.18a.22.22 0 01-.18-.1.2.2 0 01.06-.27l42.5-24.54a.21.21 0 01.28.07.2.2 0 01-.06.27l-42.5 24.55zM69.28 157.77a.21.21 0 01-.18-.11.2.2 0 01.06-.27l15.66-9a.21.21 0 01.28.07.21.21 0 01-.08.28l-15.66 9a.17.17 0 01-.08.03zM87.18 147.44a.19.19 0 01-.18-.11.2.2 0 01.07-.28l9-5.18a.2.2 0 01.28.07.22.22 0 01-.07.29l-9 5.16a.31.31 0 01-.1.05zM98.34 141a.23.23 0 01-.19-.1.21.21 0 01.08-.28l13.45-7.77a.21.21 0 01.28.08.2.2 0 01-.06.27L98.44 141zM69.28 160.35a.22.22 0 01-.18-.1.21.21 0 01.06-.28l6.71-3.85a.21.21 0 01.21.36l-6.71 3.85a.17.17 0 01-.09.02zM78.23 155.18a.21.21 0 01-.18-.1.2.2 0 01.07-.28l15.67-9a.2.2 0 01.28.07.21.21 0 01-.08.28l-15.66 9zM96.13 144.85a.2.2 0 01-.11-.38l15.66-9a.2.2 0 01.28.07.21.21 0 01-.06.28l-15.66 9.05z"/><g id="freepik--Image--inject-18"><g id="freepik--dark-window--inject-18"><path class="cls-31" d="M168.44 74.84l1.52.87a1.22 1.22 0 00-1 0l-30.7 18.08-2.71 1.56-1.36.81c-.21.13-.47.26-.65.38a3.44 3.44 0 00-.54.46 4.15 4.15 0 00-1.14 2.57s-.21 9-.31 25.69a1.22 1.22 0 00.51.87l-1.55-.88a1.4 1.4 0 01-.6-1.29V98.64a4.42 4.42 0 012-3.44L167 75a1.37 1.37 0 011.42-.12z"/><path class="cls-28" d="M168.44 74.84l1.52.87a1.22 1.22 0 00-1 0l-30.7 18.08-2.71 1.56-1.36.81c-.21.13-.47.26-.65.38a3.44 3.44 0 00-.54.46 4.15 4.15 0 00-1.14 2.57s-.21 9-.31 25.69a1.22 1.22 0 00.51.87l-1.55-.88a1.4 1.4 0 01-.6-1.29V98.64a4.42 4.42 0 012-3.44L167 75a1.37 1.37 0 011.42-.12z"/><path class="cls-8" d="M170.61 77v25.28a4.4 4.4 0 01-2 3.44L133.52 126c-1 .55-1.79.22-2-.75a2.21 2.21 0 00.35-.16L167 104.84a4.4 4.4 0 002-3.44V76.12a2.6 2.6 0 000-.4c.9-.35 1.61.18 1.61 1.28z"/><path class="cls-32" d="M169 75.72L138.27 93.8l-2.71 1.56-1.36.8-.65.38a4.06 4.06 0 00-.55.46 4.15 4.15 0 00-1.14 2.57s-.21 9-.31 25.69c-.1-16.68 0-25.7 0-25.7a3.56 3.56 0 01.94-2.67 4.38 4.38 0 01.66-.55c.25-.17.45-.27.68-.41l1.36-.78 2.7-1.57z"/><path d="M169 75.72l-30.7 18.07-2.71 1.56-1.36.81c-.21.13-.47.26-.65.38a3.44 3.44 0 00-.58.46 4.15 4.15 0 00-1.14 2.57s-.21 9-.31 25.69a1.58 1.58 0 00.35-.16l35.1-20.23a4.44 4.44 0 002-3.45V76.15a3 3 0 000-.43z" style="isolation:isolate" opacity=".5" fill="#0097dd"/></g><path class="cls-1" d="M138.05 119.21h-.12a.1.1 0 01-.09-.12.12.12 0 01.12-.1 1 1 0 00.56-.14l.38-.22a.1.1 0 01.14.05.1.1 0 010 .14l-.37.22a1.34 1.34 0 01-.62.17zm-.66-.85a.1.1 0 01-.11-.1v-1.1a.12.12 0 01.08-.13.13.13 0 01.14.08v1.15a.12.12 0 01-.11.1zm2.52-.08a.11.11 0 01-.11-.11.11.11 0 010-.09l1-.55a.1.1 0 01.14 0 .11.11 0 010 .14l-1 .55h-.05zm1.9-1.1a.11.11 0 01-.09-.06.1.1 0 010-.14l1-.55a.11.11 0 01.15 0 .1.1 0 010 .14l-.95.55h-.06zm-4.4-1a.13.13 0 01-.11-.11v-1.11a.12.12 0 01.09-.13.11.11 0 01.13.09v1.15a.1.1 0 01-.1.11zm6.33-.08a.11.11 0 01-.09 0 .11.11 0 010-.15l.95-.55a.11.11 0 11.11.19l-.95.55a.11.11 0 01-.08 0zm1.9-1.1a.1.1 0 01-.09-.06.11.11 0 010-.15l.95-.55a.11.11 0 01.14 0 .11.11 0 010 .15l-1 .55a.11.11 0 01-.08 0zm-8.23-1a.11.11 0 01-.11-.11v-1.1a.11.11 0 01.09-.13.11.11 0 01.13.08v1.15a.12.12 0 01-.1.13zm10.14-.07a.12.12 0 01-.1 0 .11.11 0 010-.15l.95-.55a.11.11 0 01.16 0 .11.11 0 010 .15l-1 .55a.07.07 0 01-.07 0zm1.9-1.1a.1.1 0 01-.09-.06.1.1 0 010-.14l.95-.55a.12.12 0 01.15 0 .11.11 0 010 .15l-1 .55h-.07zm-12-1a.11.11 0 01-.11-.11v-1.1a.11.11 0 01.09-.13.1.1 0 01.13.08v1.15a.11.11 0 01-.09.13zm14-.07a.12.12 0 01-.12-.1.11.11 0 01.06-.1l1-.55a.1.1 0 01.14 0 .11.11 0 010 .15l-1 .55zm1.9-1.1a.12.12 0 01-.06-.21l1-.55a.11.11 0 01.14 0 .11.11 0 010 .15l-1 .55a.07.07 0 01-.07 0zm-15.85-1a.12.12 0 01-.11-.11v-1.1a.11.11 0 01.11-.11.11.11 0 01.11.11v1.1a.11.11 0 01-.08.13h-.05zm17.75-.07a.12.12 0 01-.09 0 .11.11 0 010-.15l.95-.55a.11.11 0 01.15 0 .1.1 0 010 .14l-.95.55a.09.09 0 01-.08 0zm1.91-1.1a.11.11 0 01-.09 0 .09.09 0 010-.14l1-.55a.12.12 0 01.15 0 .12.12 0 010 .15l-1 .55a.09.09 0 01-.07 0zm-19.66-1a.11.11 0 01-.11-.1v-1.1a.11.11 0 01.11-.11.11.11 0 01.11.11v1.1a.11.11 0 01-.08.13h-.05zm21.56-.07a.1.1 0 01-.1-.11.11.11 0 010-.09l1-.55a.1.1 0 01.14 0 .1.1 0 010 .14l-1 .55a.08.08 0 01-.07 0zm1.9-1.1a.1.1 0 01-.1-.11.11.11 0 010-.09l1-.55a.11.11 0 01.15 0 .1.1 0 010 .15l-.95.55a.09.09 0 01-.08 0zm-23.46-1a.11.11 0 01-.11-.11v-1.1a.11.11 0 01.11-.11.11.11 0 01.11.11v.89a.1.1 0 01-.08.13h-.05zm25.37-.06a.15.15 0 01-.09-.06.09.09 0 010-.14l.11-.06a2.16 2.16 0 00.67-.64.12.12 0 01.16 0 .13.13 0 010 .13 2.29 2.29 0 01-.73.69l-.12.07a.07.07 0 01-.07 0zm1.26-1.73a.11.11 0 01-.09-.12 1.74 1.74 0 00.05-.39v-.69a.11.11 0 01.11-.11.11.11 0 01.1.11v.69a2.09 2.09 0 010 .43.12.12 0 01-.1.12h-.2zm-26.72-.53a.11.11 0 01-.11-.1v-1.1a.11.11 0 11.22 0v1.1a.11.11 0 01-.07.14h-.06zm26.68-1.78a.13.13 0 01-.12-.11V100a.11.11 0 01.12-.11.11.11 0 01.1.1v1.1a.1.1 0 01-.07.13.06.06 0 01-.06 0zm-26.68-.42a.11.11 0 01-.11-.11v-1.1a.11.11 0 11.22 0v1.1a.11.11 0 01-.08.14h-.05zm26.68-1.8a.13.13 0 01-.12-.11v-1.1a.11.11 0 01.12-.11.11.11 0 01.1.11v1.1a.09.09 0 01-.07.13h-.06zm-26.63-.42a.1.1 0 01-.08-.13 2.81 2.81 0 01.46-1 .1.1 0 01.15 0 .1.1 0 010 .14 2.89 2.89 0 00-.44 1 .1.1 0 01-.08.12h-.06zm1.26-1.71a.09.09 0 01-.09-.06.11.11 0 010-.15l1-.55a.11.11 0 01.14 0 .12.12 0 010 .15l-1 .55a.07.07 0 01-.07 0zm25.37-.07a.11.11 0 01-.12-.11v-1.1a.11.11 0 01.12-.11.11.11 0 01.1.1v1.1a.12.12 0 01-.06.14h-.07zm-23.46-1a.1.1 0 01-.09-.06.11.11 0 010-.15l.95-.55a.12.12 0 01.15 0 .1.1 0 010 .14l-.95.55zm1.91-1.1a.12.12 0 01-.1 0 .11.11 0 010-.15l1-.55a.11.11 0 01.15 0 .12.12 0 010 .15l-.95.55a.11.11 0 01-.08 0zm21.55-.07a.11.11 0 01-.11-.11v-1.1a.11.11 0 01.11-.11.11.11 0 01.11.1v1.1a.1.1 0 01-.1.11zm-19.65-1a.11.11 0 01-.11-.11.1.1 0 01.06-.09l1-.55a.11.11 0 01.15 0 .11.11 0 01-.05.15l-.95.55zm1.9-1.1a.11.11 0 01-.11-.11.1.1 0 01.06-.09l1-.55a.1.1 0 01.15 0 .11.11 0 010 .15l-.95.55a.1.1 0 01-.09 0zm17.75-.07a.11.11 0 01-.11-.11v-1.1a.11.11 0 01.11-.11.1.1 0 01.11.1v1.1a.13.13 0 01-.09.12zm-15.84-1a.12.12 0 01-.1-.05.11.11 0 010-.15l.95-.55a.11.11 0 01.15 0 .1.1 0 010 .15l-.95.55a.11.11 0 01-.08 0zm1.9-1.1a.1.1 0 01-.11-.09.1.1 0 01.06-.11l1-.55a.11.11 0 11.1.19l-.94.55zm13.94-.07a.11.11 0 01-.11-.11V89a.11.11 0 01.11-.11.11.11 0 01.11.1v1.1a.12.12 0 01-.09.12zm-12-1a.15.15 0 01-.09-.06.11.11 0 010-.15l.95-.55a.1.1 0 01.14 0 .11.11 0 010 .15l-.95.55a.1.1 0 01-.09 0zm1.91-1.22a.12.12 0 01-.1 0 .11.11 0 010-.15l1-.55a.1.1 0 01.14 0 .11.11 0 010 .15l-1 .55a.11.11 0 01-.08 0zm10.09-.07a.11.11 0 01-.11-.11v-1.1a.11.11 0 01.11-.11.1.1 0 01.11.1v1.1a.11.11 0 01-.09.12zm-8.23-1a.1.1 0 01-.09 0 .1.1 0 010-.14l.95-.56a.12.12 0 01.15 0 .11.11 0 010 .15l-1 .55a.08.08 0 01-.08 0zm1.91-1.1a.12.12 0 01-.1-.05.12.12 0 010-.12l1-.56a.1.1 0 01.14 0 .11.11 0 010 .15l-.95.55a.09.09 0 01-.07 0zm6.32-.08a.1.1 0 01-.11-.11v-1.1a.11.11 0 01.11-.11.11.11 0 01.11.11v1.1a.11.11 0 01-.08.13h-.06zm-4.41-1a.18.18 0 01-.09-.06.11.11 0 010-.15l1-.55a.11.11 0 01.15 0 .1.1 0 010 .15l-.95.55a.09.09 0 01-.1 0zm1.91-1.11a.08.08 0 01-.09 0 .1.1 0 010-.15l1-.55a.12.12 0 01.15 0 .11.11 0 010 .15l-.95.55a.09.09 0 01-.09 0zm2.52-.07a.11.11 0 01-.11-.11c0-.41-.18-.69-.47-.73a.11.11 0 01-.08-.13.09.09 0 01.11-.08c.39.06.64.42.65.94a.11.11 0 01-.11.11zM138.49 117.82h-.05a.11.11 0 01-.06-.09v-3.88l9.12-13a.11.11 0 01.14 0l7.16 4.15-1.65-2a.11.11 0 010-.13l4.79-6.23a.14.14 0 01.15 0l4.91 3.07a.12.12 0 01.05.09v3.11a1.64 1.64 0 01-.7 1.2l-23.82 13.74zm.11-3.89v3.6l23.68-13.64a1.47 1.47 0 00.59-1v-3l-4.75-3-4.69 6 1.95 2.44a.1.1 0 010 .14.11.11 0 01-.13 0l-7.59-4.47zM152.2 96.5a.81.81 0 01-.43-.11 1.11 1.11 0 01-.47-1 3.29 3.29 0 011.48-2.56 1 1 0 011.38.11 1 1 0 01.22.81 3.33 3.33 0 01-1.49 2.56 1.43 1.43 0 01-.69.19zm.69-3.51a3 3 0 00-1.37 2.38.9.9 0 00.36.83.86.86 0 00.9-.1 3 3 0 001.38-2.37.89.89 0 00-.37-.84.91.91 0 00-.9.11z"/></g><g id="freepik--Settings--inject-18"><path class="cls-1" d="M71.54 190.63l16.24-9.36a2.38 2.38 0 001.1-1.89v-14c0-.7-.49-1-1.1-.64l-16.24 9.36a2.43 2.43 0 00-1.1 1.89v14c.01.71.5 1.01 1.1.64z"/><path class="cls-27" d="M71.05 191a.8.8 0 01-.4-.11 1 1 0 01-.45-.93V176a2.65 2.65 0 011.22-2.11l16.23-9.36a.91.91 0 011.47.85v14a2.65 2.65 0 01-1.22 2.11l-16.24 9.36a1.19 1.19 0 01-.61.15zm17.22-26.22a.7.7 0 00-.37.11l-16.24 9.36a2.2 2.2 0 00-1 1.66V190a.42.42 0 00.72.41l16.23-9.36a2.17 2.17 0 001-1.65v-14.05a.53.53 0 00-.2-.49.2.2 0 00-.15 0z"/><path class="cls-8" d="M84.13 175.67v-1.31a.07.07 0 00-.07-.09l-1 .45a.12.12 0 01-.16 0 2.16 2.16 0 00-.22-.49.33.33 0 010-.24l.66-1.34a.15.15 0 000-.2l-.72-.41a.16.16 0 00-.2 0l-.83 1.25a.27.27 0 01-.22.11 2.05 2.05 0 00-.55 0 .11.11 0 01-.14-.08l-.11-1.1a.07.07 0 00-.07-.08h-.06l-1.11.64a.3.3 0 00-.13.21l-.2 1.25a.44.44 0 01-.11.24 5.52 5.52 0 00-.63.65.22.22 0 01-.22.07l-.71-.26a.19.19 0 00-.21.08l-.82 1.42a.2.2 0 000 .22l.58.49a.23.23 0 010 .22 8.7 8.7 0 00-.26.87.44.44 0 01-.14.22l-1 .71a.39.39 0 00-.11.22v1.3c0 .08.06.11.13.08l1-.45a.12.12 0 01.16.06 2.71 2.71 0 00.22.49.25.25 0 010 .24l-.66 1.34a.15.15 0 00.06.2l.72.41a.15.15 0 00.2-.05l.82-1.24a.23.23 0 01.22-.1 2.57 2.57 0 00.55-.06.11.11 0 01.14.08l.11 1.11a.07.07 0 00.07.08.07.07 0 00.06 0l1.1-.65a.38.38 0 00.14-.21l.11-1.25a.45.45 0 01.11-.23 6.45 6.45 0 00.63-.65.19.19 0 01.22-.06l.71.24a.18.18 0 00.21-.07l.82-1.42a.18.18 0 000-.22l-.55-.49a.21.21 0 01-.06-.22 7.18 7.18 0 00.26-.87.4.4 0 01.14-.22l1-.71a.3.3 0 00.12-.18zm-4.37 4.05c-1.05.61-1.89.12-1.89-1.1a4.16 4.16 0 011.89-3.27c1-.6 1.89-.11 1.89 1.1a4.14 4.14 0 01-1.89 3.27zM69.46 173.09a.19.19 0 01-.1-.36l.55-.31a.19.19 0 01.26.07.2.2 0 01-.07.26l-.55.31a.16.16 0 01-.09.03zM71.15 172.11A.18.18 0 0171 172a.17.17 0 01.06-.25l1.15-.67a.19.19 0 01.26.07.19.19 0 01-.07.26l-1.14.66a.19.19 0 01-.11.04zm2.29-1.33a.22.22 0 01-.16-.09.19.19 0 01.07-.26l1.15-.66a.2.2 0 01.26.07.18.18 0 01-.07.25l-1.15.67zm2.3-1.32a.21.21 0 01-.17-.1.21.21 0 01.08-.26l1.15-.66a.19.19 0 01.25.06.19.19 0 01-.06.26l-1.15.66a.14.14 0 01-.1.04zm2.3-1.33a.19.19 0 01-.2-.18.19.19 0 01.1-.17l1.15-.66a.2.2 0 01.26.06.19.19 0 01-.07.26l-1.15.66a.16.16 0 01-.13.03zm2.29-1.33a.17.17 0 01-.16-.09.2.2 0 01.07-.26l1.14-.66a.19.19 0 01.26.07.17.17 0 01-.06.25l-1.15.66a.12.12 0 01-.1.03zm2.3-1.32a.21.21 0 01-.17-.1.19.19 0 01.08-.25l1.14-.67a.2.2 0 01.26.07.18.18 0 01-.07.25l-1.15.67zm2.3-1.32a.2.2 0 01-.2-.19.21.21 0 01.1-.17l1.15-.66a.2.2 0 01.26.07.2.2 0 01-.08.26l-1.14.66a.16.16 0 01-.09 0zm2.29-1.33a.19.19 0 01-.19-.18.19.19 0 01.1-.17l1.14-.66a.18.18 0 01.26.06.2.2 0 01-.06.26l-1.14.66a.23.23 0 01-.11 0zM89.52 161.5a.2.2 0 01-.17-.09.19.19 0 01.06-.26l.55-.31a.19.19 0 01.2.33l-.55.31a.16.16 0 01-.09.02zM68.62 193.92a.19.19 0 01-.19-.2v-.64a.18.18 0 01.22-.15.19.19 0 01.16.15v.63a.21.21 0 01-.19.21zM68.62 192.08a.19.19 0 01-.19-.19v-1.21a.18.18 0 01.22-.16.2.2 0 01.16.16v1.21a.2.2 0 01-.19.19zm0-2.42a.18.18 0 01-.19-.19v-1.2a.2.2 0 01.15-.23.21.21 0 01.23.16v1.27a.19.19 0 01-.19.19zm0-2.41a.19.19 0 01-.19-.2v-1.2a.18.18 0 01.22-.16.2.2 0 01.16.16v1.2a.21.21 0 01-.19.2zm0-2.42a.18.18 0 01-.19-.19v-1.2a.2.2 0 01.15-.23.21.21 0 01.23.16v1.27a.19.19 0 01-.19.18zm0-2.41a.2.2 0 01-.19-.2V181a.19.19 0 01.38 0v1.2a.19.19 0 01-.19.2zm0-2.42a.19.19 0 01-.19-.19v-1.21a.21.21 0 01.22-.16.2.2 0 01.16.16v1.21a.19.19 0 01-.2.19zm0-2.42a.19.19 0 01-.19-.19v-1.2a.19.19 0 01.22-.16.2.2 0 01.16.16v1.2a.19.19 0 01-.2.19zM68.61 175.17a.18.18 0 01-.18-.19v-.62a.19.19 0 01.22-.16.22.22 0 01.16.16v.64a.2.2 0 01-.2.17zM89.53 182.81a.18.18 0 01-.19-.18.16.16 0 01.1-.17l.55-.32a.19.19 0 11.19.33l-.55.31a.17.17 0 01-.1.03zM71.15 193.42a.19.19 0 01-.2-.17.2.2 0 01.1-.18l1.15-.67a.19.19 0 01.26.07.19.19 0 01-.07.26l-1.14.66a.17.17 0 01-.1.03zm2.29-1.33a.18.18 0 01-.19-.18.19.19 0 01.1-.17l1.14-.67a.2.2 0 01.26.08.17.17 0 01-.06.25l-1.15.66zm2.3-1.32a.21.21 0 01-.17-.1.2.2 0 01.08-.26l1.15-.66a.19.19 0 01.25.06.19.19 0 01-.06.26l-1.15.66a.11.11 0 01-.08 0zm2.3-1.33a.19.19 0 01-.16-.09.18.18 0 01.06-.26l1.15-.66a.18.18 0 01.26.06.19.19 0 01-.07.26l-1.15.67h-.09zm2.3-1.33a.2.2 0 01-.17-.09.19.19 0 01.07-.26l1.15-.66a.2.2 0 01.26.06.19.19 0 01-.07.26l-1.15.67a.19.19 0 01-.09 0zm2.29-1.33a.18.18 0 01-.16-.09.19.19 0 01.07-.26l1.15-.66a.2.2 0 01.26.07.18.18 0 01-.07.25l-1.15.66a.15.15 0 01-.09 0zm2.3-1.32a.18.18 0 01-.16-.1.2.2 0 01.07-.26l1.14-.66a.19.19 0 01.26.07.18.18 0 01-.06.25l-1.17.67h-.07zm2.3-1.32a.2.2 0 01-.16-.1.18.18 0 01.06-.25l1.18-.66a.19.19 0 11.19.33l-1.15.66a.32.32 0 01-.14 0zM69.46 194.4a.19.19 0 01-.17-.1.2.2 0 01.07-.26l.55-.31a.19.19 0 11.19.33l-.55.31zM90.92 162.29a.18.18 0 01-.19-.18v-.64a.18.18 0 01.19-.18.18.18 0 01.18.18v.64a.18.18 0 01-.18.18zM90.92 179.2a.18.18 0 01-.19-.19v-1.21a.19.19 0 11.37 0v1.2a.18.18 0 01-.18.2zm0-2.42a.18.18 0 01-.19-.18v-1.21a.19.19 0 11.37 0v1.21a.18.18 0 01-.18.18zm0-2.41a.19.19 0 01-.19-.19V173a.18.18 0 01.19-.18.18.18 0 01.18.18v1.21a.18.18 0 01-.18.18zm0-2.42a.18.18 0 01-.19-.18v-1.21a.19.19 0 11.37 0v1.21a.18.18 0 01-.18.18zm0-2.41a.19.19 0 01-.19-.19v-1.21a.2.2 0 01.19-.19.19.19 0 01.18.19v1.21a.19.19 0 01-.18.19zm0-2.42a.18.18 0 01-.19-.18v-1.21a.18.18 0 01.19-.19.18.18 0 01.18.18v1.21a.18.18 0 01-.18.18zm0-2.41a.19.19 0 01-.19-.19v-1.21a.18.18 0 01.19-.18.18.18 0 01.18.18v1.21a.19.19 0 01-.18.19zM90.92 181a.19.19 0 01-.19-.19v-.63a.19.19 0 01.19-.19.18.18 0 01.18.19v.63a.19.19 0 01-.18.19z"/><path class="cls-8" d="M90.08 162.15H90a.2.2 0 01-.09-.17V160a.19.19 0 01.09-.16l1.68-1a.17.17 0 01.19 0 .21.21 0 01.1.16v2a.21.21 0 01-.1.17l-1.68 1zm.19-2v1.5l1.3-.75v-1.5zM90.08 183.46H90a.2.2 0 01-.09-.17v-1.94a.19.19 0 01.09-.16l1.68-1a.21.21 0 01.19 0 .23.23 0 01.1.17v1.93a.21.21 0 01-.1.17l-1.68 1zm.19-2V183l1.3-.76v-1.5zM67.78 175h-.1a.18.18 0 01-.09-.16v-1.94a.2.2 0 01.09-.17l1.68-1a.17.17 0 01.19 0 .17.17 0 01.09.16v1.94a.18.18 0 01-.09.16l-1.68 1zm.18-2v1.5l1.31-.76v-1.49zM67.78 196.33h-.1a.17.17 0 01-.09-.16v-2a.2.2 0 01.09-.17l1.68-1a.17.17 0 01.19 0 .17.17 0 01.09.16v1.94a.18.18 0 01-.09.16l-1.68 1a.18.18 0 01-.09.07zm.18-2v1.52l1.31-.76v-1.49zM91.76 171.87a2 2 0 01-.84 1.61c-.47.27-.85 0-.85-.63a2 2 0 01.85-1.62c.47-.23.84.01.84.64zM80.6 166.46a2 2 0 01-.84 1.61c-.47.27-.85 0-.85-.64a2 2 0 01.85-1.61c.47-.27.84.02.84.64zM80.6 187.77a2 2 0 01-.84 1.61c-.47.27-.85 0-.85-.63a2 2 0 01.85-1.62c.47-.27.84.02.84.64zM69.46 184.77a2 2 0 01-.85 1.62c-.46.27-.84 0-.84-.64a2 2 0 01.84-1.61c.47-.27.85.01.85.63z"/></g><g id="freepik--image--inject-18-2" data-name="freepik--image--inject-18"><path class="cls-1" d="M111.81 167.38l16.24-9.38a2.45 2.45 0 001.1-1.89v-14c0-.69-.49-1-1.1-.62l-16.24 9.36a2.44 2.44 0 00-1.11 1.89v14c.02.71.51 1.01 1.11.64z"/><path class="cls-27" d="M111.32 167.79a.84.84 0 01-.41-.11 1 1 0 01-.45-.92v-14a2.67 2.67 0 011.22-2.11l16.24-9.36a.91.91 0 011.28.16.86.86 0 01.19.69v14a2.65 2.65 0 01-1.22 2.11l-16.24 9.36a1.28 1.28 0 01-.61.18zm17.19-26.22a.73.73 0 00-.35.12l-16.24 9.36a2.17 2.17 0 00-1 1.65v14a.42.42 0 00.71.41l16.24-9.36a2.17 2.17 0 001-1.65v-14a.53.53 0 00-.2-.48.27.27 0 00-.16-.05z"/><path class="cls-8" d="M112.8 164.55l14.45-8.35-2.76-4.91-1.6 3.83.6 1.46-5.03-5.29-5.66 13.26z"/><path d="M122.87 147.83a2.7 2.7 0 00-1.22 2.11c0 .78.55 1.1 1.22.7a2.68 2.68 0 001.24-2.11c0-.78-.55-1.09-1.24-.7z" style="isolation:isolate" opacity=".9" fill="#0097dd"/><path class="cls-8" d="M109.72 149.84a.19.19 0 01-.16-.1.18.18 0 01.06-.25l.56-.31a.18.18 0 01.25.07.17.17 0 01-.06.25l-.55.32zM111.44 148.86a.18.18 0 01-.16-.1.18.18 0 01.06-.25l1.14-.67a.2.2 0 01.26.11.19.19 0 01-.06.22l-1.15.67zm2.3-1.32a.21.21 0 01-.17-.1.18.18 0 01.07-.25l1.14-.66a.19.19 0 01.26.07.2.2 0 01-.06.26l-1.15.66a.24.24 0 01-.12 0zm2.3-1.33a.19.19 0 01-.17-.1.18.18 0 01.07-.25l1.15-.67a.19.19 0 11.19.33l-1.15.67a.17.17 0 01-.12 0zm2.29-1.33a.17.17 0 01-.16-.09.19.19 0 01.07-.26l1.14-.66a.2.2 0 01.26.06.19.19 0 01-.07.26l-1.14.66a.19.19 0 01-.13 0zm2.3-1.32a.19.19 0 01-.2-.18.18.18 0 01.1-.17l1.15-.67a.2.2 0 01.26.07.19.19 0 01-.07.26l-1.18.65a.25.25 0 01-.09 0zm2.29-1.33a.18.18 0 01-.16-.09.19.19 0 01.06-.26l1.15-.66a.2.2 0 01.26.06.19.19 0 01-.07.26l-1.15.67a.22.22 0 01-.11 0zm2.3-1.33a.17.17 0 01-.16-.09.18.18 0 01.06-.26l1.15-.66a.19.19 0 11.19.33l-1.15.66a.12.12 0 01-.1 0zm2.29-1.32a.19.19 0 01-.16-.09.2.2 0 01.07-.26l1.15-.67a.19.19 0 01.26.08.18.18 0 01-.07.25l-1.15.67a.19.19 0 01-.13 0zM129.78 138.26a.19.19 0 01-.19-.19.19.19 0 01.1-.17l.55-.31a.2.2 0 01.26.07.18.18 0 01-.07.25l-.56.32a.14.14 0 01-.09.03zM108.88 170.67a.19.19 0 01-.19-.16v-.63a.19.19 0 11.38 0v.63a.21.21 0 01-.19.16zM108.88 168.85a.19.19 0 01-.19-.19v-1.21a.19.19 0 01.19-.18.18.18 0 01.19.18v1.21a.18.18 0 01-.19.19zm0-2.41a.2.2 0 01-.19-.19V165a.2.2 0 01.19-.19.18.18 0 01.19.19v1.21a.18.18 0 01-.18.2zm0-2.42a.2.2 0 01-.19-.19v-1.21a.2.2 0 01.19-.19.19.19 0 01.19.19v1.21a.19.19 0 01-.19.17zm0-2.41a.21.21 0 01-.19-.2v-1.2a.19.19 0 01.38 0v1.2a.19.19 0 01-.19.17zm0-2.42a.2.2 0 01-.19-.19v-1.2a.19.19 0 01.38 0v1.2a.19.19 0 01-.19.17zm0-2.41a.21.21 0 01-.19-.2v-1.2a.19.19 0 01.19-.19.18.18 0 01.19.19v1.2a.2.2 0 01-.19.16zm0-2.42a.2.2 0 01-.19-.19V153a.2.2 0 01.19-.19.19.19 0 01.19.19v1.21a.19.19 0 01-.19.17zM108.88 151.92a.19.19 0 01-.19-.19v-.63a.19.19 0 01.38 0v.63a.18.18 0 01-.19.19zM129.8 159.56a.21.21 0 01-.17-.1.22.22 0 01.07-.26l.55-.31a.19.19 0 01.26.07.18.18 0 01-.06.26l-.55.32zM111.44 170.17a.2.2 0 01-.16-.09.19.19 0 01.07-.26l1.15-.66a.19.19 0 01.26.07.18.18 0 01-.07.25l-1.15.67zm2.3-1.32a.2.2 0 01-.16-.1.18.18 0 01.06-.25l1.15-.67a.19.19 0 11.18.33l-1.14.66a.19.19 0 01-.13 0zm2.3-1.33a.17.17 0 01-.16-.09.18.18 0 01.05-.25l1.14-.67a.21.21 0 01.26.1.2.2 0 01-.06.23l-1.16.66a.21.21 0 01-.12 0zm2.3-1.33a.19.19 0 01-.1-.35l1.15-.67a.19.19 0 01.25.11.19.19 0 01-.06.23l-1.15.66a.17.17 0 01-.12 0zm2.29-1.32a.19.19 0 01-.19-.19.21.21 0 01.1-.17l1.15-.66a.19.19 0 11.19.33l-1.15.66a.27.27 0 01-.12 0zm2.31-1.33a.18.18 0 01-.2-.18.16.16 0 01.1-.17l1.15-.67a.19.19 0 11.18.33l-1.16.66a.19.19 0 01-.1 0zm2.29-1.33a.17.17 0 01-.16-.09.18.18 0 01.05-.25l1.14-.66a.18.18 0 01.26.06.19.19 0 01-.05.26l-1.14.67a.17.17 0 01-.12 0zm2.3-1.33a.18.18 0 01-.09-.35l1.14-.66a.19.19 0 01.26.07.2.2 0 01-.07.26l-1.15.66a.16.16 0 01-.12 0zM109.72 171.15a.18.18 0 01-.16-.09.19.19 0 01.06-.26l.56-.32a.18.18 0 01.25.07.18.18 0 01-.06.26l-.55.32zM131.19 139.05a.2.2 0 01-.2-.19v-.63a.2.2 0 01.2-.19.18.18 0 01.18.19v.63a.19.19 0 01-.18.19zM131.19 156a.2.2 0 01-.2-.2v-1.23a.2.2 0 01.2-.18.18.18 0 01.18.18v1.21a.19.19 0 01-.17.21zm0-2.42a.2.2 0 01-.2-.19v-1.21a.2.2 0 01.2-.19.19.19 0 01.18.19v1.21a.19.19 0 01-.18.19zm0-2.42a.2.2 0 01-.2-.19v-1.2a.2.2 0 01.2-.2.2.2 0 01.18.2v1.2a.18.18 0 01-.18.19zm0-2.41a.2.2 0 01-.2-.19v-1.21a.21.21 0 01.2-.19.19.19 0 01.18.19v1.21a.19.19 0 01-.18.19zm0-2.42a.2.2 0 01-.2-.19v-1.2a.2.2 0 01.2-.2.2.2 0 01.18.2v1.2a.18.18 0 01-.18.17zm0-2.41a.2.2 0 01-.2-.19v-1.21a.21.21 0 01.2-.19.19.19 0 01.18.19v1.21a.19.19 0 01-.18.19zm0-2.42a.2.2 0 01-.2-.19v-1.21a.21.21 0 01.2-.19.19.19 0 01.18.19v1.21a.18.18 0 01-.18.19zM131.19 157.79a.2.2 0 01-.2-.19v-.6a.2.2 0 01.2-.19.19.19 0 01.18.19v.63a.18.18 0 01-.18.16z"/><path class="cls-8" d="M130.34 138.9h-.09a.17.17 0 01-.09-.16v-1.94a.18.18 0 01.09-.16l1.68-1a.21.21 0 01.19 0 .19.19 0 01.09.17v1.93a.22.22 0 01-.09.17l-1.68 1a.17.17 0 01-.1-.01zm.2-2v1.5l1.3-.75v-1.5zM130.34 160.21a.15.15 0 01-.09 0 .19.19 0 01-.08-.15v-1.96a.18.18 0 01.09-.16l1.68-1a.21.21 0 01.19 0 .18.18 0 01.09.16v1.94a.2.2 0 01-.09.17l-1.68 1a.14.14 0 01-.11 0zm.2-2v1.5l1.28-.76v-1.5zM108 151.78a.16.16 0 01-.09 0 .18.18 0 01-.1-.16v-1.93a.19.19 0 01.1-.17l1.65-1a.19.19 0 01.29.17v1.93a.22.22 0 01-.09.17l-1.66 1a.17.17 0 01-.1-.01zm.19-2v1.49l1.3-.75V149zM108 173.09a.21.21 0 01-.1-.17V171a.19.19 0 01.1-.16l1.65-1a.19.19 0 01.29.17V172a.22.22 0 01-.09.17l-1.66.95zm.19-2v1.5l1.3-.75v-1.5zM132 148.62a2 2 0 01-.84 1.61c-.47.27-.85 0-.85-.64a2 2 0 01.85-1.61c.49-.27.84.02.84.64zM120.87 143.21a2 2 0 01-.85 1.61c-.46.27-.84 0-.84-.64a2 2 0 01.84-1.61c.47-.27.85.01.85.64zM120.87 164.52a2 2 0 01-.85 1.61c-.46.27-.84 0-.84-.64a2 2 0 01.84-1.61c.47-.27.85.02.85.64zM109.72 161.52a2 2 0 01-.84 1.62c-.47.27-.84 0-.84-.64a2 2 0 01.84-1.62c.47-.29.84.02.84.64z"/></g><g id="freepik--Video--inject-18"><path class="cls-1" d="M152.07 144.14l16.24-9.36a2.47 2.47 0 001.11-1.9v-14c0-.7-.49-1-1.11-.63l-16.24 9.36a2.43 2.43 0 00-1.1 1.89v14.05c.03.65.5.93 1.1.59z"/><path class="cls-27" d="M151.58 144.54a.8.8 0 01-.4-.11 1 1 0 01-.45-.92v-14a2.65 2.65 0 011.22-2.11l16.24-9.4a.9.9 0 011.27.15.88.88 0 01.19.7v14a2.65 2.65 0 01-1.21 2.11l-16.24 9.36a1.25 1.25 0 01-.62.22zm17.22-26.22a.74.74 0 00-.36.12l-16.24 9.36a2.17 2.17 0 00-1 1.65v14.07a.43.43 0 00.72.41l16.24-9.36a2.2 2.2 0 001-1.66v-14.06a.56.56 0 00-.19-.49.32.32 0 00-.16 0z"/><path class="cls-8" d="M150 126.59a.19.19 0 01-.19-.18.19.19 0 01.1-.17l.55-.32a.19.19 0 01.26.07.18.18 0 01-.06.25l-.55.31a.17.17 0 01-.11.04zM151.68 125.61a.18.18 0 01-.16-.09.19.19 0 01.07-.26l1.14-.66a.2.2 0 01.26.06.18.18 0 01-.06.26l-1.14.67zm2.3-1.33a.18.18 0 01-.19-.18.17.17 0 01.1-.17l1.14-.66a.19.19 0 01.19.33l-1.15.66a.15.15 0 01-.09 0zm2.3-1.32a.18.18 0 01-.2-.17.17.17 0 01.1-.18l1.15-.67a.21.21 0 01.26.08.19.19 0 01-.07.25l-1.15.66a.16.16 0 01-.09 0zm2.29-1.32a.2.2 0 01-.16-.1.18.18 0 01.06-.26l1.15-.66a.19.19 0 01.26.07.17.17 0 01-.06.25l-1.14.66a.19.19 0 01-.1 0zm2.29-1.33a.19.19 0 01-.16-.1.18.18 0 01.07-.25l1.15-.67a.18.18 0 01.25.07.17.17 0 01-.06.25l-1.15.66h-.1zm2.3-1.32a.19.19 0 01-.19-.19.17.17 0 01.1-.17l1.14-.66a.19.19 0 01.2.33l-1.15.66a.14.14 0 01-.09 0zm2.3-1.33a.2.2 0 01-.2-.18.19.19 0 01.1-.17l1.15-.66a.18.18 0 01.26.06.19.19 0 01-.07.26l-1.15.66h-.09zm2.29-1.33a.18.18 0 01-.16-.09.19.19 0 01.07-.26l1.14-.66a.2.2 0 01.26.06.18.18 0 01-.06.26l-1.15.67a.16.16 0 01-.1 0zM170.05 115a.22.22 0 01-.17-.09.19.19 0 01.07-.26l.55-.32a.19.19 0 11.18.33l-.55.31a.16.16 0 01-.08.03zM149.15 147.42a.19.19 0 01-.19-.19v-.63a.19.19 0 01.38 0v.63a.19.19 0 01-.19.19zM149.15 145.58a.19.19 0 01-.19-.19v-1.2a.19.19 0 01.38 0v1.2a.19.19 0 01-.19.19zm0-2.41a.2.2 0 01-.15-.17v-1.21a.19.19 0 01.38 0V143a.19.19 0 01-.19.2zm0-2.42a.19.19 0 01-.19-.19v-1.21a.19.19 0 01.38 0v1.21a.19.19 0 01-.17.21zm0-2.42a.19.19 0 01-.19-.18v-1.21a.21.21 0 01.2-.19.19.19 0 01.18.19v1.21a.18.18 0 01-.18.18zm0-2.41a.19.19 0 01-.19-.19v-1.21a.19.19 0 01.38 0v1.21a.2.2 0 01-.19.19zm0-2.42a.19.19 0 01-.19-.18v-1.21a.18.18 0 01.19-.19.2.2 0 01.19.19v1.21a.19.19 0 01-.19.18zm0-2.41a.19.19 0 01-.19-.19v-1.21a.19.19 0 01.38 0v1.21a.2.2 0 01-.19.19zM149.15 128.65a.19.19 0 01-.19-.19v-.63a.19.19 0 01.38 0v.63a.19.19 0 01-.19.19zM170.07 136.31a.2.2 0 01-.17-.09.19.19 0 01.1-.22l.55-.31a.18.18 0 01.26.06.19.19 0 01-.07.26l-.55.31a.16.16 0 01-.12-.01zM151.68 146.92a.18.18 0 01-.16-.09.19.19 0 01.07-.26l1.14-.66a.2.2 0 01.26.06.17.17 0 01-.06.25l-1.15.66a.12.12 0 01-.1.04zm2.3-1.32a.21.21 0 01-.17-.1.21.21 0 01.08-.26l1.15-.66a.18.18 0 01.25.07.19.19 0 01-.07.26l-1.15.66a.16.16 0 01-.09 0zm2.3-1.33a.19.19 0 01-.16-.09.18.18 0 01.06-.26l1.15-.66a.19.19 0 01.26.06.2.2 0 01-.06.26l-1.14.67h-.1zm2.3-1.33a.19.19 0 01-.1-.35l1.15-.66a.2.2 0 01.26.07.18.18 0 01-.07.25l-1.15.67a.16.16 0 01-.09.05zm2.29-1.32a.19.19 0 01-.16-.1.2.2 0 01.07-.26l1.15-.66a.18.18 0 01.25.07.18.18 0 01-.07.25l-1.15.66a.17.17 0 01-.1 0zm2.3-1.33a.18.18 0 01-.16-.1.18.18 0 01.07-.25l1.15-.67a.18.18 0 01.25.07.17.17 0 01-.06.25l-1.16.66h-.09zm2.3-1.32a.18.18 0 01-.16-.1.17.17 0 01.06-.25l1.15-.66a.19.19 0 01.26.07.18.18 0 01-.07.26l-1.15.66a.16.16 0 01-.09 0zm2.3-1.33a.19.19 0 01-.2-.18.19.19 0 01.1-.17l1.15-.67a.19.19 0 11.19.33l-1.15.66h-.09zM150 147.93a.19.19 0 01-.19-.19.21.21 0 01.1-.17l.55-.32a.2.2 0 01.26.08.18.18 0 01-.06.25l-.55.32a.17.17 0 01-.11.03zM171.47 115.8a.2.2 0 01-.19-.19V115a.19.19 0 11.38 0v.63a.2.2 0 01-.19.17zM171.47 132.7a.19.19 0 01-.19-.18v-1.21a.19.19 0 01.38 0v1.2a.18.18 0 01-.18.19zm0-2.41a.2.2 0 01-.19-.19v-1.21a.19.19 0 01.38 0v1.21a.18.18 0 01-.18.2zm0-2.42a.19.19 0 01-.19-.18v-1.21a.19.19 0 11.38 0v1.21a.19.19 0 01-.19.18zm0-2.41a.2.2 0 01-.19-.19v-1.21a.19.19 0 01.38 0v1.21a.2.2 0 01-.19.19zm0-2.41a.21.21 0 01-.19-.2v-1.2a.19.19 0 11.38 0v1.2a.19.19 0 01-.19.2zm0-2.42a.2.2 0 01-.19-.19v-1.21a.2.2 0 01.19-.19.19.19 0 01.19.19v1.21a.2.2 0 01-.19.19zm0-2.41a.21.21 0 01-.19-.2v-1.2a.19.19 0 11.38 0V118a.19.19 0 01-.19.2zM171.47 134.54a.19.19 0 01-.19-.19v-.63a.19.19 0 01.38 0v.63a.18.18 0 01-.19.19z"/><path class="cls-8" d="M170.61 115.65h-.09a.21.21 0 01-.1-.17v-1.94a.19.19 0 01.1-.16l1.68-1a.19.19 0 01.18 0 .2.2 0 01.1.16v1.94a.21.21 0 01-.1.17l-1.68 1zm.19-2v1.51l1.3-.75v-1.51zM170.61 137a.16.16 0 01-.09 0 .19.19 0 01-.1-.17v-1.93a.18.18 0 01.1-.16l1.68-1a.15.15 0 01.18 0 .18.18 0 01.1.16v1.94a.21.21 0 01-.1.17l-1.68 1zm.19-2v1.5l1.3-.75v-1.5zM148.31 128.53h-.1a.21.21 0 01-.09-.17v-1.93a.19.19 0 01.09-.16l1.68-1a.17.17 0 01.19 0 .18.18 0 01.1.16v1.94a.19.19 0 01-.1.16l-1.65 1zm.19-2V128l1.3-.75v-1.5zM148.31 149.84h-.1a.22.22 0 01-.09-.17v-1.94a.2.2 0 01.09-.16l1.68-1a.21.21 0 01.19 0 .18.18 0 01.1.16v1.94a.21.21 0 01-.1.17l-1.65 1a.17.17 0 01-.12 0zm.19-2v1.51l1.3-.75v-1.51zM172.3 125.37a2 2 0 01-.83 1.63c-.46.27-.84 0-.84-.64a2 2 0 01.84-1.61c.45-.28.83 0 .83.62zM161.14 120a2 2 0 01-.85 1.61c-.47.27-.84 0-.84-.63a2 2 0 01.84-1.62c.47-.31.85-.02.85.64zM161.14 141.27a2 2 0 01-.85 1.62c-.47.27-.84 0-.84-.64a2 2 0 01.84-1.62c.47-.26.85.02.85.64zM150 138.28a2 2 0 01-.84 1.61c-.47.27-.85 0-.85-.64a2 2 0 01.85-1.61c.45-.27.84.02.84.64zM160.29 125.65a10.41 10.41 0 00-4.71 8.16c0 3 2.12 4.2 4.71 2.72a10.43 10.43 0 004.71-8.16c0-3-2.11-4.22-4.71-2.72zm2.46 4.41l-3.51 4.19c-.34.41-.62.31-.62-.22v-3.95a.92.92 0 01.92-.92h.05l2.82.11c.53 0 .68.38.34.79z"/></g></g></g><g id="freepik--Cursor--inject-18"><g id="freepik--Arrow--inject-18"><path class="cls-8" d="M168.78 144.17l-6.67-8-.12-.11-1.61-.93c-.13-.07-.23 0-.23.3v16.16c0 .14 0 .22.06.24l1.6.93c.06 0 .14-.06.24-.27l1.14-2.45.66 2.34a.26.26 0 00.13.18c.13.09 1.54.9 1.6.93a.56.56 0 00.52-.21l.92-1.06a1.38 1.38 0 00.34-1.1l-1.27-4.5a.82.82 0 01.55-.86l1.87-.85c.32-.18.49-.51.27-.74z"/><path class="cls-7" d="M168.78 144.17l-6.67-8-.12-.11-1.61-.93c-.13-.07-.23 0-.23.3v16.16c0 .14 0 .22.06.24l1.6.93c.06 0 .14-.06.24-.27l1.14-2.45.66 2.34a.26.26 0 00.13.18c.13.09 1.54.9 1.6.93a.56.56 0 00.52-.21l.92-1.06a1.38 1.38 0 00.34-1.1l-1.27-4.5a.82.82 0 01.55-.86l1.87-.85c.32-.18.49-.51.27-.74z"/><path class="cls-6" d="M161.71 152.51v-16.16c0-.34.16-.42.36-.18l6.68 8c.2.23.05.55-.33.73l-1.88.85a.82.82 0 00-.55.85l1.27 4.51a1.38 1.38 0 01-.34 1.1l-.92 1.06c-.28.31-.55.32-.65 0l-1.26-4.51c-.08-.3-.28-.26-.45.09l-1.64 3.61c-.16.38-.29.39-.29.05z"/><path class="cls-10" d="M165.51 153.48c-.2-.12-1.46-.84-1.58-.92a.29.29 0 01-.13-.18l-.65-2.34.55-1.17c.16-.34.36-.38.45-.08l1.26 4.51a.4.4 0 00.1.18z"/></g></g><g id="freepik--Plant--inject-18"><g id="freepik--Plants--inject-18"><path class="cls-8" d="M37.24 234.36l4.33-2.5s2.59-10.73 1.56-20.38c-1.45-13.57-10.37-18.67-13.77-17.5S25 199.1 30.6 207.2c3.31 4.8 7.4 14.68 6.64 27.16z"/><g class="cls-35"><path class="cls-12" d="M37.24 234.36l4.33-2.5s2.59-10.73 1.56-20.38c-1.45-13.57-10.37-18.67-13.77-17.5S25 199.1 30.6 207.2c3.31 4.8 7.4 14.68 6.64 27.16z"/></g><path class="cls-12" d="M39 229.09a.3.3 0 01-.25-.35c2.38-12.51-2-26.57-7.4-32.42a.3.3 0 010-.42.3.3 0 01.43 0c5.5 5.95 10 20.24 7.55 32.94a.3.3 0 01-.33.25z"/><path class="cls-8" d="M26.33 240.66c-.64.33-2.37-1.15-2.85-1.51a6 6 0 01-1.88-2.39 5.61 5.61 0 01-.33-3.41 12.35 12.35 0 01.52-1.77c.19-.55.39-1.15.59-1.72a4.4 4.4 0 00.34-1.75c-.09-1.2-1.1-2.09-2-2.86s-2.08-2-2-3.4a5 5 0 011.42-2.94c.73-.83 1.59-1.56 2.25-2.45a3 3 0 00.42-3.62 20.1 20.1 0 01-1.43-2.84 2.83 2.83 0 01.62-3 3.22 3.22 0 012.5-.49 5.6 5.6 0 012.26.92c2.2 1.39 3.38 4.15 5.76 5.25a24.75 24.75 0 002.9.87 3.63 3.63 0 012.34 1.77c.8 1.82-1 3.93-.43 5.84.47 1.7 2 2.42 2.89 4a3.55 3.55 0 01.31 2.2 10.38 10.38 0 01-1.1 3.64 32.47 32.47 0 01-2.2 3.37z"/><path class="cls-12" d="M26.33 240.66c-.64.33-2.37-1.15-2.85-1.51a6 6 0 01-1.88-2.39 5.61 5.61 0 01-.33-3.41 12.35 12.35 0 01.52-1.77c.19-.55.39-1.15.59-1.72a4.4 4.4 0 00.34-1.75c-.09-1.2-1.1-2.09-2-2.86s-2.08-2-2-3.4a5 5 0 011.42-2.94c.73-.83 1.59-1.56 2.25-2.45a3 3 0 00.42-3.62 20.1 20.1 0 01-1.43-2.84 2.83 2.83 0 01.62-3 3.22 3.22 0 012.5-.49 5.6 5.6 0 012.26.92c2.2 1.39 3.38 4.15 5.76 5.25a24.75 24.75 0 002.9.87 3.63 3.63 0 012.34 1.77c.8 1.82-1 3.93-.43 5.84.47 1.7 2 2.42 2.89 4a3.55 3.55 0 01.31 2.2 10.38 10.38 0 01-1.1 3.64 32.47 32.47 0 01-2.2 3.37z" opacity=".65"/><path class="cls-12" d="M32.61 237.38a.27.27 0 01-.26-.3c1-11.26-3.65-24-7.33-27.78a.28.28 0 01.05-.4.3.3 0 01.36 0c3.75 3.89 8.54 16.82 7.49 28.23a.29.29 0 01-.31.25z"/><path class="cls-12" d="M31.49 223.51a.14.14 0 01-.09 0 38.05 38.05 0 00-8.11-1.73.28.28 0 01-.26-.31.28.28 0 01.3-.26A38.24 38.24 0 0131.6 223a.28.28 0 01.15.37.27.27 0 01-.26.18z"/></g></g><g id="freepik--Character--inject-18"><g id="freepik--chartacter-on-a-table--inject-18"><g id="freepik--Chair--inject-18"><path class="cls-10" d="M199.32 211.63l3-32.31 2.75-.15-4.36 32.44a.35.35 0 01-.19.25 1.09 1.09 0 01-1 0 .35.35 0 01-.22-.29z"/><path class="cls-10" d="M202.31 179.32l2.75-.15-.81 5.37a10.73 10.73 0 01-1.65-.76 1.72 1.72 0 01-.74-.62z"/><path class="cls-7" d="M239.12 175.18h2.75l4.44 30.72a.31.31 0 01-.2.3 1.08 1.08 0 01-1 0 .38.38 0 01-.2-.23z"/><path class="cls-10" d="M241.9 175.18l1.07 7.44a11.25 11.25 0 01-2.2 1.34l-1.66-8.81z"/><path class="cls-7" d="M217.85 221.11l2.2-32.78 2.76-.14-3.58 32.92a.34.34 0 01-.18.24 1.08 1.08 0 01-1 .05.31.31 0 01-.21-.29z"/><path class="cls-10" d="M219.78 192.48l.27-4.15 2.76-.14-.49 4.48a5.21 5.21 0 01-2.54-.19zM224 166.38h2.75l4.45 31.32a.33.33 0 01-.2.3 1.08 1.08 0 01-1 0 .35.35 0 01-.2-.23z"/><g id="freepik--chair--inject-18-2" data-name="freepik--chair--inject-18"><path class="cls-8" d="M247.11 144.54a16 16 0 011.1 4.87c.32 3.73-1 15.82-1.71 21.23-1.1 9-2.45 9.05-4.41 10.56-3.37 2.6-13.05 7.71-16.24 9-5.8 2.28-10.54-1.24-14.07-3a82.22 82.22 0 01-9.36-5.54 2.6 2.6 0 01-1.33-2V178c0-.88.77-1.82 2.39-2.86 3-2 13.81-8.26 18-10.58 3.23-2 5.16-15.27 7.4-22.35 0-.15.09-.3.14-.44l.12-.33c.14-.39.29-.74.44-1.06"/><path class="cls-8" d="M201.1 178c0-.88.77-1.81 2.4-2.86 3-1.94 13.81-8.26 18-10.57 3.22-2 5.16-15.27 7.4-22.35a10.66 10.66 0 01.47-1.3v-.1c0-.09.09-.18.13-.28l.07-.15a6.8 6.8 0 011.49-2.15 3.31 3.31 0 01.73-.51l1.31-.75c2.2-1.31 5.07.27 8.65 2.21a10.83 10.83 0 015.29 5.38 15.89 15.89 0 011.1 4.87c.32 3.73-1 15.82-1.71 21.23-1.1 9-2.45 9-4.41 10.56-3.37 2.6-13.05 7.71-16.24 8.95-5.8 2.29-10.54-1.23-14.07-3a79.38 79.38 0 01-9.36-5.54 2.57 2.57 0 01-1.33-2c.1-.26.08-1.37.08-1.64z"/><path d="M201.1 178c0-.88.77-1.81 2.4-2.86 3-1.94 13.81-8.26 18-10.57 3.22-2 5.16-15.27 7.4-22.35a10.66 10.66 0 01.47-1.3v-.1c0-.09.09-.18.13-.28l.07-.15a6.8 6.8 0 011.49-2.15 3.31 3.31 0 01.73-.51l1.31-.75c2.2-1.31 5.07.27 8.65 2.21a10.83 10.83 0 015.29 5.38 15.89 15.89 0 011.1 4.87c.32 3.73-1 15.82-1.71 21.23-1.1 9-2.45 9-4.41 10.56-3.37 2.6-13.05 7.71-16.24 8.95-5.8 2.29-10.54-1.23-14.07-3a79.38 79.38 0 01-9.36-5.54 2.57 2.57 0 01-1.33-2c.1-.26.08-1.37.08-1.64z" style="isolation:isolate" opacity=".25" fill="#fff"/><path class="cls-8" d="M211.8 185.49a82.22 82.22 0 01-9.36-5.54c-2-1.46-1.83-2.95 1.05-4.82 4-2.6 20.3-11.85 20.3-11.85s20.62 12.17 19.73 14.41-13.64 9.2-17.66 10.78c-5.79 2.28-10.53-1.23-14.06-2.98z"/><path class="cls-15" d="M211.8 185.49a82.22 82.22 0 01-9.36-5.54c-2-1.46-1.83-2.95 1.05-4.82 4-2.6 20.3-11.85 20.3-11.85s20.62 12.17 19.73 14.41-13.64 9.2-17.66 10.78c-5.79 2.28-10.53-1.23-14.06-2.98z"/><path class="cls-8" d="M231.86 137.68c2.17-1.14 5 .41 8.48 2.32a10.81 10.81 0 015.29 5.39l1.48-.85a10.83 10.83 0 00-5.29-5.38c-3.58-2-6.46-3.54-8.65-2.2-.17.09-.95.5-1.31.72z"/><path class="cls-26" d="M231.86 137.68c2.17-1.14 5 .41 8.48 2.32a10.81 10.81 0 015.29 5.39l1.48-.85a10.83 10.83 0 00-5.29-5.38c-3.58-2-6.46-3.54-8.65-2.2-.17.09-.95.5-1.31.72z"/><path class="cls-8" d="M221.54 164.52a98.8 98.8 0 019.59 4.37 82.87 82.87 0 018 4.85c4.24 2.67 3.92 4.66 3.92 4.66 2.11-1.75 4.21-22 3.69-28.16a15.27 15.27 0 00-1.21-5.1c-.05-.12-.11-.24-.17-.36l-.12-.24-.07-.11a6.86 6.86 0 00-.55-.85 1 1 0 00-.14-.2l-.15-.2-.14-.19-.14-.15c-.24-.27-.49-.54-.76-.79a1.71 1.71 0 00-.2-.18 12.13 12.13 0 00-1.34-1l-.22-.14-.29-.19-.25-.14c-.22-.14-.43-.26-.66-.38-2.67-1.46-5-2.71-6.83-2.71a3.53 3.53 0 00-2.38.9 10 10 0 00-2.2 4c-2.22 7.04-4.16 20.35-7.38 22.31z"/><path class="cls-32" d="M221.54 164.52a98.8 98.8 0 019.59 4.37 82.87 82.87 0 018 4.85c4.24 2.67 3.92 4.66 3.92 4.66 2.11-1.75 4.21-22 3.69-28.16a15.27 15.27 0 00-1.21-5.1c-.05-.12-.11-.24-.17-.36l-.12-.24-.07-.11a6.86 6.86 0 00-.55-.85 1 1 0 00-.14-.2l-.15-.2-.14-.19-.14-.15c-.24-.27-.49-.54-.76-.79a1.71 1.71 0 00-.2-.18 12.13 12.13 0 00-1.34-1l-.22-.14-.29-.19-.25-.14c-.22-.14-.43-.26-.66-.38-2.67-1.46-5-2.71-6.83-2.71a3.53 3.53 0 00-2.38.9 10 10 0 00-2.2 4c-2.22 7.04-4.16 20.35-7.38 22.31z"/></g></g><g id="freepik--Bottom--inject-18"><path class="cls-17" d="M206.58 197.06s3 5.79 3.3 8.14 1 3.22.82 5.94c0 .59-.24 1.79-.28 2.27a.7.7 0 00.57.81h.14c1.1.13 2.69-2 3.35-4.29a64.18 64.18 0 001.45-7.9 3.38 3.38 0 00-.49-1.69 4.26 4.26 0 00-.55-.85c-.44-1.05-.79-3.07-1.21-4.46z"/><path class="cls-7" d="M218.2 204.1a2.31 2.31 0 01.36.78 9 9 0 01-1.29 2.83 4 4 0 00-.55 2.88 6.77 6.77 0 01-1.27 4.52 10.88 10.88 0 01-5.07 4c-2.53 1-3.55-.2-3.55-.2s-.92-1.19-.48-1.74 11.85-13.07 11.85-13.07z"/><path class="cls-8" d="M214.86 199.5a.45.45 0 01.44.18c.09.08.66 1.21 1.1 1.79a8.3 8.3 0 011.8 2.64c-.44 2-2.13 3.47-2.24 5.31s0 4-2.56 6.42-5.46 2.94-6.54 2.45-1.1-1.62.18-3.86 1.94-7.3 1.94-7.3a16.09 16.09 0 00.09-2.08 12.52 12.52 0 00-.37-2 1.56 1.56 0 01.05-.93 1.61 1.61 0 01.72-.6 7.24 7.24 0 011.4-.61 2.31 2.31 0 011.49.05 10.15 10.15 0 001 .51 1.33 1.33 0 001.34-.36 1.12 1.12 0 00.27-1.29 1.4 1.4 0 00-.11-.32z"/><path class="cls-21" d="M214.86 199.5a.45.45 0 01.44.18c.09.08.66 1.21 1.1 1.79a8.3 8.3 0 011.8 2.64c-.44 2-2.13 3.47-2.24 5.31s0 4-2.56 6.42-5.46 2.94-6.54 2.45-1.1-1.62.18-3.86 1.94-7.3 1.94-7.3a16.09 16.09 0 00.09-2.08 12.52 12.52 0 00-.37-2 1.56 1.56 0 01.05-.93 1.61 1.61 0 01.72-.6 7.24 7.24 0 011.4-.61 2.31 2.31 0 011.49.05 10.15 10.15 0 001 .51 1.33 1.33 0 001.34-.36 1.12 1.12 0 00.27-1.29 1.4 1.4 0 00-.11-.32z"/><path class="cls-1" d="M214.88 213.92a4.43 4.43 0 00-4.24-1.84c-3 .26-3.85 1.86-4.23 2.79-.45 1.1-.84 3.06.43 3.51s2.89.16 5.2-1.25a6.49 6.49 0 002.84-3.21zM213.57 205a.32.32 0 01-.27 0c-.48-.19-3-.49-4.24.94-.2-.13-.19-.4 0-.8a5.48 5.48 0 014.47-.69.28.28 0 01.16.37.28.28 0 01-.12.18zM208.92 207.74a.92.92 0 01.1-.82 5.58 5.58 0 014.28-.55.28.28 0 01.15.36.29.29 0 01-.13.14.26.26 0 01-.27 0c-.49-.14-2.83-.42-4.13.87zM208 211.86a1.65 1.65 0 01.28-1.1 5.48 5.48 0 014.41-.64.28.28 0 01.16.37.31.31 0 01-.4.16c-.45-.2-3.19-.49-4.45 1.21zM213 208.77a.32.32 0 01-.27 0c-.48-.19-2.89-.48-4.2.9a1.06 1.06 0 01.17-.91 5.54 5.54 0 014.27-.55.28.28 0 01.16.37.26.26 0 01-.13.19z"/><path class="cls-17" d="M204.73 204.94s-.93 7.38-2.17 10.28a24.18 24.18 0 01-3.66 6.53c-.38.48-1.28 1.39-1.6 1.78a.74.74 0 000 1l.08.07c.86.76 4.38.8 6.29-.75s3.58-4.77 4.7-6a18.31 18.31 0 001.2-1.44c.38-.5.24-.92.26-1.44 0-.25-.06-.95-.06-.95.22-1.24.87-3.21 1.21-4.4z"/><path class="cls-7" d="M210.73 219.61a2.66 2.66 0 010 .89c-.18.49-1.92 1.6-2.58 2a4.11 4.11 0 00-1.93 2.38 7.18 7.18 0 01-3.39 3.57 11.34 11.34 0 01-6.65 1.19c-2.84-.29-3.19-1.93-3.19-1.93s-.26-1.54.42-1.84 17.32-6.26 17.32-6.26z"/><path class="cls-8" d="M209.9 213.7c.08 0 .22.07.32.39 0 .12 0 1.44.14 2.2a8.37 8.37 0 01.37 3.31c-1.37 1.61-3.67 2.17-4.68 3.81s-1.9 3.67-5.5 4.67-6.48 0-7.24-.94-.21-2 2-3.47 5.38-5.79 5.38-5.8a15.38 15.38 0 001.1-1.88 13.44 13.44 0 00.65-2 1.7 1.7 0 01.51-.85 1.73 1.73 0 011-.19 7.06 7.06 0 011.59.12 2.38 2.38 0 011.35.78c.25.3.38.68.65.95a1.4 1.4 0 001.43.33 1.17 1.17 0 00.87-1.07 1.64 1.64 0 00.06-.36z"/><path class="cls-21" d="M209.9 213.7c.08 0 .22.07.32.39 0 .12 0 1.44.14 2.2a8.37 8.37 0 01.37 3.31c-1.37 1.61-3.67 2.17-4.68 3.81s-1.9 3.67-5.5 4.67-6.48 0-7.24-.94-.21-2 2-3.47 5.38-5.79 5.38-5.8a15.38 15.38 0 001.1-1.88 13.44 13.44 0 00.65-2 1.7 1.7 0 01.51-.85 1.73 1.73 0 011-.19 7.06 7.06 0 011.59.12 2.38 2.38 0 011.35.78c.25.3.38.68.65.95a1.4 1.4 0 001.43.33 1.17 1.17 0 00.87-1.07 1.64 1.64 0 00.06-.36z"/><path class="cls-1" d="M202.86 227a4.67 4.67 0 00-3-3.78c-2.87-1.2-4.48-.17-5.28.51s-2.28 2.42-1.33 3.45 2.6 1.57 5.42 1.4a6.72 6.72 0 004.19-1.58zM206 218.19a.32.32 0 01-.26-.12c-.35-.41-2.48-1.89-4.41-1.21-.11-.22 0-.46.42-.73a5.75 5.75 0 014.47 1.56.3.3 0 010 .41.38.38 0 01-.22.09zM200.34 218.42a.94.94 0 01.51-.72 5.81 5.81 0 014.21 1.59.3.3 0 010 .43.31.31 0 01-.18.07.35.35 0 01-.27-.11 4.84 4.84 0 00-4.27-1.26zM197.53 221.78a1.76 1.76 0 01.8-.88 5.86 5.86 0 014.41 1.58.3.3 0 010 .41.33.33 0 01-.45 0c-.43-.47-2.79-2.1-4.76-1.11zM203.65 221.37a.31.31 0 01-.26-.11c-.34-.41-2.43-1.86-4.31-1.23a1.09 1.09 0 01.59-.75 5.82 5.82 0 014.23 1.6.31.31 0 010 .42.31.31 0 01-.25.07z"/><path class="cls-6" d="M217.89 161.5c-2.94 2.29-11.48 9.12-15.61 13.21-1.2 1.18-2.64 2.37-2 6.2.75 4.41 5.31 19.15 5.31 19.15l25.2-32.31z"/><path class="cls-7" d="M206.19 195.32C209.93 192 221.74 172 221.74 172l-.55-.1c-2.82-1.33-3.67-4.81-3.67-4.81-.38 1.57.55 3.72 1.45 5-.95.87-5.61 5.07-9.36 8.22a5.49 5.49 0 00-2.18 3.51 115 115 0 00-1.24 11.5z"/><path class="cls-6" d="M219.27 162.52l22.27 3.35c-.74 6.06-1.8 7.61-2.67 8.92-1.31 2-3.18 4-8.59 7.06s-10.36 6-11.65 6.65c-1 .5-1.46 2.61-1.8 5.19a29.69 29.69 0 01-2.78 10.13 63.8 63.8 0 01-3.2 6.93s-4 .57-6.76-1.66c0 0 2.9-19 3.53-22.45.36-1.91.33-2.91 2.61-5.09 2-1.87 11-9.61 11-9.61s-4.05-4.13-1.96-9.42z"/><path class="cls-7" d="M237.56 165.27c-.24 3.74-.46 5.91-2.42 8.14-2.78-.89-2.78-3-2.48-5.58.1-.84.23-2 .35-3.24l-.59-.09c-.12 1.21-.25 2.41-.35 3.26-.23 2-.55 5 2.63 6.12a21 21 0 01-3.26 2.61c-2.55 1.73-5.51 3.44-8.09 4.95-3.94 2.29-7 4.1-7.71 5.26a18.74 18.74 0 00-1.25 5.33c-.31 2-.65 4.21-1.25 6.53-1 3.76-3 9.5-4 12.25h.63c1-2.83 3-8.42 4-12.12a67 67 0 001.26-6.61 18.23 18.23 0 011.18-5.13c.53-1 3.92-3 7.47-5 2.61-1.52 5.56-3.24 8.13-5 5.72-3.86 6.05-6.23 6.37-11.62z"/></g><g id="freepik--Top--inject-18"><path class="cls-17" d="M223.17 134.71c-5.75 1.29-6.06 1.8-10.11 5.89l-6.34 6.4s-4.62-8.49-4.8-9.83c-.21-1.6.42-2.62.51-4.36s-.12-2.88.22-3.64-1.1-.78-1.59.17-.42 2.21-.84 2-1-2.85-.85-4.82-1-2.37-1.33-1.71a4.85 4.85 0 00-.44 1.11 3.51 3.51 0 00-.55-.05.85.85 0 00-.72.26 5.9 5.9 0 01-.5.62 4.43 4.43 0 01-.69.43c-1.69 1-1.23 4.06-1 5.66.48 3.34 2.2 4.87 2.75 6.06.21.44.55 1.94 1.39 5 1 3.54 1.83 7.19 3.85 10.63 1.69 2.89 4 2.5 6.11 1.11 3-2 11.36-8.31 11.36-8.31 3.09-4.65 3.57-12.62 3.57-12.62z"/><path class="cls-6" d="M222 134.83c-2 .49-3.64.67-5.72 2.46s-9.51 9.36-9.51 9.36l-1.1-1.65a4.83 4.83 0 01-2.36 3.11 4 4 0 01-3.65.59 27.94 27.94 0 001.47 4.36c1 2.21 2.11 3.72 3.74 3.83s2.24 0 6-2.69 9.11-6.82 9.11-6.82z"/><path class="cls-38" d="M199.39 132.3a4.1 4.1 0 00-1 4.58 3.32 3.32 0 01-.7-3 2.37 2.37 0 011.7-1.58z"/><path class="cls-7" d="M206.72 146.63a9.54 9.54 0 011.31 5.13 7.15 7.15 0 00-.67-5.78z"/><path id="freepik--Chest--inject-18" d="M218.09 143c.74-6.76 2.53-8 4.77-8.46a24.05 24.05 0 016.61-.82c2.75.17 8.14 2.27 10.55 3.63 2.07 1.16 2.4 3.11 2.76 6.5.26 2.42 0 3.3 0 10.62a69.56 69.56 0 01-1.88 15.14c-4.69 3.3-19.2-.65-24.61-6.88a12.58 12.58 0 001.54-6.24c.17-5.87-.1-10.22.26-13.49z" fill="#f0f0f0"/><g id="freepik--Head--inject-18"><path class="cls-10" d="M232.46 117.09a2.71 2.71 0 012.2 1.75c.56 1.24.29 3.61-.09 6.46a22.49 22.49 0 01-1 4.9 2.17 2.17 0 01-1.1 1.11l-.27-3.31-.14-2.31a9.45 9.45 0 01-2-3.48 6 6 0 01-.09-3z"/><path class="cls-10" d="M232.46 117.09c-.55-1.82-3.3-3.39-7-3.18a7.43 7.43 0 00-6.49 4.2 4.07 4.07 0 000 3.86l11.15-1.29z"/><path class="cls-17" d="M235.58 128.4a2 2 0 01-2.58.34l.61 6.94c-1.1 2.51-5.58 4.4-7.82 3.66s-1.23-2-.42-3.05l-.28-2.16a19 19 0 01-2 .05c-1.54-.07-2.62-1.17-3.26-2.76-1-2.55-1.38-7.16-.55-12 1.84-1.74 6.79-2.07 10.6-.21.16 3 1.14 4.27 1.26 5.37a3 3 0 00.74.77c.61.42.93-.87 1.34-1.41s2.2-1.35 3.12.17a3.34 3.34 0 01-.76 4.29z"/><path class="cls-38" d="M225.09 134.16c1.93-.17 4.5-1.06 5.48-2.11a6.23 6.23 0 001.29-2.75 5.91 5.91 0 01-1.34 4c-1.49 1.5-5.28 1.94-5.28 1.94z"/><path class="cls-6" d="M217.73 124.08c.31.55.13.69.48 1.94s2.69 1.94 3.85.69a2.46 2.46 0 00.46-.72c.29-.66.22-1.6.7-1.7 1.34-.17.18 3.37 3.82 3.17 1.77-.07 2-1.79 2.21-3.15.07-.39.39-.47.43-1s-.37-.63-.75-.64a10.48 10.48 0 00-3.49 0 11 11 0 01-2.1.65c-.62 0-1-.39-2-.72a10 10 0 00-3.59.09c-.53.22-.28 1.14-.02 1.39zm7-.24c.77-.88 3.38-.92 3.93-.33.31.34.1 1.55-.06 2.11a.58.58 0 01-.07.21 1.73 1.73 0 01-1.83 1.17 2 2 0 01-1.5-.6 2.13 2.13 0 01-.52-1 2.3 2.3 0 010-1.51zm-4.72-.78c2 .06 2.72.6 2.12 2.62a1.94 1.94 0 01-2.68 1 2.29 2.29 0 01-1-1.62c-.19-1-.09-1.9 1.61-2z"/><path d="M223.58 128.61l-2.53-.8 2.31-3.53a.51.51 0 01.49.32z" fill="#fc9090"/><path class="cls-10" d="M226.44 121.92l1.74.49a.93.93 0 00-.64-1.14.88.88 0 00-1.09.61zM219.8 122.25l1.7-.52a.85.85 0 00-1-.6h-.06a.91.91 0 00-.64 1.12zM221.68 124.38a.71.71 0 01-.51.87.72.72 0 01-.88-.51.71.71 0 01.51-.87.73.73 0 01.36 0 .68.68 0 01.52.51zM227.4 124.58a.72.72 0 11-.72-.71.71.71 0 01.72.71z"/><path class="cls-38" d="M226.63 129.2l-3.1.62a1.55 1.55 0 001.77 1.3 1.65 1.65 0 001.33-1.92z"/><path class="cls-18" d="M226.25 129.67h.38a1.65 1.65 0 01-1.28 1.4 1.4 1.4 0 01-.5 0 1.44 1.44 0 011.4-1.4z"/></g></g><g id="freepik--Table--inject-18"><path class="cls-8" d="M210.36 186.13l4.64 40.55a.56.56 0 00.31.42 1.67 1.67 0 001.48 0 .56.56 0 00.31-.42l-3.81-40.55a.73.73 0 00-.43-.61 2.35 2.35 0 00-2.1 0 .72.72 0 00-.4.61zm-51.88 40.55a.56.56 0 00.31.42 1.67 1.67 0 001.48 0 .58.58 0 00.31-.42l4.67-40.54a.73.73 0 00-.43-.61 2.37 2.37 0 00-2.11 0 .73.73 0 00-.43.61zm27.71-34.29l.48 43.89a.55.55 0 00.34.46 1.78 1.78 0 001.65 0 .54.54 0 00.33-.46l.48-43.89a.79.79 0 00-.48-.67 2.52 2.52 0 00-2.3 0 .79.79 0 00-.5.65z"/><path d="M210.36 186.13l4.64 40.55a.56.56 0 00.31.42 1.67 1.67 0 001.48 0 .56.56 0 00.31-.42l-3.81-40.55a.73.73 0 00-.43-.61 2.35 2.35 0 00-2.1 0 .72.72 0 00-.4.61zm-51.88 40.55a.56.56 0 00.31.42 1.67 1.67 0 001.48 0 .58.58 0 00.31-.42l4.67-40.54a.73.73 0 00-.43-.61 2.37 2.37 0 00-2.11 0 .73.73 0 00-.43.61zm27.71-34.29l.48 43.89a.55.55 0 00.34.46 1.78 1.78 0 001.65 0 .54.54 0 00.33-.46l.48-43.89a.79.79 0 00-.48-.67 2.52 2.52 0 00-2.3 0 .79.79 0 00-.5.65z"/><g id="freepik--table--inject-18-2" data-name="freepik--table--inject-18"><g id="freepik--table--inject-18-3" data-name="freepik--table--inject-18"><g opacity=".15"><path d="M186.34 204.15l-.13-11.78a.79.79 0 01.48-.66 2.52 2.52 0 012.3 0 .79.79 0 01.48.66l-.13 11.78c-1.01.03-2.02.03-3 0zM162.28 186.13a.73.73 0 01.43-.61 2.37 2.37 0 012.11 0 .73.73 0 01.43.61l-1.44 12.49-.66-.36c-.66-.38-1.3-.8-1.9-1.2zM210.79 185.52a2.35 2.35 0 012.1 0 .73.73 0 01.44.61l1 10.94c-.6.4-1.25.83-1.91 1.21l-.64.35-1.44-12.5a.73.73 0 01.45-.61z"/></g><path class="cls-8" d="M212.53 164.22c-13.67-7.89-35.8-7.89-49.47 0-6.83 3.94-10.24 9.11-10.24 14.28v1c0 5.16 3.41 10.34 10.24 14.28 13.66 7.88 35.8 7.88 49.47 0 6.82-3.94 10.23-9.12 10.23-14.28v-1c0-5.17-3.38-10.34-10.23-14.28z"/><path d="M212.53 164.22c-13.67-7.89-35.8-7.89-49.47 0-6.83 3.94-10.24 9.11-10.24 14.28v1c0 5.16 3.41 10.34 10.24 14.28 13.66 7.88 35.8 7.88 49.47 0 6.82-3.94 10.23-9.12 10.23-14.28v-1c0-5.17-3.38-10.34-10.23-14.28z"/><path class="cls-8" d="M212.55 161.6c-13.65-7.89-35.79-7.89-49.46 0-6.83 3.94-10.23 9.1-10.23 14.28v1.71c0 5.17 3.4 10.34 10.23 14.28 13.66 7.89 35.8 7.89 49.46 0 6.83-3.94 10.24-9.83 10.24-15v-1c0-5.17-3.41-10.32-10.24-14.27z"/><path class="cls-12" d="M212.55 161.6c-13.65-7.89-35.79-7.89-49.46 0-6.83 3.94-10.23 9.1-10.23 14.28v1.71c0 5.17 3.4 10.34 10.23 14.28 13.66 7.89 35.8 7.89 49.46 0 6.83-3.94 10.24-9.83 10.24-15v-1c0-5.17-3.41-10.32-10.24-14.27z" opacity=".4"/><path d="M212.55 161.6c-13.65-7.89-35.79-7.89-49.46 0-6.83 3.94-10.23 9.1-10.23 14.28v1.71c0 5.17 3.4 10.34 10.23 14.28 13.66 7.89 35.8 7.89 49.46 0 6.83-3.94 10.24-9.83 10.24-15v-1c0-5.17-3.41-10.32-10.24-14.27z" opacity=".1"/><path class="cls-8" d="M163.09 190.15c-13.65-7.89-13.65-20.67 0-28.55s35.8-7.89 49.46 0 13.66 20.66 0 28.55-35.8 7.85-49.46 0z"/><path class="cls-12" d="M163.06 190.15c-13.66-7.89-13.66-20.67 0-28.55s35.8-7.89 49.47 0 13.65 20.66 0 28.55-35.81 7.85-49.47 0z" opacity=".85"/></g></g></g><g id="freepik--Laptop--inject-18"><g id="freepik--laptop--inject-18-2" data-name="freepik--laptop--inject-18"><path class="cls-23" d="M178.17 168.85L193 160.3a.86.86 0 01.85 0l25.67 14.82a.21.21 0 01.07.27l-.07.06-14.94 8.63z"/><path class="cls-7" d="M179.28 167v.33a1.39 1.39 0 00.68 1.19l23.91 13.8a1.34 1.34 0 001.37 0l13-7.5a1.36 1.36 0 00.68-1.18v-.46a.18.18 0 01-.08.15l-14.32 8.27z"/><path class="cls-6" d="M179.27 167l14.18-8.18a.8.8 0 01.82 0l24.6 14.2a.18.18 0 01.07.25.13.13 0 01-.07.06l-14.32 8.27z"/><path class="cls-7" d="M204.68 180.44l7.65-4.42-22.36-12.91-7.68 4.39 22.39 12.94z"/><path class="cls-10" d="M182.29 167.5l.29.17 7.39-4.23 22.07 12.75.29-.17-22.36-12.91-7.68 4.39zM208.44 168.16l-.14.08-3.74 2.17-6.67-3.85-.14-.08 3.89-2.24 6.8 3.92z"/><path class="cls-7" d="M208.3 168.24l-3.74 2.17-6.67-3.85 3.75-2.16 6.66 3.84z"/><path class="cls-10" d="M204.56 181.64v.9a1.3 1.3 0 01-.69-.18L180 168.56a1.39 1.39 0 01-.69-1.19V167z"/></g><g id="freepik--character--inject-18-2" data-name="freepik--character--inject-18"><g id="freepik--Arm--inject-18"><path class="cls-17" d="M222.33 167a13.79 13.79 0 00-1.55.33 18.82 18.82 0 01-1.73.75c-1.5.49-3.31.16-4.61.11a13.56 13.56 0 00-4.73.72c-1.2.51-2.68-1.33-3.31-1.1s-1.65-.24-.55-1.36 2.68-2.67 4-3.13a8 8 0 01.94-.32 10.94 10.94 0 01-1.39-.25 2.52 2.52 0 01-1.18-.76c-.12-.15-.21-.39-.06-.52a.32.32 0 01.19-.07c1 0 1.81-.21 2.75-.3a5.26 5.26 0 011.37-.12c.38.1.72.15 1.31.28a17.39 17.39 0 004.88.34c.52-.05 1.75-.21 1.75-.21.31 0 .67.77 1.24 2a7 7 0 01.68 3.61z"/><path class="cls-38" d="M211.38 162.24a4.84 4.84 0 011.85.27 10.39 10.39 0 00-2.4.46 10.65 10.65 0 01-1.39-.26 2.53 2.53 0 01-1.08-.64c.73.51 2.14.3 3.02.17z"/></g><path class="cls-17" d="M220.78 167.31c1.65-.6 5.38-.43 10.41-.93a49.56 49.56 0 005.58-.76c1.89-.44 2.93-.42 3.86-3.06a130.89 130.89 0 003.48-15.56c.52-3.6.07-5.66-1-7.28s-4.17-2.71-4.17-2.71a10.17 10.17 0 00-3.47 5.7 29.52 29.52 0 00-1 5.9l-1.74 9.39s-4.65 1.42-7.35 2.11c-3.43.89-4.95 1.22-6.17 1.42s1.57 5.78 1.57 5.78z"/><path class="cls-6" d="M238.7 136.72c1.49.52 4.83 1.94 5.5 5.05s-.4 8.36-.93 10.82-2.09 9.09-2.51 10.39a3.56 3.56 0 01-3.13 2.64 39.52 39.52 0 01-3.95.49 4.57 4.57 0 00-.35-4.19 7.17 7.17 0 00-3.4-3.08l2.68-.91s1.37-7.78 1.82-10.69 1.32-8.24 4.27-10.52z"/><path class="cls-7" d="M232.6 157.93c1.34-.34 5 .63 5.39 2.65-.09-1.61-2.1-3.88-5.21-3.68z"/></g><path class="cls-7" d="M204.17 181.84a1.61 1.61 0 01-1.4-.11L179 168a1.6 1.6 0 01-.79-1.13l-2.61-15.54a1.22 1.22 0 010-.27 1.6 1.6 0 01.48-1.15l24.75 14.29a1.2 1.2 0 01.57.83z"/><path class="cls-6" d="M204.56 181.64l-.17.09a1.51 1.51 0 01-.22.11L201.35 165a1.21 1.21 0 00-.58-.84L176 149.88a1.64 1.64 0 01.33-.26l24.78 14.32a1.21 1.21 0 01.58.84z"/><path class="cls-10" d="M201.13 164.5l.38-.22a1.17 1.17 0 01.22.51l2.83 16.85-.17.09a1.51 1.51 0 01-.22.11L201.35 165a1.18 1.18 0 00-.22-.5z"/><path class="cls-8" d="M190.75 167.49a5.3 5.3 0 00-2.41-3.09c-1.15-.66-1.93-.35-1.76.68a5.27 5.27 0 002.4 3.09c1.15.67 1.96.36 1.77-.68z"/></g><g id="freepik--Coffee--inject-18"><path id="freepik--shadow--inject-18-5" data-name="freepik--shadow--inject-18" class="cls-31" d="M172.33 181.7c2.2 1.14 2.2 3 0 4.12a9.7 9.7 0 01-7.93 0c-2.2-1.14-2.2-3 0-4.12a9.7 9.7 0 017.93 0z"/><g id="freepik--coffee--inject-18-2" data-name="freepik--coffee--inject-18"><path class="cls-10" d="M164.89 173.54a12.37 12.37 0 017 0c1.9.69 1.89 1.79 0 2.45a12.21 12.21 0 01-7 0c-1.97-.69-1.97-1.78 0-2.45z"/><path class="cls-1" d="M163.32 171.21l10.06.25-.86 12.54c-.05.4-.47.8-1.25 1.1a9.43 9.43 0 01-6-.15c-.79-.32-1.19-.73-1.23-1.14z"/><path class="cls-2" d="M173.38 171.46l-.22 2.26a5.08 5.08 0 01-.85.4 13.09 13.09 0 01-8-.2l-.26-.12a4.82 4.82 0 01-.63-.35l-.09-2.24z"/><path class="cls-7" d="M162.66 171.52l.05-1.69h1.17a3.52 3.52 0 01.52-.21 13 13 0 018 .19 4.44 4.44 0 01.49.24H174v1.69c0 .55-.58 1.1-1.65 1.49a13 13 0 01-8-.17c-1.14-.42-1.69-.98-1.69-1.54z"/><path class="cls-6" d="M164.45 168.34a13.08 13.08 0 018 .19c2.14.9 2.11 2.27-.09 3.06a13 13 0 01-8-.19c-2.22-.89-2.18-2.27.09-3.06z"/><path class="cls-7" d="M163.76 169.44l.4-1.39 2.88.08a12.44 12.44 0 012.86.06l2.79.07.33 1.41c.17.51-.28 1-1.34 1.4a11.2 11.2 0 01-6.61-.16c-1.07-.4-1.5-.91-1.31-1.47z"/><path class="cls-6" d="M165.45 167.2a10.77 10.77 0 016.06.15c1.65.62 1.6 1.56-.06 2.1a10.77 10.77 0 01-6.06-.15c-1.68-.63-1.63-1.55.06-2.1z"/><path class="cls-10" d="M164.73 168.23a.52.52 0 00.19.2 2.8 2.8 0 00.69.35 9.49 9.49 0 002.84.47 9 9 0 002.82-.33 2.49 2.49 0 00.68-.32.55.55 0 00.19-.2s-.15-.28-.84-.55a8.89 8.89 0 00-2.8-.47 9.53 9.53 0 00-2.86.33c-.72.23-.9.47-.91.52z"/><path class="cls-7" d="M164.92 168.43a2.8 2.8 0 00.69.35 9.49 9.49 0 002.84.47 9 9 0 002.82-.33 2.49 2.49 0 00.68-.32 2.32 2.32 0 00-.66-.35 10.08 10.08 0 00-5.66-.13 2.64 2.64 0 00-.71.31z"/><path d="M166.62 168.51a.92.92 0 00-.67-.14c-.12.06 0 .22.22.37a.88.88 0 00.67.13c.16-.06.03-.23-.22-.36z"/><path class="cls-6" d="M173 178.88c0 .41-.45.83-1.34 1.14a11.55 11.55 0 01-6.59 0c-.92-.32-1.37-.74-1.37-1.16l-.27-4.08c0 .45.49.9 1.47 1.24a12.37 12.37 0 007 0c.95-.33 1.43-.78 1.43-1.22z"/><path class="cls-10" d="M169.91 179.1a4.7 4.7 0 00.39-.69 2.21 2.21 0 011.15-.93.13.13 0 01.17.06 1.38 1.38 0 01-.42 1.61 1.64 1.64 0 01-1.71.39v-.07a1.35 1.35 0 00.42-.37zM171.18 177.35a2.24 2.24 0 00-.72.41 2 2 0 00-.55.66 2 2 0 01-.66.81.15.15 0 01-.2 0 1.35 1.35 0 01.36-1.72 1.66 1.66 0 011.76-.37.13.13 0 010 .18z"/></g></g></g></g><g id="freepik--speech-bubble--inject-18"><g id="freepik--speech-bubble--inject-18-2" data-name="freepik--speech-bubble--inject-18"><g id="freepik--speech-bubble--inject-18-3" data-name="freepik--speech-bubble--inject-18"><path class="cls-8" d="M226.26 106.07l1.65-3.1-1.32-3.85v-2.35l4.06 2.35v2.34l-1.75 3a.32.32 0 01-.12.11z"/><path class="cls-29" d="M226.26 106.07l1.65-3.1-1.32-3.85v-2.35l4.06 2.35v2.34l-1.75 3a.32.32 0 01-.12.11z"/><path class="cls-8" d="M217.6 77.6a2.7 2.7 0 011.22-2.11l1-.55a2.69 2.69 0 012.44 0l14.59 8.41a2.72 2.72 0 011.22 2.11v17.86a2.7 2.7 0 01-1.22 2.11l-1 .55a2.69 2.69 0 01-2.44 0l-5.32-3.06-1.74 3a.27.27 0 01-.36.09.26.26 0 01-.11-.14l-1.88-5.29-5.21-3a2.72 2.72 0 01-1.22-2.11z"/><path class="cls-29" d="M238.06 103.32a2.7 2.7 0 01-1.22 2.11l-1 .55a2.72 2.72 0 01-2.2.1c.55.21 1-.11 1-.81V87.76a3.36 3.36 0 00-.19-1.66l3.27-1.89a2.46 2.46 0 01.35 1.2z"/><path d="M217.64 77.25c.15-.51.61-.68 1.17-.35l14.6 8.41a2.5 2.5 0 011 .83l3.27-1.9a2.5 2.5 0 00-.86-.91l-14.59-8.41a2.69 2.69 0 00-2.44 0l-1 .55a2.69 2.69 0 00-1.15 1.78z" style="isolation:isolate" opacity=".3" fill="#fff"/></g><path id="freepik--World--inject-18" class="cls-12" d="M230.84 88.13l-.09-.16a12.53 12.53 0 00-4.47-5c-1.63-.94-3.17-1-4.35-.22l-.1.07h-.05c-1.2.91-1.86 2.66-1.86 4.92a15.74 15.74 0 001.86 7.07 12.61 12.61 0 004.5 5.08c1.69 1 3.3 1 4.49.11s1.83-2.69 1.83-4.92a15.61 15.61 0 00-1.76-6.95zM228.27 87c.14.46.27 1 .38 1.45a4 4 0 01-1.28-.24h-.12a6.08 6.08 0 01-.77-.37v-3.9a4 4 0 01.43.29 8.58 8.58 0 011.36 2.77zm-.46-2a12.61 12.61 0 012.33 3.1 3.16 3.16 0 01-.89.32H229a17.1 17.1 0 00-.41-1.57 12.58 12.58 0 00-.75-1.87zM226 91l-2.64-1.52a14.88 14.88 0 01.39-3.39 11.67 11.67 0 001.3 1.33l.13.11a7.81 7.81 0 00.82.6zm0 .59v2.81a4.93 4.93 0 00-.82-.35h-.13a3.81 3.81 0 00-1.3-.17 22.16 22.16 0 01-.39-3.8zm.45.25l2.65 1.54a16.08 16.08 0 01-.36 3.24 10.22 10.22 0 00-1.34-1.29l-.12-.1c-.27-.2-.55-.38-.83-.55zm0-.59v-2.87a5.73 5.73 0 00.83.39h.12a4.35 4.35 0 001.34.25 22.83 22.83 0 01.36 3.69zm-.45-7.6v3.86c-.26-.17-.51-.36-.76-.55l-.12-.11a10.88 10.88 0 01-1.25-1.29 8.79 8.79 0 01.34-.9c.38-.77.84-1.18 1.33-1.23a4.23 4.23 0 01.46.22zm-2 .55a8.78 8.78 0 00-.37 1 2.43 2.43 0 01-.14-.2l-.11-.14c-.3-.43-.57-.86-.83-1.32a3.05 3.05 0 012.21-.34 3.29 3.29 0 00-.76 1zm-.82 1l.11.16c.07.1.15.19.22.28a15.43 15.43 0 00-.42 3.58l-2.45-1.41a5.23 5.23 0 011.61-4.08c.29.52.6 1 .93 1.49zm-.18 4.6a23 23 0 00.42 4h-.33a3.08 3.08 0 00-.93.4 14.13 14.13 0 01-1.61-5.9zm.29 4.69h.25c.11.48.24 1 .37 1.39a13.39 13.39 0 00.75 1.9 12.58 12.58 0 01-2.2-2.88 2.65 2.65 0 01.83-.36zm.91 1.21c-.12-.42-.24-.85-.34-1.29a3.73 3.73 0 011.25.15h.12a4.65 4.65 0 01.76.31v3.86l-.42-.29a8.87 8.87 0 01-1.33-2.77zm2.3 3.38v-3.92c.27.17.53.36.78.55l.12.1a10 10 0 011.28 1.24 7.09 7.09 0 01-.38 1c-.38.78-.83 1.19-1.32 1.24zm2-.55a7.7 7.7 0 00.41-1.1l.16.2.11.14a13.46 13.46 0 01.9 1.37 3 3 0 01-2.33.41 3.27 3.27 0 00.73-1zm.87-1.1l-.12-.15-.22-.28a15.72 15.72 0 00.38-3.42l2.53 1.42a5.31 5.31 0 01-1.49 4 16.22 16.22 0 00-1-1.57zm0-4.44a22.1 22.1 0 00-.38-3.89h.34a3 3 0 001-.36 14.19 14.19 0 011.49 5.71z"/></g></g></g></g></svg>